<svg width="20" height="20" viewBox="0 0 20 20" fill="none" xmlns="http://www.w3.org/2000/svg">
<path fill-rule="evenodd" clip-rule="evenodd" d="M10 3.95825C9.11633 3.95825 8.4089 4.23155 6.72154 4.90649L4.38115 5.84265C3.53912 6.17946 2.95565 6.41374 2.57746 6.61201C2.5405 6.63139 2.50719 6.64958 2.47723 6.66659C2.50719 6.68359 2.5405 6.70178 2.57746 6.72116C2.95565 6.91943 3.53912 7.15371 4.38115 7.49052L6.72154 8.42668C8.4089 9.10162 9.11633 9.37492 10 9.37492C10.8837 9.37492 11.5911 9.10162 13.2785 8.42668L15.6189 7.49052C16.4609 7.15371 17.0444 6.91943 17.4225 6.72116C17.4595 6.70178 17.4928 6.68359 17.5228 6.66658C17.4928 6.64957 17.4595 6.63139 17.4225 6.61201C17.0444 6.41374 16.4609 6.17946 15.6189 5.84265L13.2785 4.90649C11.5911 4.23155 10.8837 3.95825 10 3.95825ZM6.35368 3.70733C7.91767 3.08155 8.85064 2.70825 10 2.70825C11.1494 2.70825 12.0823 3.08155 13.6463 3.70733C13.6782 3.72008 13.7103 3.73294 13.7427 3.7459L16.1209 4.69717C16.9164 5.01535 17.5607 5.27306 18.0029 5.50493C18.2268 5.62228 18.4436 5.75532 18.6108 5.9157C18.7826 6.08049 18.9583 6.3304 18.9583 6.66659C18.9583 7.00277 18.7826 7.25268 18.6108 7.41747C18.4436 7.57785 18.2268 7.71089 18.0029 7.82824C17.7099 7.98188 17.3282 8.14686 16.8725 8.33325C17.3282 8.51965 17.7099 8.68463 18.0029 8.83826C18.2268 8.95561 18.4436 9.08865 18.6108 9.24903C18.7826 9.41382 18.9583 9.66373 18.9583 9.99992C18.9583 10.3361 18.7826 10.586 18.6108 10.7508C18.4436 10.9112 18.2268 11.0442 18.0029 11.1616C17.7099 11.3152 17.3282 11.4802 16.8725 11.6666C17.3282 11.853 17.7099 12.018 18.0029 12.1716C18.2268 12.2889 18.4436 12.422 18.6108 12.5824C18.7826 12.7472 18.9583 12.9971 18.9583 13.3333C18.9583 13.6694 18.7826 13.9193 18.6108 14.0841C18.4436 14.2445 18.2268 14.3776 18.0029 14.4949C17.5607 14.7268 16.9164 14.9845 16.1209 15.3026L13.7427 16.2539C13.7103 16.2669 13.6782 16.2798 13.6463 16.2925C12.0823 16.9183 11.1494 17.2916 10 17.2916C8.85064 17.2916 7.91768 16.9183 6.35369 16.2925C6.32182 16.2798 6.28969 16.2669 6.2573 16.2539L3.87908 15.3027C3.08361 14.9845 2.43933 14.7268 1.99706 14.4949C1.77322 14.3776 1.55638 14.2445 1.38917 14.0841C1.21737 13.9194 1.04167 13.6694 1.04167 13.3333C1.04167 12.9971 1.21737 12.7472 1.38917 12.5824C1.55638 12.422 1.77322 12.2889 1.99706 12.1716C2.29011 12.018 2.67185 11.853 3.12749 11.6666C2.67185 11.4802 2.29011 11.3152 1.99706 11.1616C1.77322 11.0442 1.55638 10.9112 1.38917 10.7508C1.21737 10.586 1.04167 10.3361 1.04167 9.99992C1.04167 9.66373 1.21737 9.41382 1.38917 9.24903C1.55638 9.08865 1.77322 8.95561 1.99706 8.83826C2.29011 8.68463 2.67185 8.51965 3.12749 8.33325C2.67185 8.14686 2.29011 7.98188 1.99706 7.82824C1.77322 7.71089 1.55638 7.57785 1.38917 7.41747C1.21737 7.25268 1.04167 7.00277 1.04167 6.66659C1.04167 6.3304 1.21737 6.08049 1.38917 5.9157C1.55638 5.75532 1.77322 5.62228 1.99706 5.50493C2.43934 5.27305 3.08364 5.01534 3.87914 4.69716L6.2573 3.7459C6.28969 3.73294 6.32182 3.72008 6.35368 3.70733ZM4.80511 9.0064L4.38115 9.17598C3.53912 9.51279 2.95565 9.74707 2.57746 9.94534C2.5405 9.96472 2.5072 9.98291 2.47723 9.99992C2.5072 10.0169 2.5405 10.0351 2.57746 10.0545C2.95565 10.2528 3.53912 10.487 4.38115 10.8239L6.72154 11.76C8.4089 12.435 9.11633 12.7083 10 12.7083C10.8837 12.7083 11.5911 12.435 13.2785 11.76L15.6189 10.8239C16.4609 10.487 17.0444 10.2528 17.4225 10.0545C17.4595 10.0351 17.4928 10.0169 17.5228 9.99992C17.4928 9.98291 17.4595 9.96472 17.4225 9.94534C17.0444 9.74707 16.4609 9.51279 15.6189 9.17598L15.1949 9.0064L13.7427 9.58727C13.7103 9.60023 13.6782 9.61309 13.6463 9.62584C12.0823 10.2516 11.1494 10.6249 10 10.6249C8.85064 10.6249 7.91768 10.2516 6.35369 9.62584C6.32182 9.61309 6.28969 9.60023 6.2573 9.58727L4.80511 9.0064ZM4.80511 12.3397L4.38115 12.5093C3.53912 12.8461 2.95565 13.0804 2.57746 13.2787C2.5405 13.2981 2.5072 13.3162 2.47723 13.3333C2.5072 13.3503 2.5405 13.3685 2.57746 13.3878C2.95565 13.5861 3.53912 13.8204 4.38115 14.1572L6.72154 15.0933C8.4089 15.7683 9.11633 16.0416 10 16.0416C10.8837 16.0416 11.5911 15.7683 13.2785 15.0933L15.6189 14.1572C16.4609 13.8204 17.0444 13.5861 17.4225 13.3878C17.4595 13.3685 17.4928 13.3503 17.5228 13.3333C17.4928 13.3162 17.4595 13.2981 17.4225 13.2787C17.0444 13.0804 16.4609 12.8461 15.6189 12.5093L15.1949 12.3397L13.7427 12.9206C13.7103 12.9336 13.6782 12.9464 13.6463 12.9592C12.0823 13.585 11.1494 13.9583 10 13.9583C8.85064 13.9583 7.91768 13.585 6.35369 12.9592C6.32182 12.9464 6.28969 12.9336 6.2573 12.9206L4.80511 12.3397Z" fill="#2C2D3A"/>
</svg>
