<svg width="25" height="24" viewBox="0 0 25 24" fill="none" xmlns="http://www.w3.org/2000/svg">
<path d="M9.20004 16.5299C9.68004 16.0099 10.4201 16.0499 10.8401 16.6199L11.4401 17.4199C11.9101 18.0499 12.69 18.0499 13.16 17.4199L13.7501 16.6299C14.1701 16.0699 14.91 16.0299 15.39 16.5399C16.44 17.6599 17.29 17.2899 17.29 15.7199V9.08988C17.29 6.71988 16.73 6.12988 14.51 6.12988H10.07C7.85004 6.12988 7.29004 6.71988 7.29004 9.08988V15.7199C7.30004 17.2699 8.16004 17.6399 9.20004 16.5299Z" fill="#004BFE"/>
<path opacity="0.4" d="M16.4905 2H8.12054C4.48054 2 2.31055 4.17 2.31055 7.81V16.18C2.31055 19.82 4.48054 21.99 8.12054 21.99H16.4905C20.1305 21.99 22.3005 19.82 22.3005 16.18V7.81C22.3005 4.17 20.1305 2 16.4905 2Z" fill="#004BFE"/>
</svg>
