<svg width="18" height="20" viewBox="0 0 18 20" fill="none" xmlns="http://www.w3.org/2000/svg">
<path d="M13.8198 0H4.17982C2.04982 0 0.319824 1.74 0.319824 3.86V17.95C0.319824 19.75 1.60982 20.51 3.18982 19.64L8.06982 16.93C8.58982 16.64 9.42982 16.64 9.93982 16.93L14.8198 19.64C16.3998 20.52 17.6898 19.76 17.6898 17.95V3.86C17.6798 1.74 15.9498 0 13.8198 0ZM12.0098 7.75C11.0398 8.1 10.0198 8.28 8.99982 8.28C7.97982 8.28 6.95982 8.1 5.98982 7.75C5.59982 7.61 5.39982 7.18 5.53982 6.79C5.68982 6.4 6.11982 6.2 6.50982 6.34C8.11982 6.92 9.88982 6.92 11.4998 6.34C11.8898 6.2 12.3198 6.4 12.4598 6.79C12.5998 7.18 12.3998 7.61 12.0098 7.75Z" fill="#004BFE"/>
</svg>
