<svg width="25" height="25" viewBox="0 0 25 25" fill="none" xmlns="http://www.w3.org/2000/svg">
<path d="M15.5 22.9707H9.5C4.07 22.9707 1.75 20.6507 1.75 15.2207V9.2207C1.75 3.7907 4.07 1.4707 9.5 1.4707H15.5C20.93 1.4707 23.25 3.7907 23.25 9.2207V15.2207C23.25 20.6507 20.93 22.9707 15.5 22.9707ZM9.5 2.9707C4.89 2.9707 3.25 4.6107 3.25 9.2207V15.2207C3.25 19.8307 4.89 21.4707 9.5 21.4707H15.5C20.11 21.4707 21.75 19.8307 21.75 15.2207V9.2207C21.75 4.6107 20.11 2.9707 15.5 2.9707H9.5Z" fill="#484C52"/>
<path d="M12.5 18.8511C11.94 18.8511 11.41 18.5711 11.04 18.0811L10.44 17.2811C10.37 17.1911 10.29 17.1411 10.2 17.1311C10.11 17.1311 10.03 17.1711 9.95001 17.2511L9.39999 16.7411L9.95001 17.2511C8.98001 18.2911 8.18999 18.1911 7.79999 18.0411C7.40999 17.8811 6.75 17.4011 6.75 15.9211V9.29106C6.75 6.51106 7.64 5.58105 10.28 5.58105H14.73C17.37 5.58105 18.26 6.52106 18.26 9.29106V15.9211C18.26 17.4011 17.6 17.8911 17.21 18.0411C16.83 18.1911 16.04 18.2911 15.06 17.2511C14.98 17.1711 14.89 17.1311 14.8 17.1311C14.71 17.1311 14.63 17.1911 14.56 17.2811L13.97 18.0711C13.59 18.5711 13.06 18.8511 12.5 18.8511ZM10.19 15.6311C10.22 15.6311 10.25 15.6311 10.28 15.6311C10.81 15.6611 11.3 15.9311 11.63 16.3811L12.23 17.1811C12.4 17.4011 12.59 17.4011 12.75 17.1811L13.34 16.3911C13.67 15.9411 14.17 15.6711 14.7 15.6411C15.22 15.6011 15.75 15.8311 16.13 16.2411C16.41 16.5411 16.59 16.6211 16.66 16.6411C16.65 16.5911 16.74 16.3911 16.74 15.9311V9.30106C16.74 7.25106 16.43 7.09105 14.71 7.09105H10.26C8.54001 7.09105 8.23001 7.25106 8.23001 9.30106V15.9311C8.23001 16.3911 8.32001 16.591 8.35001 16.651C8.38001 16.611 8.55999 16.531 8.82999 16.231C8.82999 16.221 8.84001 16.2211 8.85001 16.2111C9.22001 15.8511 9.7 15.6311 10.19 15.6311Z" fill="#484C52"/>
</svg>
