<svg width="36" height="36" viewBox="0 0 36 36" fill="none" xmlns="http://www.w3.org/2000/svg">
<rect width="36" height="36" rx="18" fill="#F0F0F3"/>
<path d="M17.9998 16.2801C16.9798 16.2801 15.9598 16.1001 14.9898 15.7501C14.5998 15.6101 14.3998 15.1801 14.5398 14.7901C14.6898 14.4001 15.1198 14.2001 15.5098 14.3401C17.1198 14.9201 18.8898 14.9201 20.4998 14.3401C20.8898 14.2001 21.3198 14.4001 21.4598 14.7901C21.5998 15.1801 21.3998 15.6101 21.0098 15.7501C20.0398 16.1001 19.0198 16.2801 17.9998 16.2801Z" fill="#484C52"/>
<path d="M25.0698 28.75C24.5598 28.75 23.9998 28.6 23.4598 28.29L18.5798 25.58C18.2898 25.42 17.7198 25.42 17.4298 25.58L12.5498 28.29C11.5598 28.84 10.5498 28.9 9.77982 28.44C9.00982 27.99 8.56982 27.08 8.56982 25.95V11.86C8.56982 9.32 10.6398 7.25 13.1798 7.25H22.8298C25.3698 7.25 27.4398 9.32 27.4398 11.86V25.95C27.4398 27.08 26.9998 27.99 26.2298 28.44C25.8798 28.65 25.4798 28.75 25.0698 28.75ZM17.9998 23.96C18.4698 23.96 18.9298 24.06 19.2998 24.27L24.1798 26.98C24.6898 27.27 25.1598 27.33 25.4598 27.15C25.7598 26.97 25.9298 26.54 25.9298 25.95V11.86C25.9298 10.15 24.5298 8.75 22.8198 8.75H13.1798C11.4698 8.75 10.0698 10.15 10.0698 11.86V25.95C10.0698 26.54 10.2398 26.98 10.5398 27.15C10.8398 27.32 11.2998 27.27 11.8198 26.98L16.6998 24.27C17.0698 24.06 17.5298 23.96 17.9998 23.96Z" fill="#484C52"/>
<path d="M25.0698 28.75C24.5598 28.75 23.9998 28.6 23.4598 28.29L18.5798 25.58C18.2898 25.42 17.7198 25.42 17.4298 25.58L12.5498 28.29C11.5598 28.84 10.5498 28.9 9.77982 28.44C9.00982 27.99 8.56982 27.08 8.56982 25.95V11.86C8.56982 9.32 10.6398 7.25 13.1798 7.25H22.8298C25.3698 7.25 27.4398 9.32 27.4398 11.86V25.95C27.4398 27.08 26.9998 27.99 26.2298 28.44C25.8798 28.65 25.4798 28.75 25.0698 28.75ZM17.9998 23.96C18.4698 23.96 18.9298 24.06 19.2998 24.27L24.1798 26.98C24.6898 27.27 25.1598 27.33 25.4598 27.15C25.7598 26.97 25.9298 26.54 25.9298 25.95V11.86C25.9298 10.15 24.5298 8.75 22.8198 8.75H13.1798C11.4698 8.75 10.0698 10.15 10.0698 11.86V25.95C10.0698 26.54 10.2398 26.98 10.5398 27.15C10.8398 27.32 11.2998 27.27 11.8198 26.98L16.6998 24.27C17.0698 24.06 17.5298 23.96 17.9998 23.96Z" fill="#484C52"/>
</svg>
