<svg width="25" height="24" viewBox="0 0 25 24" fill="none" xmlns="http://www.w3.org/2000/svg">
<path d="M15.3003 22.75H9.30029C3.87029 22.75 1.55029 20.43 1.55029 15V9C1.55029 3.57 3.87029 1.25 9.30029 1.25H15.3003C20.7303 1.25 23.0503 3.57 23.0503 9V15C23.0503 20.43 20.7303 22.75 15.3003 22.75ZM9.30029 2.75C4.69029 2.75 3.05029 4.39 3.05029 9V15C3.05029 19.61 4.69029 21.25 9.30029 21.25H15.3003C19.9103 21.25 21.5503 19.61 21.5503 15V9C21.5503 4.39 19.9103 2.75 15.3003 2.75H9.30029Z" fill="#484C52"/>
<path d="M12.3003 18.6299C11.7403 18.6299 11.2103 18.3499 10.8403 17.8599L10.2403 17.0599C10.1703 16.9699 10.0903 16.9199 10.0003 16.9099C9.91031 16.9099 9.83031 16.9499 9.75031 17.0299L9.20029 16.5199L9.75031 17.0299C8.78031 18.0699 7.99028 17.9699 7.60028 17.8199C7.21028 17.6599 6.55029 17.1799 6.55029 15.6999V9.06987C6.55029 6.28987 7.44029 5.35986 10.0803 5.35986H14.5303C17.1703 5.35986 18.0603 6.29987 18.0603 9.06987V15.6999C18.0603 17.1799 17.4003 17.6699 17.0103 17.8199C16.6303 17.9699 15.8403 18.0699 14.8603 17.0299C14.7803 16.9499 14.6903 16.9099 14.6003 16.9099C14.5103 16.9099 14.4303 16.9699 14.3603 17.0599L13.7703 17.8499C13.3903 18.3499 12.8603 18.6299 12.3003 18.6299ZM9.9903 15.4099C10.0203 15.4099 10.0503 15.4099 10.0803 15.4099C10.6103 15.4399 11.1003 15.7099 11.4303 16.1599L12.0303 16.9599C12.2003 17.1799 12.3903 17.1799 12.5503 16.9599L13.1403 16.1699C13.4703 15.7199 13.9703 15.4499 14.5003 15.4199C15.0203 15.3799 15.5503 15.6099 15.9303 16.0199C16.2103 16.3199 16.3903 16.3999 16.4603 16.4199C16.4503 16.3699 16.5403 16.1699 16.5403 15.7099V9.07986C16.5403 7.02986 16.2303 6.86986 14.5103 6.86986H10.0603C8.3403 6.86986 8.0303 7.02986 8.0303 9.07986V15.7099C8.0303 16.1699 8.1203 16.3699 8.1503 16.4299C8.1803 16.3899 8.36028 16.3099 8.63028 16.0099C8.63028 15.9999 8.6403 15.9999 8.6503 15.9899C9.0203 15.6299 9.5003 15.4099 9.9903 15.4099Z" fill="#484C52"/>
</svg>
