<svg width="41" height="40" viewBox="0 0 41 40" fill="none" xmlns="http://www.w3.org/2000/svg">
<path d="M33.5 0H7.5C3.63401 0 0.5 3.13401 0.5 7V33C0.5 36.866 3.63401 40 7.5 40H33.5C37.366 40 40.5 36.866 40.5 33V7C40.5 3.13401 37.366 0 33.5 0Z" fill="#FDF8E8"/>
<path d="M13 26.75C12.59 26.75 12.25 26.41 12.25 26V15C12.25 10.59 13.59 9.25 18 9.25H25C29.41 9.25 30.75 10.59 30.75 15V25C30.75 25.16 30.75 25.31 30.74 25.47C30.71 25.88 30.34 26.2 29.94 26.17C29.53 26.14 29.21 25.78 29.24 25.37C29.25 25.25 29.25 25.12 29.25 25V15C29.25 11.43 28.58 10.75 25 10.75H18C14.42 10.75 13.75 11.43 13.75 15V26C13.75 26.41 13.41 26.75 13 26.75Z" fill="#FFCA00"/>
<path d="M26.5 30.75H16.5C14.16 30.75 12.25 28.84 12.25 26.5V25.85C12.25 23.86 13.87 22.25 15.85 22.25H30C30.41 22.25 30.75 22.59 30.75 23V26.5C30.75 28.84 28.84 30.75 26.5 30.75ZM15.85 23.75C14.69 23.75 13.75 24.69 13.75 25.85V26.5C13.75 28.02 14.98 29.25 16.5 29.25H26.5C28.02 29.25 29.25 28.02 29.25 26.5V23.75H15.85Z" fill="#FFCA00"/>
<path d="M25.5 15.75H17.5C17.09 15.75 16.75 15.41 16.75 15C16.75 14.59 17.09 14.25 17.5 14.25H25.5C25.91 14.25 26.25 14.59 26.25 15C26.25 15.41 25.91 15.75 25.5 15.75Z" fill="#FFCA00"/>
<path d="M22.5 19.25H17.5C17.09 19.25 16.75 18.91 16.75 18.5C16.75 18.09 17.09 17.75 17.5 17.75H22.5C22.91 17.75 23.25 18.09 23.25 18.5C23.25 18.91 22.91 19.25 22.5 19.25Z" fill="#FFCA00"/>
</svg>
