<svg width="70" height="70" viewBox="0 0 70 70" fill="none" xmlns="http://www.w3.org/2000/svg">
<path d="M35.051 2.20459C41.5139 2.20459 47.8317 4.12106 53.2054 7.71166C58.5791 11.3023 62.7674 16.4057 65.2407 22.3766C67.7139 28.3476 68.361 34.9178 67.1002 41.2566C65.8393 47.5953 62.7271 53.4178 58.1572 57.9877C53.5872 62.5577 47.7647 65.6699 41.426 66.9307C35.0873 68.1916 28.517 67.5444 22.5461 65.0712C16.5751 62.598 11.4717 58.4097 7.8811 53.036" stroke="#C9C9C9" stroke-width="3"/>
<path d="M33.9163 67.4322C25.2585 67.1289 17.0758 63.3987 11.1683 57.0622C5.26079 50.7257 2.11239 42.302 2.41572 33.6442C2.47855 31.8724 2.68316 30.1085 3.02761 28.3694C4.54655 20.7724 8.71763 13.9632 14.7954 9.15871C20.8731 4.35425 28.4613 1.86772 36.2037 2.14356" stroke="#C9C9C9" stroke-width="3"/>
<path d="M34.7539 61.3027C49.3895 61.3027 61.2539 49.4383 61.2539 34.8027C61.2539 20.1672 49.3895 8.30273 34.7539 8.30273C20.1184 8.30273 8.25391 20.1672 8.25391 34.8027C8.25391 49.4383 20.1184 61.3027 34.7539 61.3027Z" fill="#95989A"/>
<path d="M32.1081 27.2216C31.9687 27.3609 31.8582 27.5263 31.7827 27.7083C31.7073 27.8904 31.6685 28.0855 31.6685 28.2826C31.6685 28.4797 31.7073 28.6748 31.7827 28.8568C31.8582 29.0389 31.9687 29.2043 32.1081 29.3436L36.6931 33.9296C36.7869 34.0234 36.8395 34.1505 36.8395 34.2831C36.8395 34.4157 36.7869 34.5428 36.6931 34.6366L32.1081 39.2216C31.8267 39.5029 31.6686 39.8844 31.6685 40.2822C31.6684 40.6801 31.8264 41.0617 32.1076 41.3431C32.3889 41.6245 32.7704 41.7826 33.1683 41.7827C33.5661 41.7828 33.9477 41.6248 34.2291 41.3436L38.8151 36.7576C39.1402 36.4326 39.398 36.0467 39.5739 35.6221C39.7498 35.1974 39.8404 34.7422 39.8404 34.2826C39.8404 33.8229 39.7498 33.3678 39.5739 32.9431C39.398 32.5185 39.1402 32.1326 38.8151 31.8076L34.2291 27.2216C33.9478 26.9404 33.5664 26.7824 33.1686 26.7824C32.7709 26.7824 32.3894 26.9404 32.1081 27.2216Z" fill="white"/>
</svg>
