<svg width="17" height="18" viewBox="0 0 17 18" fill="none" xmlns="http://www.w3.org/2000/svg">
<path d="M12.75 1.91667V3.33334M4.25001 1.91667V3.33334M8.49718 9.70834H8.50284M8.49718 12.5417H8.50284M11.327 9.70834H11.3333M5.66668 9.70834H5.67305M5.66668 12.5417H5.67305M2.47918 6.16667H14.5208M2.12501 6.16667H14.875M1.77084 9.17213C1.77084 6.08592 1.77084 4.54246 2.65768 3.58338C3.54451 2.62501 4.97251 2.62501 7.82709 2.62501H9.17293C12.0275 2.62501 13.4555 2.62501 14.3423 3.58409C15.2292 4.54246 15.2292 6.08592 15.2292 9.17284V9.53621C15.2292 12.6224 15.2292 14.1659 14.3423 15.125C13.4555 16.0833 12.0275 16.0833 9.17293 16.0833H7.82709C4.97251 16.0833 3.54451 16.0833 2.65768 15.1243C1.77084 14.1659 1.77084 12.6224 1.77084 9.53551V9.17213Z" stroke="black" stroke-width="1.0625" stroke-linecap="round" stroke-linejoin="round"/>
</svg>
