<svg width="20" height="20" viewBox="0 0 20 20" fill="none" xmlns="http://www.w3.org/2000/svg">
<path d="M12.5 2.49998C13.7763 2.64176 14.9248 3.2592 15.8333 4.16665C16.7419 5.07409 17.3566 6.22389 17.5 7.49998M12.0833 5.41665C12.6976 5.5365 13.3074 5.80741 13.75 6.24998C14.1926 6.69254 14.4635 7.30235 14.5833 7.91665M6.83375 13.1658C1.08543 7.41683 1.90283 4.78427 2.5088 3.93594C2.58665 3.79883 4.50541 0.926546 6.56217 2.6117C11.6674 6.81619 5.41668 6.66665 9.49117 10.5094C13.5657 14.3521 13.1845 8.33327 17.3883 13.4374C19.0735 15.495 16.2011 17.4137 16.0649 17.4906C15.2165 18.0975 12.583 18.9148 6.83375 13.1658Z" stroke="#FF8200" stroke-linecap="round" stroke-linejoin="round"/>
</svg>
