<svg width="25" height="25" viewBox="0 0 25 25" fill="none" xmlns="http://www.w3.org/2000/svg">
<path d="M17.7399 23.25H7.25993C4.45993 23.25 2.67993 21.58 2.51993 18.79L1.99993 10.54C1.91993 9.29 2.34993 8.09 3.20993 7.18C4.05993 6.27 5.25993 5.75 6.49993 5.75C6.81993 5.75 7.12993 5.56 7.27993 5.26L7.99993 3.83C8.58993 2.66 10.0699 1.75 11.3599 1.75H13.6499C14.9399 1.75 16.4099 2.66 16.9999 3.82L17.7199 5.28C17.8699 5.56 18.1699 5.75 18.4999 5.75C19.7399 5.75 20.9399 6.27 21.7899 7.18C22.6499 8.1 23.0799 9.29 22.9999 10.54L22.4799 18.8C22.2999 21.63 20.5699 23.25 17.7399 23.25ZM11.3599 3.25C10.6199 3.25 9.67993 3.83 9.33993 4.5L8.61993 5.94C8.19993 6.75 7.38993 7.25 6.49993 7.25C5.65993 7.25 4.87993 7.59 4.29993 8.2C3.72993 8.81 3.43993 9.61 3.49993 10.44L4.01993 18.7C4.13993 20.72 5.22993 21.75 7.25993 21.75H17.7399C19.7599 21.75 20.8499 20.72 20.9799 18.7L21.4999 10.44C21.5499 9.61 21.2699 8.81 20.6999 8.2C20.1199 7.59 19.3399 7.25 18.4999 7.25C17.6099 7.25 16.7999 6.75 16.3799 5.96L15.6499 4.5C15.3199 3.84 14.3799 3.26 13.6399 3.26H11.3599V3.25Z" fill="white"/>
<path d="M14 9.25H11C10.59 9.25 10.25 8.91 10.25 8.5C10.25 8.09 10.59 7.75 11 7.75H14C14.41 7.75 14.75 8.09 14.75 8.5C14.75 8.91 14.41 9.25 14 9.25Z" fill="white"/>
<path d="M12.5 19.25C10.29 19.25 8.5 17.46 8.5 15.25C8.5 13.04 10.29 11.25 12.5 11.25C14.71 11.25 16.5 13.04 16.5 15.25C16.5 17.46 14.71 19.25 12.5 19.25ZM12.5 12.75C11.12 12.75 10 13.87 10 15.25C10 16.63 11.12 17.75 12.5 17.75C13.88 17.75 15 16.63 15 15.25C15 13.87 13.88 12.75 12.5 12.75Z" fill="white"/>
</svg>
