<svg width="17" height="16" viewBox="0 0 17 16" fill="none" xmlns="http://www.w3.org/2000/svg">
<path d="M3.38996 3.33333H12.9096C13.8765 3.33333 14.5593 4.22493 14.2535 5.0883L13.073 8.42164C12.8801 8.96609 12.3388 9.33333 11.729 9.33333H4.30067M3.38996 3.33333L3.36134 3.14477C3.26164 2.48791 2.66392 2 1.95891 2H1.41675M3.38996 3.33333L4.30067 9.33333M4.30067 9.33333L4.43049 10.1886C4.53019 10.8454 5.12791 11.3333 5.83292 11.3333H12.0417M12.0417 11.3333C11.2593 11.3333 10.6251 11.9303 10.6251 12.6667C10.6251 13.403 11.2593 14 12.0417 14C12.8242 14 13.4584 13.403 13.4584 12.6667C13.4584 11.9303 12.8242 11.3333 12.0417 11.3333ZM7.79175 12.6667C7.79175 13.403 7.15749 14 6.37508 14C5.59268 14 4.95841 13.403 4.95841 12.6667C4.95841 11.9303 5.59268 11.3333 6.37508 11.3333C7.15749 11.3333 7.79175 11.9303 7.79175 12.6667Z" stroke="black" stroke-linecap="round" stroke-linejoin="round"/>
</svg>
