<svg width="10" height="10" viewBox="0 0 10 10" fill="none" xmlns="http://www.w3.org/2000/svg">
<path d="M8.125 0C7.54167 0 7 0.291667 6.66667 0.75C6.125 0.541667 5.58333 0.416667 5 0.416667C4.41667 0.416667 3.875 0.541667 3.33333 0.75C3 0.291667 2.45833 0 1.875 0C0.833333 0 0 0.833333 0 1.875C0 2.45833 0.291667 3 0.75 3.33333C0.541667 3.875 0.416667 4.41667 0.416667 5C0.416667 6.375 1.04167 7.58333 1.95833 8.41667L0.916667 9.45833C0.833333 9.58333 0.833333 9.79167 0.958333 9.91667C1 9.95833 1.08333 10 1.16667 10C1.25 10 1.33333 9.95833 1.375 9.91667L2.45833 8.83333C3.20833 9.29167 4.08333 9.58333 5 9.58333C5.91667 9.58333 6.79167 9.29167 7.54167 8.83333L8.625 9.91667C8.66667 9.95833 8.75 10 8.83333 10C8.91667 10 9 9.95833 9.04167 9.91667C9.16667 9.79167 9.16667 9.58333 9.04167 9.45833L8 8.41667C8.95833 7.58333 9.54167 6.33333 9.54167 5C9.54167 4.41667 9.41667 3.875 9.20833 3.33333C9.70833 3 10 2.45833 10 1.875C10 0.833333 9.16667 0 8.125 0ZM0.625 1.875C0.625 1.20833 1.16667 0.625 1.875 0.625C2.20833 0.625 2.54167 0.75 2.75 1C2 1.41667 1.41667 2.04167 1 2.75C0.75 2.54167 0.625 2.20833 0.625 1.875ZM5 8.95833C2.83333 8.95833 1.04167 7.16667 1.04167 5C1.04167 2.83333 2.83333 1.04167 5 1.04167C7.16667 1.04167 8.95833 2.83333 8.95833 5C8.95833 7.16667 7.16667 8.95833 5 8.95833ZM9 2.75C8.58333 2 7.95833 1.41667 7.25 1C7.5 0.75 7.79167 0.625 8.125 0.625C8.79167 0.625 9.375 1.16667 9.375 1.875C9.375 2.20833 9.25 2.54167 9 2.75Z" fill="#FF8200"/>
<path d="M5.33341 4.87506V2.20839C5.33341 2.04173 5.20841 1.87506 5.00008 1.87506C4.79175 1.87506 4.66675 2.00006 4.66675 2.20839V5.00006C4.66675 5.08339 4.70841 5.16673 4.75008 5.20839L6.50008 6.95839C6.54175 7.00006 6.62508 7.04173 6.70842 7.04173C6.79175 7.04173 6.87508 7.00006 6.91675 6.95839C7.04175 6.83339 7.04175 6.62506 6.91675 6.50006L5.33341 4.87506Z" fill="#FF8200"/>
</svg>
