<svg width="86" height="90" viewBox="0 0 86 90" fill="none" xmlns="http://www.w3.org/2000/svg">
<path d="M86.0001 87L81.2432 71.5L58.3784 74L49.6216 83.5L-56.9189 76L8.75673 91L33.0811 109L86.0001 87Z" fill="#4E4E55" fill-opacity="0.1"/>
<path d="M29.9519 44.5054V95.187L80.2703 71.027L79.7253 21.7986L29.9519 44.5054Z" fill="#84AFD9"/>
<path d="M25.1745 12.9156C24.4297 11.6259 24.3752 11.5532 22.9583 10.8993C21.832 10.3543 21.2689 10.209 20.4514 10.1908C19.8883 10.1727 19.1435 10.2817 18.8347 10.427C18.5077 10.5541 18.0536 10.8629 17.8538 11.0991C17.6358 11.3352 17.1271 12.1164 16.7093 12.8067C16.2189 13.6423 15.9646 14.2962 15.9646 14.714C15.9646 15.15 16.237 15.7858 16.8547 16.8031C17.3451 17.6023 17.9628 18.4561 18.2352 18.7104C18.6894 19.1464 18.8347 19.1646 20.8692 19.1646C22.7584 19.1646 23.0854 19.1282 23.5396 18.7831C23.812 18.5833 24.4842 17.7113 25.011 16.8757C25.6286 15.8948 25.9556 15.15 25.9556 14.8049C25.9556 14.496 25.6104 13.6604 25.1745 12.9156Z" fill="#CDD0DE"/>
<path d="M8.60754 13.6241C8.53488 13.279 8.24424 12.7703 7.97175 12.4978C7.53578 12.08 7.29963 11.9892 6.53668 11.9892C5.71923 11.9892 5.53758 12.0619 4.97445 12.625C4.42949 13.17 4.33866 13.3698 4.42949 14.7867L5.82823 15.3861C7.15431 15.9493 7.28147 15.9674 7.69927 15.7131C7.95359 15.5678 8.28057 15.1682 8.44406 14.8593C8.64388 14.4415 8.69837 14.0601 8.60754 13.6241Z" fill="#CDD0DE"/>
<path d="M14.0027 18.0746C14.039 17.7113 13.9845 17.3117 13.9119 17.1664C13.8392 17.021 13.6212 16.8939 13.4577 16.8939C13.1852 16.8939 13.1852 16.9302 13.4214 17.0755C13.6575 17.239 13.6575 17.2754 13.4214 17.4388C13.2397 17.5599 13.2216 17.6205 13.3669 17.6205C13.5122 17.6205 13.603 17.8567 13.603 18.1655C13.603 18.4743 13.6757 18.7104 13.7847 18.7104C13.8937 18.7104 13.9845 18.4198 14.0027 18.0746Z" fill="#CDD0DE"/>
<path d="M12.8764 18.4379C12.9854 18.4924 13.0581 18.2926 13.0581 17.9838C13.0581 17.566 12.9854 17.4388 12.6948 17.4388C12.495 17.4388 12.3315 17.5297 12.3315 17.6205C12.3315 17.7113 12.4041 17.8022 12.5131 17.8022C12.6221 17.8022 12.6948 17.9293 12.6948 18.0746C12.6948 18.22 12.7674 18.3834 12.8764 18.4379Z" fill="#CDD0DE"/>
<path d="M24.1571 11.1354C24.0845 10.9538 23.7211 10.6631 23.3942 10.4996C23.049 10.318 22.4859 10.1908 22.1407 10.1908C21.5413 10.209 21.5595 10.2272 22.7765 10.8085C23.485 11.1536 24.1026 11.4261 24.1934 11.4442C24.2661 11.4442 24.2479 11.2989 24.1571 11.1354Z" fill="#B3BFDD"/>
<path d="M1.0688 15.9856V14.8049L1.05064 13.6059L0.505676 13.8966C0.0152073 14.1509 -0.0392876 14.2599 -0.021122 15.0773C-0.021122 15.9674 -0.0029583 15.9856 1.0688 15.9856Z" fill="#B3BFDD"/>
<path d="M3.82996 15.2772C3.86629 14.7322 3.77546 14.5142 3.52114 14.387C3.32132 14.2781 3.06701 14.1872 2.93985 14.1872C2.79453 14.1872 2.72186 14.4597 2.75819 15.041C2.79453 15.8403 2.84902 15.9129 3.30316 15.9493C3.77546 16.0038 3.81179 15.9493 3.82996 15.2772Z" fill="#B3BFDD"/>
<path d="M-0.656914 15.5496C-0.620583 15.4406 -0.620584 15.1863 -0.675079 14.9683C-0.765907 14.5869 -0.802238 14.5687 -1.3472 14.8049C-1.65602 14.932 -2.32814 15.2408 -2.81861 15.4951C-3.58156 15.8766 -3.67238 15.9674 -3.36357 16.0764C-3.16375 16.1309 -2.63695 16.1491 -2.18281 16.1128C-1.74684 16.0583 -1.22004 15.9493 -1.05655 15.8766C-0.874899 15.7858 -0.693245 15.6405 -0.656914 15.5496Z" fill="#B3BFDD"/>
<path d="M7.08158 16.0401C7.08158 15.9674 6.55478 15.695 5.93715 15.4225C5.31952 15.15 4.73823 14.932 4.66557 14.932C4.59291 14.9138 4.52024 14.9683 4.52024 15.041C4.52024 15.1137 4.66557 15.3135 4.84722 15.4588C5.02888 15.6223 5.39219 15.8403 5.66467 15.9674C5.93715 16.0764 6.37312 16.1854 6.62744 16.1854C6.86359 16.1854 7.08158 16.1128 7.08158 16.0401Z" fill="#B3BFDD"/>
<path d="M10.3695 18.2745C10.4785 18.8013 10.4785 18.8013 10.5148 18.1291L10.533 17.457L8.62564 17.5478L8.58931 18.1836C8.55298 18.8013 8.55298 18.8013 8.68014 18.2745C8.7528 17.9656 8.91629 17.7295 9.07978 17.7295C9.24327 17.7295 9.37042 17.9475 9.49758 18.8194L9.60657 18.2745C9.66107 17.9656 9.82456 17.7295 9.98805 17.7295C10.1334 17.7295 10.2969 17.9656 10.3695 18.2745Z" fill="#B3BFDD"/>
<path d="M11.296 18.4743C11.187 18.4016 11.1143 18.1836 11.1506 17.9838C11.2051 17.784 11.1506 17.6205 11.0598 17.6205C10.969 17.6205 10.86 17.7113 10.8055 17.8022C10.751 17.9112 10.7873 18.1473 10.8963 18.3471C10.9872 18.5469 11.2233 18.7286 11.3868 18.7286C11.5684 18.7286 11.8228 18.6196 11.9318 18.4924C12.0589 18.3653 12.0952 18.2018 12.0226 18.1291C11.9499 18.0565 11.8046 18.1291 11.7138 18.2926C11.6048 18.4561 11.4231 18.5469 11.296 18.4743Z" fill="#B3BFDD"/>
<path d="M28.3169 1.81654L27.3541 1.78021H27.3723C26.573 1.72571 26.1189 1.85287 24.7746 2.4705C23.8845 2.8883 21.2505 4.10539 18.9253 5.19532C16.6002 6.28524 14.711 7.21168 14.6928 7.26618C14.6928 7.32068 15.7464 7.79298 17.018 8.33794C18.2896 8.88291 19.7428 9.5187 20.2333 9.75485C20.8146 10.0273 21.4685 10.1727 22.0498 10.1727C22.6493 10.1727 23.1579 10.2998 23.5575 10.536C23.8664 10.7358 24.1933 11.0446 24.2478 11.2263C24.3023 11.4079 25.1016 11.862 26.246 12.3525C27.2996 12.8066 28.2079 13.1881 28.2806 13.2245C28.3532 13.2426 28.3896 10.6813 28.3169 1.81654Z" fill="#D1E0F8"/>
<path d="M2.68542 15.1318C2.68542 14.1327 2.64909 14.0601 2.08596 13.7694C1.77715 13.6059 1.432 13.4969 1.32301 13.5151C1.21402 13.5333 1.12319 14.1509 1.05053 16.1673H0.505566C-0.0393982 16.1673 -0.0393982 16.1491 -0.0393982 15.1682C-0.0393982 14.2236 -0.0575638 14.1872 -0.40271 14.3507C-0.693356 14.496 -0.729687 14.605 -0.584362 14.8957C-0.475372 15.0955 -0.40271 15.3498 -0.40271 15.4406C-0.40271 15.5315 -0.747852 15.7495 -1.18382 15.9129C-1.69246 16.1067 -2.27981 16.1733 -2.94587 16.1128C-3.92107 16.0225 -4.0345 16.0758 -11.2107 19.4497L-11.3383 19.5097C-15.3892 21.4171 -18.659 23.0338 -18.6045 23.1065C-18.5318 23.1791 -17.7507 23.5606 -16.8425 23.9421C-15.9342 24.3417 -13.4818 25.3953 -11.3928 26.3218C-9.30379 27.23 -7.54174 27.9748 -7.48724 27.9748C-7.43275 27.9748 -7.52357 27.884 -7.6689 27.7932C-7.85055 27.6842 -2.34641 27.6297 7.35395 27.6115C15.7827 27.6115 22.6674 27.666 22.6674 27.7568C22.6674 27.8295 23.3577 27.9022 24.2115 27.9385C25.1561 27.9566 25.7556 27.9022 25.7556 27.7932C25.7556 27.6842 25.8827 27.6115 26.028 27.6115C26.1734 27.6115 26.3005 27.666 26.3005 27.7568C26.3005 27.8295 26.7728 27.8658 27.3541 27.8658C27.9536 27.8477 28.4441 27.9203 28.5167 28.0475C28.6257 28.1928 28.662 28.1746 28.662 28.0293C28.662 27.8477 29.0072 27.8113 29.9155 27.8477C30.6057 27.8658 31.1325 27.8295 31.0962 27.7568C31.0599 27.666 30.3878 27.6115 29.6066 27.5933C28.8437 27.5933 28.3169 27.557 28.4259 27.5025C28.553 27.4662 28.662 27.3572 28.662 27.2482C28.662 27.1392 28.5894 27.1029 28.4804 27.1574C28.3714 27.2119 28.2987 26.8486 28.2987 26.2491C28.2987 25.5043 28.3532 25.2863 28.5167 25.359C28.6741 25.4438 28.6923 25.4256 28.5712 25.3045C28.4622 25.1955 24.9563 23.6333 20.7601 21.8349C16.5638 20.0183 13.1124 18.6196 13.0942 18.7104C13.0579 18.8194 12.9671 18.8921 12.8581 18.8921C12.7491 18.8921 12.6401 18.7104 12.5129 18.0746L12.0406 18.5288C11.641 18.9284 11.532 18.9647 11.1324 18.7649C10.8417 18.6196 10.6419 18.6014 10.5874 18.7104C10.5329 18.8013 10.4239 18.8921 10.3149 18.8921C10.2059 18.8921 10.1333 18.6559 10.1333 18.3471C10.1333 18.0383 10.0606 17.8022 9.95161 17.8022C9.84261 17.8022 9.75179 18.0201 9.73362 18.2926C9.69729 18.5469 9.57013 18.8013 9.46114 18.8376C9.31581 18.8739 9.22499 18.6923 9.22499 18.3471C9.22499 18.0383 9.15233 17.8022 9.04333 17.8022C8.93434 17.8022 8.84351 18.0201 8.82535 18.2926C8.78902 18.5469 8.66186 18.8013 8.55287 18.8376C8.38938 18.8739 8.31672 18.6741 8.31672 18.3108C8.29855 17.9838 8.42571 17.6023 8.5892 17.4933C8.73452 17.3662 9.007 17.2935 9.18866 17.348C9.35215 17.3843 9.60646 17.3662 9.73362 17.2935C9.86078 17.2209 9.49747 16.9665 8.73452 16.6577C7.93524 16.3308 7.13596 16.1309 6.46384 16.1128C5.64639 16.0764 5.33758 15.9856 4.97427 15.6223C4.70179 15.368 4.50197 15.0592 4.50197 14.9502C4.50197 14.823 4.46564 14.714 4.41114 14.714C4.35664 14.714 4.21132 14.6777 4.10233 14.6232C3.93884 14.5505 3.86618 14.7504 3.86618 15.2953C3.86618 16.0401 3.84801 16.0764 2.68542 16.1673V15.1318Z" fill="#D1E0F8"/>
<path d="M32.7856 27.8658C33.3669 27.7932 33.8755 27.7205 33.93 27.666C33.9845 27.6297 33.5122 27.6115 32.8764 27.6478C32.2406 27.666 31.732 27.7568 31.7502 27.8295C31.7502 27.9203 32.2225 27.9203 32.7856 27.8658Z" fill="#D1E0F8"/>
<path d="M-18.5318 67.1396C-18.7135 66.9761 -18.768 62.8707 -18.8043 47.2302L-18.8407 27.5207L-18.877 47.5027C-18.8952 58.4928 -18.877 67.5029 -18.8407 67.5392C-18.7862 67.5574 -18.6408 67.521 -18.5318 67.4665C-18.3502 67.3757 -18.3502 67.3212 -18.5318 67.1396Z" fill="#D1E0F8"/>
<path d="M28.4804 43.8696C28.5894 43.9241 28.662 43.6516 28.662 43.2338C28.662 42.8342 28.5894 42.5072 28.4986 42.5072C28.4077 42.5072 28.3169 42.7978 28.3169 43.143C28.2987 43.4881 28.3714 43.8151 28.4804 43.8696Z" fill="#D1E0F8"/>
<path d="M54.675 59.2921C54.7477 59.2557 54.8203 58.8016 54.8203 58.3111C54.8203 57.8025 54.7477 57.4029 54.675 57.4029C54.6023 57.4029 54.5478 57.8388 54.5478 58.3838C54.5478 58.9288 54.6023 59.3284 54.675 59.2921Z" fill="#D1E0F8"/>
<path d="M3.28513 16.1309C3.84826 16.0764 3.88459 16.0401 3.90276 15.3498L3.92093 14.6232L3.86643 15.3135C3.79377 15.9311 3.75743 15.9856 3.2488 15.9493C2.95816 15.9129 2.70384 15.9493 2.70384 16.0401C2.70384 16.1128 2.97632 16.1491 3.28513 16.1309Z" fill="#C9D7F1"/>
<path d="M9.42506 18.2018C9.3524 17.675 9.38873 17.6023 9.8792 17.457C10.3878 17.3117 10.3697 17.2935 9.60672 17.3117C9.15258 17.3117 8.68027 17.4025 8.55312 17.5115C8.42596 17.6205 8.33513 17.9838 8.33513 18.3108C8.33513 18.6741 8.42596 18.8739 8.57129 18.8376C8.69844 18.8013 8.80743 18.5469 8.84377 18.2926C8.86193 18.0201 8.97092 17.8022 9.06175 17.8022C9.17075 17.8022 9.24341 18.0383 9.24341 18.3471C9.24341 18.6923 9.33424 18.8739 9.47956 18.8376C9.60672 18.8013 9.71571 18.5469 9.75204 18.2926C9.77021 18.0201 9.8792 17.8022 9.97002 17.8022C10.079 17.8022 10.1517 18.0383 10.1517 18.3471C10.1517 18.6559 10.2425 18.8921 10.3333 18.8921C10.4423 18.8921 10.5513 18.8013 10.6058 18.7104C10.6603 18.6196 10.7875 18.5651 10.8783 18.6196C10.9994 18.6802 10.9994 18.5893 10.8783 18.3471C10.7875 18.1473 10.733 17.8567 10.7875 17.7113C10.842 17.566 10.8056 17.4388 10.6966 17.4388C10.6058 17.4388 10.515 17.7477 10.4968 18.1291C10.4787 18.7831 10.4787 18.7831 10.3515 18.2563C10.297 17.9475 10.1335 17.7113 9.97002 17.7113C9.8247 17.7113 9.66121 17.9475 9.49772 18.8013L9.42506 18.2018Z" fill="#C9D7F1"/>
<path d="M43.2492 38.529C43.2673 38.4381 43.1765 38.311 43.0312 38.2746C42.8859 38.2201 42.1229 38.1656 41.36 38.1656C40.5607 38.1475 39.7432 38.2565 39.4707 38.3836C39.2164 38.4926 38.7078 39.0921 38.3263 39.6915L38.3262 39.6917C37.9629 40.2911 37.5997 40.8905 37.527 41.0176C37.4544 41.1266 38.0357 40.945 38.8168 40.5817C39.5797 40.2365 40.8877 39.6552 41.7233 39.3101C42.5407 38.9649 43.231 38.6198 43.2492 38.529Z" fill="#C9D7F1"/>
<path d="M54.5661 24.5779L41.7594 19.0192C34.7112 15.9674 28.8983 13.4606 28.8075 13.4606C28.7348 13.4424 28.6985 16.1128 28.7711 25.2863L34.1299 27.6115H54.4753L54.5661 24.5779Z" fill="white"/>
<path d="M60.9422 27.4662C60.8695 27.3935 59.4889 26.7577 57.8722 26.0311C56.2555 25.3227 54.9112 24.7232 54.8749 24.7232C54.8567 24.705 54.8386 25.359 54.8386 27.6115H57.963C59.6706 27.6115 61.0148 27.557 60.9422 27.4662Z" fill="white"/>
<path d="M64.2483 28.9739C64.2846 28.8649 63.8668 28.6106 63.34 28.3926C62.4499 28.0293 62.0684 27.993 54.8386 27.9748V30.6088C54.8386 33.0248 54.8567 33.2428 55.1474 33.152C55.329 33.0975 57.4362 32.1892 59.8341 31.1174C62.2319 30.0275 64.2301 29.0647 64.2483 28.9739Z" fill="white"/>
<path d="M54.4753 33.5153V30.736V27.9748H44.9021C39.6341 27.9748 35.4015 28.0475 35.4924 28.1201C35.6013 28.211 39.1254 29.7732 43.3398 31.5716C47.5724 33.3881 51.0783 34.8777 51.151 34.8777C51.2418 34.8777 52.0048 34.5689 54.4753 33.5153Z" fill="white"/>
<path d="M6.4276 56.0586C5.51933 55.8043 4.59289 55.5682 4.33857 55.5137C4.08426 55.4773 3.57562 55.441 2.52203 55.3865V57.0214C2.52203 58.1658 2.44936 58.6926 2.28588 58.7471C2.15872 58.8016 2.26771 58.8198 2.52203 58.8198C2.77634 58.8016 3.30314 58.8561 3.70278 58.9288C4.10242 59.0014 5.21051 59.2921 6.15512 59.5827C7.09972 59.8734 8.53479 60.491 9.33408 60.9451C10.1334 61.3993 11.2233 62.1077 11.7683 62.5074C12.2951 62.9252 13.1852 63.7608 13.7483 64.3602C14.2933 64.9779 15.0562 65.9225 15.4195 66.4674C15.7828 67.0306 16.3459 67.957 16.6366 68.5565C16.9454 69.1559 17.3995 70.3185 17.6539 71.0996C17.9082 71.8989 18.217 73.1342 18.326 73.8245C18.4531 74.5329 18.5258 75.7682 18.5258 76.5493C18.5076 77.3486 18.4713 78.4385 18.326 79.9099H21.7774L21.8864 78.8745C21.9591 78.2932 21.9591 76.7673 21.9046 75.4593C21.8319 73.8245 21.6503 72.5892 21.3414 71.3721C21.0871 70.4275 20.6693 69.1196 20.415 68.4656C20.1607 67.8298 19.6702 66.7944 19.3251 66.195C18.9981 65.5955 18.3441 64.5964 17.89 63.9788C17.345 63.234 16.9817 62.8888 16.8182 62.9797C16.6729 63.0644 16.6427 63.0342 16.7274 62.8888C16.8182 62.7435 16.5821 62.3439 16.0916 61.8352C15.6738 61.3811 14.8019 60.5637 14.1479 60.0369C13.494 59.5101 12.4767 58.7834 11.8772 58.4201C11.2778 58.075 10.7147 57.8207 10.642 57.857C10.5693 57.8933 10.5148 57.8752 10.5148 57.8025C10.5148 57.7298 9.96987 57.4029 9.29775 57.0941C8.60746 56.7671 7.31771 56.2948 6.4276 56.0586Z" fill="white"/>
<path d="M79.6889 22.2709C79.8706 22.0165 76.8369 20.6178 55.1474 10.9901H55.1655C41.5414 4.95917 30.297 0.0181655 30.188 0C30.0609 0 29.1526 0.381475 26.4096 1.72572L28.317 1.81655V7.39335C28.317 10.4815 28.3896 13.0791 28.4623 13.1881C28.535 13.279 35.456 16.3489 43.8484 19.982C52.2409 23.6151 59.6887 26.8304 60.379 27.121C61.0875 27.4117 62.0684 27.8295 62.5589 28.0656C63.0675 28.3018 63.7215 28.5743 64.0121 28.6833C64.3391 28.8104 64.4844 28.9558 64.3754 29.0466C64.2846 29.1192 62.4862 29.9367 60.379 30.8813C58.29 31.8077 56.0738 32.7887 55.4743 33.0611C54.8749 33.3518 53.7123 33.8604 52.8948 34.2237C52.0592 34.587 51.3144 34.8777 51.2055 34.8777C51.1146 34.8777 47.4815 33.37 43.1763 31.5171C38.8529 29.6642 35.0927 28.0293 34.8384 27.884C34.4569 27.6842 34.1299 27.666 33.2943 27.7932C32.713 27.9022 32.1136 27.9748 32.0046 27.9748C31.8774 27.9748 31.7684 27.9203 31.7684 27.8295C31.7684 27.7568 32.2407 27.6842 32.8038 27.6478C33.3851 27.6115 33.8756 27.5752 33.8938 27.557C33.9119 27.5388 32.8402 27.0484 31.5323 26.4853C30.2062 25.904 28.9528 25.3953 28.7348 25.3408C28.3351 25.25 28.317 25.3045 28.317 26.2491C28.317 26.8486 28.3896 27.2119 28.4986 27.1574C28.6076 27.1029 28.6803 27.1392 28.6803 27.2482C28.6803 27.3572 28.5713 27.4662 28.4623 27.5025C28.3351 27.557 28.8619 27.5933 29.643 27.5933C30.406 27.6115 31.0781 27.666 31.1144 27.7387C31.1508 27.8295 30.624 27.8658 29.9337 27.8295C29.0254 27.8113 28.6803 27.8477 28.6803 28.0112C28.6803 28.1746 28.6439 28.1928 28.535 28.0475C28.4623 27.9203 27.9718 27.8477 27.3724 27.8658C26.7911 27.8658 26.3188 27.8295 26.3188 27.7387C26.3188 27.666 26.1916 27.6115 26.0463 27.6115C25.901 27.6115 25.7738 27.6842 25.7738 27.7932C25.7738 27.9022 25.1743 27.9567 24.2297 27.9203C23.376 27.9022 22.6857 27.8295 22.6857 27.7387C22.6857 27.666 15.801 27.6115 7.39035 27.6115C-7.0512 27.6115 -7.90498 27.6297 -7.46901 27.9203C-7.21469 28.102 -5.83411 28.7559 -4.38087 29.3917C-2.92764 30.0275 -1.65606 30.5725 -1.56523 30.5906C-1.45624 30.6088 -0.820442 30.8995 -0.111992 31.2083C0.596458 31.5353 1.19592 31.7896 1.25042 31.7896C1.30492 31.7896 1.79538 32.0076 2.34035 32.28C2.88531 32.5344 4.44754 33.2428 5.79179 33.8241C7.13603 34.4236 8.33495 34.9322 8.42577 34.9504C8.53477 34.9685 9.17056 35.2592 9.87901 35.568C10.5875 35.895 11.1688 36.1493 11.2051 36.1493C11.2233 36.1493 11.8591 36.4399 12.6038 36.7851C13.3486 37.1302 14.0752 37.4209 14.2024 37.4209C14.3296 37.4209 14.5112 37.4935 14.602 37.5844C14.711 37.6752 15.6011 38.093 16.6002 38.5108L16.7769 38.5879C17.7603 39.017 19.0581 39.5832 19.7429 39.8914C20.4513 40.2365 21.0871 40.509 21.1416 40.509C21.1961 40.509 21.8501 40.7996 22.5948 41.1448C23.3396 41.4899 24.0662 41.7806 24.1934 41.7806C24.3206 41.7806 24.5022 41.8532 24.593 41.9441C24.702 42.0349 25.5558 42.4527 26.5004 42.8523C27.7538 43.3791 28.2625 43.5245 28.3351 43.361C28.4078 43.252 28.426 42.9977 28.3896 42.816C28.3533 42.6525 28.4078 42.5072 28.4986 42.5072C28.6076 42.5072 28.6984 42.816 28.7348 43.1793C28.7711 43.7969 28.8438 43.8878 29.4977 44.1239C30.188 44.3782 30.2788 44.3601 31.4051 43.8696C32.0591 43.5971 33.149 43.1067 33.8574 42.7797C34.5659 42.4709 35.6013 41.9986 36.1826 41.7624C37.1091 41.3809 37.2907 41.1993 37.9265 40.1457C38.308 39.4917 38.8529 38.7833 39.1436 38.5471C39.5977 38.1838 39.8702 38.1293 41.2689 38.1475C42.1409 38.1475 42.9947 38.2201 43.1763 38.3291C43.4125 38.4563 44.0846 38.2383 45.9375 37.4027C47.2817 36.8032 48.7168 36.1493 49.1164 35.9676L49.1799 35.9388C49.5808 35.7565 50.1715 35.4879 50.5333 35.35C51.1691 35.0775 51.2055 35.0775 51.2236 35.3682V35.3682C51.2236 35.5503 51.2236 37.6209 51.2055 39.964C51.2055 42.3074 51.151 47.9387 51.0238 60.6727L51.5324 60.4728C51.8049 60.3638 52.4407 60.0914 52.9312 59.837C53.4398 59.6009 53.9484 59.4011 54.0756 59.4011C54.1846 59.4011 54.3662 59.2558 54.4389 59.0741C54.5297 58.9106 54.5842 58.4565 54.5842 58.0932C54.5661 57.7117 54.6206 57.4029 54.7114 57.4029C54.7841 57.4029 54.8567 57.7662 54.9294 59.0196L56.6551 58.293C57.5997 57.8933 58.7078 57.421 59.1074 57.2394C59.5071 57.0577 60.9058 56.4583 64.5571 54.9324L64.6479 29.0647L65.647 28.6106C66.192 28.3563 67.0821 27.9567 67.6089 27.7205C68.1175 27.4844 69.0258 27.0847 69.6071 26.8122C70.1702 26.5579 70.6788 26.3399 70.7333 26.3399C70.7878 26.3399 71.4236 26.0674 72.1502 25.7223C72.8587 25.3772 74.4391 24.6687 75.638 24.1601C76.8369 23.6333 77.9087 23.1428 77.9995 23.0701C78.1085 22.9975 78.4718 22.8522 78.817 22.7432C79.1621 22.6342 79.5618 22.4162 79.6889 22.2709Z" fill="#D6E5FD"/>
<path d="M29.952 44.8687L52.2955 34.8777L76.6372 23.4335L28.1354 1.08994L-18.9132 23.2518L29.952 44.8687Z" fill="#C1D7EC"/>
<path d="M80.0885 71.1178L80.1067 46.6489V22.1801L78.6898 22.7977C77.9087 23.1428 74.4572 24.6869 64.7387 29.0284L64.557 54.9324L59.834 56.9488C57.2364 58.0387 54.9838 59.0378 54.8385 59.1286C54.6932 59.2194 54.4389 59.3103 54.2936 59.3466C54.1482 59.3648 53.5306 59.6009 52.9311 59.8734C52.3317 60.1277 51.6596 60.4184 51.0238 60.6727L51.2963 35.0412L50.4788 35.3863C50.0247 35.5862 48.5169 36.2583 47.1182 36.8759C45.7195 37.4935 44.357 38.1112 43.5759 38.5108L44.0119 39.1103C44.2481 39.4191 44.6659 40.1094 44.9383 40.5998C45.3198 41.2901 45.4106 41.6353 45.3198 42.0531C45.2472 42.3619 44.8839 43.0885 44.5205 43.6698C44.1572 44.2511 43.6486 44.8869 43.3943 45.0867C43.031 45.3592 42.6313 45.4319 41.4506 45.4137C40.4878 45.4137 39.743 45.3229 39.3979 45.1412C39.0709 44.9777 38.5804 44.4146 38.1808 43.7425C37.7993 43.1067 37.4542 42.2892 37.3088 41.2538L33.7666 42.816C31.8229 43.688 30.2062 44.3964 30.188 44.3964C30.1517 44.4146 30.1335 55.8225 30.1335 69.7554C30.1517 83.6883 30.1698 95.1144 30.188 95.1507C30.2062 95.1689 33.8937 93.425 38.3988 91.2633C42.8856 89.1016 47.6268 86.8128 48.9347 86.1952C50.2427 85.5775 52.8585 84.306 54.7477 83.3795C56.6369 82.4531 59.0892 81.2723 60.1973 80.7455C61.3054 80.2187 63.9576 78.929 66.1011 77.8935C68.2446 76.8581 72.2774 74.8962 80.0885 71.1178Z" fill="#84AFD9"/>
<path d="M27.9537 43.5245C27.6085 43.361 19.2343 39.6734 9.33408 35.3682L-8.64973 27.5207L-18.7316 27.6115L-18.7134 47.3755C-18.7134 62.7254 -18.6589 67.0487 -18.4954 66.7944C-18.3683 66.6128 -17.8233 65.7408 -17.2602 64.8871C-16.697 64.0151 -15.6979 62.7435 -15.0621 62.0351C-14.4082 61.3266 -13.1548 60.2185 -12.2647 59.5464C-11.3745 58.8925 -9.99397 58.0205 -9.19469 57.6209C-8.39541 57.2212 -7.0875 56.6763 -6.28822 56.4038C-5.48894 56.1313 -4.30818 55.8043 -3.65422 55.659C-3.00027 55.5318 -1.61969 55.3502 -0.566095 55.2957C0.596495 55.223 2.04973 55.2594 3.15783 55.3865C4.15693 55.5137 5.79182 55.8588 6.79092 56.1676C7.79002 56.4764 9.26142 57.0396 10.0607 57.4574C10.86 57.857 11.9317 58.4383 12.4222 58.7653C12.9308 59.0741 13.9118 59.8189 14.6202 60.4184C15.3287 60.9996 16.3096 61.9806 16.8001 62.58C17.3087 63.1795 18.0353 64.1604 18.4531 64.7599C18.8528 65.3594 19.4341 66.3585 19.7611 66.9943C20.0699 67.6119 20.4877 68.5928 20.6875 69.1741C20.8692 69.7372 21.2143 70.8272 21.4141 71.5719C21.6684 72.4802 21.8319 73.7518 21.9046 75.3867C21.9772 76.9671 21.9409 78.4385 21.7774 79.5648C21.6503 80.5094 21.2688 82.1261 20.9418 83.1615C20.5967 84.1788 20.3787 85.0144 20.4695 85.0144C20.5422 85.0144 20.5058 85.0871 20.415 85.1597C20.306 85.2324 19.9064 85.9045 19.5249 86.6493C19.1434 87.3941 18.6711 88.2115 18.4713 88.4658C18.2897 88.7202 18.1262 88.9563 18.1262 89.0108C18.1262 89.0653 19.4704 89.7919 21.0871 90.6275C22.722 91.4631 25.3742 92.8437 26.9909 93.6612C28.6258 94.4968 29.9882 95.1871 30.0427 95.1871C30.0972 95.1871 30.1335 83.761 30.1335 44.4146L29.4614 44.1421C29.0799 43.9968 28.7348 43.8696 28.6803 43.8696C28.6258 43.8514 28.2988 43.7061 27.9537 43.5245Z" fill="#4687C6"/>
<path d="M-20.2297 70.5L30.2703 95L28.2703 45L-2.72974 34L-18.2297 26.5L-20.2297 70.5Z" fill="#4687C6"/>
<path d="M14.1479 15.9856V13.4425V10.8993H13.058V15.9856H14.1479Z" fill="#CDD0DE"/>
<path d="M12.3859 13.5878C12.2951 13.2608 12.0044 12.7703 11.7319 12.4979C11.3141 12.08 11.0417 11.9892 10.3695 11.9892C9.89723 11.9892 9.37043 12.08 9.18878 12.2072C8.8618 12.4434 8.8618 12.4434 9.17061 12.7158C9.35227 12.8612 9.77007 12.952 10.0971 12.9338C10.4967 12.9157 10.8237 13.0247 11.0598 13.2608C11.2596 13.4606 11.4231 13.7694 11.4231 13.9511C11.4231 14.1146 11.2778 14.4597 11.1143 14.6959C10.8418 15.0592 10.6602 15.1137 10.0062 15.0592C9.42493 15.0047 9.15245 15.0592 8.97079 15.3135C8.73464 15.586 8.73464 15.6405 9.02529 15.7858C9.18878 15.8585 9.55209 15.9856 9.84273 16.0583C10.1515 16.1309 10.6238 16.0401 11.1506 15.804C11.7501 15.5315 12.0408 15.2772 12.2406 14.8049C12.4222 14.381 12.4707 13.9753 12.3859 13.5878Z" fill="#CDD0DE"/>
<path d="M54.6934 50.6817C54.7842 50.6817 54.8205 50.2275 54.8023 49.6826C54.7842 49.1376 54.7297 48.6835 54.657 48.6835C54.5844 48.6835 54.5299 49.1376 54.548 49.6826C54.5662 50.2275 54.6207 50.6817 54.6934 50.6817Z" fill="#D1E0F8"/>
<path d="M23.0309 13.1155C22.8311 12.7885 22.4677 12.4433 22.2679 12.3525C22.0499 12.2617 21.6866 12.189 21.4686 12.189C21.2325 12.1709 20.7965 12.298 20.5059 12.4433C20.2152 12.5887 19.8338 12.8975 19.6884 13.1155C19.5431 13.3516 19.416 13.8057 19.416 14.1146C19.416 14.4415 19.4886 14.8775 19.5976 15.0773C19.7429 15.3861 19.6521 15.5496 18.9618 16.1673C18.5077 16.5669 18.1444 17.021 18.1444 17.1664C18.1444 17.3117 18.217 17.4752 18.326 17.5297C18.435 17.5842 18.9436 17.2754 19.4704 16.8394C20.3242 16.1309 20.4877 16.0583 21.287 16.1128C22.0499 16.1673 22.1953 16.1128 22.7766 15.5315C23.2489 15.0592 23.4124 14.7322 23.4124 14.2962C23.4124 13.9874 23.2489 13.4424 23.0309 13.1155Z" fill="#E3E4ED"/>
<path d="M22.6858 14.1691C22.6858 13.8603 22.5223 13.4606 22.3225 13.2608C22.1227 13.061 21.723 12.8975 21.4142 12.8975C21.1054 12.8975 20.7058 13.061 20.5059 13.2608C20.2879 13.4788 20.1426 13.8603 20.1426 14.2599C20.1426 14.714 20.2516 14.9684 20.5423 15.1682C20.7784 15.3135 21.1781 15.4407 21.4505 15.4407C21.7412 15.4407 22.1227 15.2772 22.3225 15.0773C22.5223 14.8775 22.6858 14.4779 22.6858 14.1691Z" fill="#CDD0DE"/>
<path d="M64.6479 29.0647L50.8422 35.4227L1.06881 13.4424L14.5113 7.08453L64.6479 29.0647Z" fill="#4687C6"/>
<path d="M64.2703 55.5L50.8278 60.5V35.3579L64.2703 29V55.5Z" fill="#31699F"/>
</svg>
