<svg width="24" height="25" viewBox="0 0 24 25" fill="none" xmlns="http://www.w3.org/2000/svg">
<path d="M17.99 7.9907C17.92 7.9807 17.85 7.9807 17.78 7.9907C16.23 7.9407 15 6.6707 15 5.1107C15 3.5207 16.29 2.2207 17.89 2.2207C19.48 2.2207 20.78 3.5107 20.78 5.1107C20.77 6.6707 19.54 7.9407 17.99 7.9907Z" fill="#004BFE"/>
<path d="M21.2501 14.9211C20.1301 15.6711 18.5601 15.9511 17.1101 15.7611C17.4901 14.9411 17.6901 14.0311 17.7001 13.0711C17.7001 12.0711 17.4801 11.1211 17.0601 10.2911C18.5401 10.0911 20.1101 10.3711 21.2401 11.1211C22.8201 12.1611 22.8201 13.8711 21.2501 14.9211Z" fill="#004BFE"/>
<path d="M6.44504 7.9907C6.51504 7.9807 6.58504 7.9807 6.65504 7.9907C8.20504 7.9407 9.43504 6.6707 9.43504 5.1107C9.43504 3.5107 8.14504 2.2207 6.54504 2.2207C4.95504 2.2207 3.66504 3.5107 3.66504 5.1107C3.66504 6.6707 4.89504 7.9407 6.44504 7.9907Z" fill="#004BFE"/>
<path d="M6.555 13.0703C6.555 14.0403 6.765 14.9603 7.145 15.7903C5.735 15.9403 4.265 15.6403 3.185 14.9303C1.605 13.8803 1.605 12.1703 3.185 11.1203C4.255 10.4003 5.765 10.1103 7.185 10.2703C6.775 11.1103 6.555 12.0603 6.555 13.0703Z" fill="#004BFE"/>
<path d="M12.1247 16.0907C12.0447 16.0807 11.9547 16.0807 11.8647 16.0907C10.0247 16.0307 8.55469 14.5207 8.55469 12.6607C8.56469 10.7607 10.0947 9.2207 12.0047 9.2207C13.9047 9.2207 15.4447 10.7607 15.4447 12.6607C15.4347 14.5207 13.9747 16.0307 12.1247 16.0907Z" fill="#004BFE"/>
<path d="M8.8698 18.1604C7.3598 19.1704 7.3598 20.8304 8.8698 21.8304C10.5898 22.9804 13.4098 22.9804 15.1298 21.8304C16.6398 20.8204 16.6398 19.1604 15.1298 18.1604C13.4198 17.0104 10.5998 17.0104 8.8698 18.1604Z" fill="#85A8FB"/>
</svg>
