<svg width="25" height="25" viewBox="0 0 25 25" fill="none" xmlns="http://www.w3.org/2000/svg">
<path d="M16.69 2.48047H8.31C4.67 2.48047 2.5 4.65047 2.5 8.29047V16.6605C2.5 20.3105 4.67 22.4805 8.31 22.4805H16.68C20.32 22.4805 22.49 20.3105 22.49 16.6705V8.29047C22.5 4.65047 20.33 2.48047 16.69 2.48047ZM17.5 16.1905C17.5 17.7605 16.64 18.1305 15.6 17.0105C15.12 16.5005 14.38 16.5405 13.96 17.1005L13.37 17.8905C12.9 18.5205 12.12 18.5205 11.65 17.8905L11.05 17.0905C10.63 16.5305 9.89 16.4905 9.41 17.0005C8.36 18.1205 7.5 17.7505 7.5 16.1905V9.56047C7.5 7.19047 8.06 6.60047 10.28 6.60047H14.72C16.94 6.60047 17.5 7.19047 17.5 9.56047V16.1905Z" fill="#004BFE"/>
</svg>
