<svg width="25" height="25" viewBox="0 0 25 25" fill="none" xmlns="http://www.w3.org/2000/svg">
<path d="M21 16.9609V19.4609C21 21.3909 19.43 22.9609 17.5 22.9609H7.5C5.57 22.9609 4 21.3909 4 19.4609V18.8109C4 17.2409 5.28 15.9609 6.85 15.9609H20C20.55 15.9609 21 16.4109 21 16.9609Z" fill="#85A8FB"/>
<path d="M16 2.96094H9C5 2.96094 4 3.96094 4 7.96094V15.5409C4.76 14.8709 5.76 14.4609 6.85 14.4609H20C20.55 14.4609 21 14.0109 21 13.4609V7.96094C21 3.96094 20 2.96094 16 2.96094ZM13.5 11.7109H8.5C8.09 11.7109 7.75 11.3709 7.75 10.9609C7.75 10.5509 8.09 10.2109 8.5 10.2109H13.5C13.91 10.2109 14.25 10.5509 14.25 10.9609C14.25 11.3709 13.91 11.7109 13.5 11.7109ZM16.5 8.21094H8.5C8.09 8.21094 7.75 7.87094 7.75 7.46094C7.75 7.05094 8.09 6.71094 8.5 6.71094H16.5C16.91 6.71094 17.25 7.05094 17.25 7.46094C17.25 7.87094 16.91 8.21094 16.5 8.21094Z" fill="#004BFE"/>
</svg>
