<svg width="19" height="18" viewBox="0 0 19 18" fill="none" xmlns="http://www.w3.org/2000/svg">
<path fill-rule="evenodd" clip-rule="evenodd" d="M5.91651 4.5L5.9165 2.25C5.9165 1.83579 6.25229 1.5 6.6665 1.5H15.6665C16.0807 1.5 16.4165 1.83579 16.4165 2.25V12.75C16.4165 13.1642 16.0807 13.5 15.6665 13.5H13.4165V15.75C13.4165 16.164 13.079 16.5 12.6613 16.5H3.67175C3.25713 16.5025 2.919 16.1684 2.91652 15.7538L2.9165 15.75L2.91875 5.25C2.91875 4.836 3.25625 4.5 3.674 4.5H5.91651ZM4.41875 6L4.4165 15H11.9165V6H4.41875ZM13.4165 4.5H7.4165V3H14.9165V12H13.4165V4.5Z" fill="#7A7A7A"/>
</svg>
