<svg width="114" height="110" viewBox="0 0 114 110" fill="none" xmlns="http://www.w3.org/2000/svg">
<path d="M114 110L93 81L23.5 85L9.5 107.5L114 110Z" fill="#4E4E55" fill-opacity="0.1"/>
<path d="M-11.2466 2L12.5694 8.53419L36.9008 80.8018H93.1371L78.8323 98.9764H18.7262L-5.12643 17.1441L-21 13.5954" stroke="#868686" stroke-width="3.37975" stroke-linecap="round" stroke-linejoin="round"/>
<path d="M20.4047 31.8432L3.19335 45.6889" stroke="#A8A8A8" stroke-width="3.37975" stroke-linecap="round" stroke-linejoin="round"/>
<path d="M25.6574 47.7816L8.29396 63.1904" stroke="#A8A8A8" stroke-width="3.37975" stroke-linecap="round" stroke-linejoin="round"/>
<path d="M31.4876 64.5564L13.9692 79.9709" stroke="#A8A8A8" stroke-width="2.57988" stroke-linecap="round" stroke-linejoin="round"/>
<path d="M36.9007 80.8018L18.7261 98.9764" stroke="#231F20" stroke-width="0.774527" stroke-linecap="round" stroke-linejoin="round"/>
<path d="M24.2605 73.1551H71.3996L86.1691 59.222L41.3592 60.2529L24.2605 73.1551Z" fill="#C17E41"/>
<path d="M25.722 98.8213L23.7166 73H70.8557L72.1372 98.8213H25.722Z" fill="#F3E7B4"/>
<path d="M25.722 98.8213L23.7166 73H71.8557L73.1372 98.8213H25.722Z" fill="#F3E7B4"/>
<path d="M71.3994 73.1551L86.169 59.222L87.6363 80.8018L72.6809 98.9764L71.3994 73.1551Z" fill="#C17E41"/>
<path d="M71.3994 73.1551L86.169 59.222L87.6363 80.8018L72.6809 98.9764L71.3994 73.1551Z" fill="#CBA400"/>
<path d="M22.2551 47.3845H70.0336L84.7017 34.5442L39.3538 34.4794L22.2551 47.3845Z" fill="#D88C58"/>
<path d="M22.2551 47.3845H70.0336L84.7017 34.5442L39.3538 34.4794L22.2551 47.3845Z" fill="#F3E7B4"/>
<path d="M24.2604 73.2058L22.2551 47.3845H70.0335L71.3179 73.2058H24.2604Z" fill="#CBA400"/>
<path d="M70.0337 47.3844L84.7018 34.5442L86.1692 59.222L71.318 73.2058L70.0337 47.3844Z" fill="#F3E7B4"/>
<path d="M42.0408 56.6647H48.9862L48.4708 47.3845H41.5254L42.0408 56.6647Z" fill="#907500"/>
<path d="M41.5254 47.3845H48.4708L63.5332 34.5217L57.675 34.4935L41.5254 47.3845Z" fill="#CBA400"/>
<path d="M34.3941 38.2225L30.8003 40.9348L76.8635 41.4051L79.8799 38.7661L34.3941 38.2225Z" fill="#CBA400"/>
<path d="M79.8799 38.7661L76.8635 41.4051L77.6372 61.5L80.679 58.9399L79.8799 38.7661Z" fill="#CBA400"/>
<path d="M44.7417 99.1707H51.6871L51.1717 89.8905H44.2263L44.7417 99.1707Z" fill="#CBA400"/>
<path d="M44.7417 99.1707H51.6871L51.1717 89.8905H44.2263L44.7417 99.1707Z" fill="#CBA400"/>
<path d="M18.7262 109.918C24.2186 109.918 28.6711 105.466 28.6711 99.9734C28.6711 94.481 24.2186 90.0285 18.7262 90.0285C13.2338 90.0285 8.78125 94.481 8.78125 99.9734C8.78125 105.466 13.2338 109.918 18.7262 109.918Z" fill="#4A494A"/>
<path d="M18.7262 109.918C24.2186 109.918 28.6711 105.466 28.6711 99.9734C28.6711 94.481 24.2186 90.0285 18.7262 90.0285C13.2338 90.0285 8.78125 94.481 8.78125 99.9734C8.78125 105.466 13.2338 109.918 18.7262 109.918Z" stroke="#231F20" stroke-width="1.03082" stroke-linecap="round" stroke-linejoin="round"/>
<path d="M18.7263 104.73C21.3535 104.73 23.4833 102.601 23.4833 99.9734C23.4833 97.3462 21.3535 95.2164 18.7263 95.2164C16.0991 95.2164 13.9693 97.3462 13.9693 99.9734C13.9693 102.601 16.0991 104.73 18.7263 104.73Z" fill="#A5A4A4"/>
<path d="M18.7263 104.73C21.3535 104.73 23.4833 102.601 23.4833 99.9734C23.4833 97.3462 21.3535 95.2164 18.7263 95.2164C16.0991 95.2164 13.9693 97.3462 13.9693 99.9734C13.9693 102.601 16.0991 104.73 18.7263 104.73Z" stroke="#231F20" stroke-width="1.03082" stroke-linecap="round" stroke-linejoin="round"/>
</svg>
