<svg xmlns="http://www.w3.org/2000/svg" width="64" height="64" viewBox="0 0 24 24" fill="none"
    stroke="url(#grad1)" stroke-width="2" stroke-linecap="round" stroke-linejoin="round">
    <defs>
        <linearGradient id="grad1" x1="0%" y1="0%" x2="100%" y2="100%">
            <stop offset="0%" style="stop-color:#FF5733;stop-opacity:1" />
            <stop offset="100%" style="stop-color:#C70039;stop-opacity:1" />
        </linearGradient>
    </defs>
    <path
        d="M21 4H14.1C13.7 3.4 13.1 3 12 3C10.9 3 10.3 3.4 9.9 4H3C2.4 4 2 4.4 2 5V6C2 6.6 2.4 7 3 7H21C21.6 7 22 6.6 22 6V5C22 4.4 21.6 4 21 4ZM18 7V17C18 17.6 17.6 18 17 18H7C6.4 18 6 17.6 6 17V7H18ZM14 10H10V15H14V10Z" />
</svg>
