<svg width="33" height="42" viewBox="0 0 33 42" fill="none" xmlns="http://www.w3.org/2000/svg">
<path d="M33 11.3715V38.1128C33 40.1681 31.1592 42 29.0949 42H4.73494C2.67068 42 0.829834 40.1681 0.829834 38.1128V3.88723C0.829834 1.83191 2.67068 0 4.73494 0H21.5243C21.7489 0 21.963 0.0882002 22.1219 0.2457L32.7521 10.7793C32.911 10.9368 33 11.1489 33 11.3715Z" fill="#FFA319"/>
<path d="M32.5972 11.1426H23.8807C22.7723 11.1426 21.8738 10.2522 21.8738 9.15389V0.293989C21.8738 0.184789 22.0052 0.130189 22.0836 0.207889L32.7498 10.7772C32.8854 10.9116 32.79 11.1426 32.5972 11.1426Z" fill="white" fill-opacity="0.65"/>
<path d="M11.4219 23.6523V16H12.9805V25H11.5742L11.4219 23.6523ZM7.34961 21.9062V21.7832C7.34961 21.2988 7.4043 20.8594 7.51367 20.4648C7.62695 20.0664 7.79102 19.7246 8.00586 19.4395C8.2207 19.1543 8.48047 18.9336 8.78516 18.7773C9.09375 18.6211 9.44336 18.543 9.83398 18.543C10.2129 18.543 10.543 18.6191 10.8242 18.7715C11.1094 18.9238 11.3516 19.1406 11.5508 19.4219C11.7539 19.7031 11.916 20.0371 12.0371 20.4238C12.1582 20.8066 12.2461 21.2285 12.3008 21.6895V22.0234C12.2461 22.4727 12.1582 22.8848 12.0371 23.2598C11.916 23.6348 11.7539 23.9629 11.5508 24.2441C11.3516 24.5215 11.1094 24.7363 10.8242 24.8887C10.5391 25.041 10.2051 25.1172 9.82227 25.1172C9.43555 25.1172 9.08789 25.0371 8.7793 24.877C8.47461 24.7168 8.21484 24.4922 8 24.2031C7.78906 23.9141 7.62695 23.5742 7.51367 23.1836C7.4043 22.793 7.34961 22.3672 7.34961 21.9062ZM8.90234 21.7832V21.9062C8.90234 22.1797 8.92578 22.4355 8.97266 22.6738C9.01953 22.9121 9.0957 23.123 9.20117 23.3066C9.30664 23.4863 9.44141 23.627 9.60547 23.7285C9.77344 23.8301 9.97656 23.8809 10.2148 23.8809C10.5195 23.8809 10.7695 23.8145 10.9648 23.6816C11.1641 23.5449 11.3184 23.3594 11.4277 23.125C11.5371 22.8867 11.6074 22.6191 11.6387 22.3223V21.4023C11.623 21.168 11.582 20.9512 11.5156 20.752C11.4531 20.5527 11.3633 20.3809 11.2461 20.2363C11.1328 20.0918 10.9922 19.9785 10.8242 19.8965C10.6562 19.8145 10.457 19.7734 10.2266 19.7734C9.98828 19.7734 9.78516 19.8262 9.61719 19.9316C9.44922 20.0332 9.3125 20.1758 9.20703 20.3594C9.10156 20.543 9.02344 20.7559 8.97266 20.998C8.92578 21.2402 8.90234 21.502 8.90234 21.7832ZM14.1055 21.8945V21.7715C14.1055 21.3066 14.1719 20.8789 14.3047 20.4883C14.4375 20.0938 14.6309 19.752 14.8848 19.4629C15.1387 19.1738 15.4492 18.9492 15.8164 18.7891C16.1836 18.625 16.6016 18.543 17.0703 18.543C17.5469 18.543 17.9688 18.625 18.3359 18.7891C18.707 18.9492 19.0195 19.1738 19.2734 19.4629C19.5273 19.752 19.7207 20.0938 19.8535 20.4883C19.9863 20.8789 20.0527 21.3066 20.0527 21.7715V21.8945C20.0527 22.3555 19.9863 22.7832 19.8535 23.1777C19.7207 23.5684 19.5273 23.9102 19.2734 24.2031C19.0195 24.4922 18.709 24.7168 18.3418 24.877C17.9746 25.0371 17.5547 25.1172 17.082 25.1172C16.6133 25.1172 16.1934 25.0371 15.8223 24.877C15.4512 24.7168 15.1387 24.4922 14.8848 24.2031C14.6309 23.9102 14.4375 23.5684 14.3047 23.1777C14.1719 22.7832 14.1055 22.3555 14.1055 21.8945ZM15.6523 21.7715V21.8945C15.6523 22.1719 15.6797 22.4316 15.7344 22.6738C15.7891 22.916 15.873 23.1289 15.9863 23.3125C16.0996 23.4961 16.2461 23.6406 16.4258 23.7461C16.6094 23.8477 16.8281 23.8984 17.082 23.8984C17.332 23.8984 17.5469 23.8477 17.7266 23.7461C17.9062 23.6406 18.0527 23.4961 18.166 23.3125C18.2832 23.1289 18.3691 22.916 18.4238 22.6738C18.4785 22.4316 18.5059 22.1719 18.5059 21.8945V21.7715C18.5059 21.498 18.4785 21.2422 18.4238 21.0039C18.3691 20.7617 18.2832 20.5488 18.166 20.3652C18.0527 20.1777 17.9043 20.0312 17.7207 19.9258C17.541 19.8164 17.3242 19.7617 17.0703 19.7617C16.8203 19.7617 16.6055 19.8164 16.4258 19.9258C16.2461 20.0312 16.0996 20.1777 15.9863 20.3652C15.873 20.5488 15.7891 20.7617 15.7344 21.0039C15.6797 21.2422 15.6523 21.498 15.6523 21.7715ZM23.7793 23.8984C23.998 23.8984 24.1934 23.8555 24.3652 23.7695C24.5371 23.6836 24.6738 23.5625 24.7754 23.4062C24.8809 23.25 24.9375 23.0684 24.9453 22.8613H26.4043C26.3965 23.291 26.2754 23.6758 26.041 24.0156C25.8066 24.3555 25.4941 24.625 25.1035 24.8242C24.7168 25.0195 24.2832 25.1172 23.8027 25.1172C23.3145 25.1172 22.8887 25.0352 22.5254 24.8711C22.1621 24.707 21.8594 24.4785 21.6172 24.1855C21.3789 23.8926 21.1992 23.5527 21.0781 23.166C20.9609 22.7793 20.9023 22.3652 20.9023 21.9238V21.7363C20.9023 21.2949 20.9609 20.8809 21.0781 20.4941C21.1992 20.1074 21.3789 19.7676 21.6172 19.4746C21.8594 19.1816 22.1621 18.9531 22.5254 18.7891C22.8887 18.625 23.3125 18.543 23.7969 18.543C24.3086 18.543 24.7578 18.6426 25.1445 18.8418C25.5352 19.041 25.8398 19.3223 26.0586 19.6855C26.2812 20.0488 26.3965 20.4766 26.4043 20.9688H24.9453C24.9375 20.7422 24.8867 20.5391 24.793 20.3594C24.6992 20.1797 24.5664 20.0352 24.3945 19.9258C24.2227 19.8164 24.0137 19.7617 23.7676 19.7617C23.5059 19.7617 23.2871 19.8164 23.1113 19.9258C22.9395 20.0352 22.8047 20.1855 22.707 20.377C22.6133 20.5645 22.5469 20.7754 22.5078 21.0098C22.4727 21.2402 22.4551 21.4824 22.4551 21.7363V21.9238C22.4551 22.1816 22.4727 22.4277 22.5078 22.6621C22.5469 22.8965 22.6133 23.1074 22.707 23.2949C22.8047 23.4785 22.9395 23.625 23.1113 23.7344C23.2871 23.8438 23.5098 23.8984 23.7793 23.8984Z" fill="white"/>
</svg>
