<svg width="66" height="66" viewBox="0 0 66 66" fill="none" xmlns="http://www.w3.org/2000/svg">
<g filter="url(#filter0_d_69_2058)">
<rect x="12" y="8" width="42" height="42" rx="21" fill="white" shape-rendering="crispEdges"/>
<path d="M33.5997 33.8816C33.4457 34.0499 33.2281 34.1458 33 34.1458C32.7719 34.1458 32.5543 34.0499 32.4004 33.8816L28.067 29.142C27.7642 28.8108 27.7872 28.2969 28.1184 27.9941C28.4496 27.6913 28.9635 27.7143 29.2663 28.0455L32.1875 31.2405V19.25C32.1875 18.8013 32.5513 18.4375 33 18.4375C33.4487 18.4375 33.8125 18.8013 33.8125 19.25V31.2405L36.7337 28.0455C37.0365 27.7143 37.5504 27.6913 37.8816 27.9941C38.2128 28.2969 38.2358 28.8108 37.933 29.142L33.5997 33.8816Z" fill="#004BFE"/>
<path d="M24.0625 32.25C24.0625 31.8013 23.6987 31.4375 23.25 31.4375C22.8013 31.4375 22.4375 31.8013 22.4375 32.25V32.3094C22.4375 33.791 22.4375 34.9852 22.5637 35.9244C22.6948 36.8995 22.9753 37.7205 23.6274 38.3726C24.2795 39.0247 25.1005 39.3052 26.0756 39.4363C27.0148 39.5625 28.209 39.5625 29.6906 39.5625H36.3094C37.791 39.5625 38.9852 39.5625 39.9244 39.4363C40.8995 39.3052 41.7205 39.0247 42.3726 38.3726C43.0247 37.7205 43.3052 36.8995 43.4363 35.9244C43.5625 34.9852 43.5625 33.791 43.5625 32.3094V32.25C43.5625 31.8013 43.1987 31.4375 42.75 31.4375C42.3013 31.4375 41.9375 31.8013 41.9375 32.25C41.9375 33.805 41.9358 34.8896 41.8258 35.7079C41.7189 36.5028 41.5234 36.9237 41.2236 37.2236C40.9237 37.5234 40.5028 37.7189 39.7079 37.8258C38.8896 37.9358 37.805 37.9375 36.25 37.9375H29.75C28.195 37.9375 27.1104 37.9358 26.2921 37.8258C25.4972 37.7189 25.0763 37.5234 24.7764 37.2236C24.4766 36.9237 24.2811 36.5028 24.1742 35.7079C24.0642 34.8896 24.0625 33.805 24.0625 32.25Z" fill="#004BFE"/>
</g>
<defs>
<filter id="filter0_d_69_2058" x="0" y="0" width="66" height="66" filterUnits="userSpaceOnUse" color-interpolation-filters="sRGB">
<feFlood flood-opacity="0" result="BackgroundImageFix"/>
<feColorMatrix in="SourceAlpha" type="matrix" values="0 0 0 0 0 0 0 0 0 0 0 0 0 0 0 0 0 0 127 0" result="hardAlpha"/>
<feOffset dy="4"/>
<feGaussianBlur stdDeviation="6"/>
<feComposite in2="hardAlpha" operator="out"/>
<feColorMatrix type="matrix" values="0 0 0 0 0.0509804 0 0 0 0 0.0392157 0 0 0 0 0.172549 0 0 0 0.06 0"/>
<feBlend mode="normal" in2="BackgroundImageFix" result="effect1_dropShadow_69_2058"/>
<feBlend mode="normal" in="SourceGraphic" in2="effect1_dropShadow_69_2058" result="shape"/>
</filter>
</defs>
</svg>
