<svg width="36" height="36" viewBox="0 0 36 36" fill="none" xmlns="http://www.w3.org/2000/svg">
<rect width="36" height="36" rx="18" fill="#004BFE"/>
<path d="M17.4001 24.1612L17.4001 24.1612L24.796 16.7653C23.7894 16.3464 22.5972 15.6582 21.4697 14.5307C20.342 13.403 19.6537 12.2106 19.2348 11.2039L11.8388 18.5999L11.8388 18.5999C11.2617 19.1771 10.9731 19.4657 10.7249 19.7838C10.4321 20.1592 10.1811 20.5653 9.97634 20.995C9.80273 21.3593 9.67368 21.7465 9.41556 22.5208L8.05445 26.6042C7.92743 26.9852 8.0266 27.4053 8.31063 27.6894C8.59466 27.9734 9.01478 28.0726 9.39584 27.9456L13.4792 26.5844C14.2535 26.3263 14.6407 26.1973 15.005 26.0237C15.4347 25.8189 15.8408 25.5679 16.2162 25.2751C16.5343 25.0269 16.823 24.7383 17.4001 24.1612Z" fill="white"/>
<path d="M26.8482 14.7131C28.3839 13.1774 28.3839 10.6875 26.8482 9.15178C25.3125 7.61607 22.8226 7.61607 21.2869 9.15178L20.3999 10.0388C20.4121 10.0755 20.4246 10.1127 20.4377 10.1504C20.7628 11.0875 21.3763 12.316 22.5303 13.47C23.6843 14.624 24.9128 15.2375 25.85 15.5626C25.8875 15.5756 25.9245 15.5882 25.961 15.6003L26.8482 14.7131Z" fill="white"/>
</svg>
