<svg width="78" height="78" viewBox="0 0 78 78" fill="none" xmlns="http://www.w3.org/2000/svg">
<path fill-rule="evenodd" clip-rule="evenodd" d="M39.0002 68.64C57.9546 68.64 73.3202 53.2744 73.3202 34.32C73.3202 15.3656 57.9546 0 39.0002 0C20.0458 0 4.68018 15.3656 4.68018 34.32C4.68018 44.9926 9.55174 54.5274 17.1925 60.822C17.2047 60.832 17.1939 60.8515 17.1789 60.8464C17.1698 60.8433 17.1602 60.8501 17.1602 60.8598V71.5042C17.1602 74.4834 20.3004 76.4171 22.9607 75.076L34.9722 69.0212C35.6356 68.6867 36.3788 68.5494 37.1207 68.5894C37.743 68.623 38.3696 68.64 39.0002 68.64Z" fill="#C81912"/>
<path d="M48.8137 27.6379C49.6421 26.8095 49.6421 25.4664 48.8137 24.638L48.3622 24.1865C47.5338 23.3581 46.1907 23.3581 45.3623 24.1865L39.0002 30.5486L32.6381 24.1865C31.8097 23.3581 30.4666 23.3581 29.6382 24.1865L29.1867 24.638C28.3583 25.4664 28.3583 26.8095 29.1867 27.6379L35.5488 34L29.1867 40.362C28.3583 41.1904 28.3583 42.5336 29.1867 43.362L29.6382 43.8134C30.4666 44.6419 31.8097 44.6419 32.6381 43.8134L39.0002 37.4514L45.3623 43.8134C46.1907 44.6418 47.5338 44.6419 48.3622 43.8134L48.8137 43.362C49.6421 42.5336 49.6421 41.1904 48.8137 40.362L42.4516 34L48.8137 27.6379Z" fill="white"/>
</svg>
