<svg width="81" height="91" viewBox="0 0 81 91" fill="none" xmlns="http://www.w3.org/2000/svg">
<path d="M31 25V45.0269L70.0548 35.0116L31 25Z" fill="#E5A57A"/>
<path d="M30.0762 24.4651L69.1326 34.4792L80.8238 20.0449L41.7674 10.0308L30.0762 24.4651Z" fill="#FFCBA1"/>
<path d="M30.0761 24.4651L-8.9803 34.4792L-20.6715 20.0449L18.3849 10.0308L30.0761 24.4651Z" fill="#FFCBA1"/>
<path d="M76.4999 92.5L61.4999 76H43.4999L34.4999 85.5L21.9999 87.5L46.9999 105.5L76.4999 92.5Z" fill="#4E4E55" fill-opacity="0.1"/>
<path d="M30.0769 44.4925V93.8957L69.1325 83.881V34.4778H69.1304L30.0769 44.4925Z" fill="#CE844D"/>
<path d="M-8.97658 34.4778V83.881L30.0769 93.8957V44.4925L-8.97658 34.4778Z" fill="#FFC088"/>
<path d="M-8.97866 34.4776L30.0761 44.4929L69.1308 34.4776L30.0761 24.466L-8.97866 34.4776Z" fill="#FFC088"/>
<path d="M27 0C40.7975 1.75632e-07 52 11.2025 52 25C52 34.0036 47.2289 41.901 40.08 46.3027L39.5 46L30 46.5H21L18.4873 48.5088C8.87555 45.0232 1.99995 35.8088 1.99995 25C1.99995 11.2025 13.2025 0 27 0Z" fill="#F9415B"/>
<path d="M36.0601 35.4193L27.0427 25.0007L18.0254 14.5822M17.5957 35.2306L37.1377 14.7701" stroke="white" stroke-width="5" stroke-linecap="round"/>
<path d="M25.8055 88.2369L17.2614 86.0463V81.7377L25.8055 83.9283V88.2369Z" fill="white"/>
<path d="M1.90005 82.2715L-6.64448 80.0807V79.0217L1.90005 81.2127V82.2715Z" fill="#A86538"/>
<path d="M33.6262 88.2369L66.6238 79.776V78.041L33.6262 86.5018V88.2369Z" fill="#A86538"/>
<path d="M1.90005 79.7226L-6.64448 77.5318V76.4728L1.90005 78.6638V79.7226Z" fill="#A86538"/>
<path d="M30.0769 44.4924L41.7669 64.1867L69.1325 57.169V39.7379L30.0769 44.4924Z" fill="#B76F3E"/>
<path d="M-8.97658 39.7379V57.1711L18.3849 64.1867L30.0769 44.4924L-8.97658 39.7379Z" fill="#CE844D"/>
<path d="M30.0762 44.4926L69.1326 34.4788L80.8238 48.9131L41.7674 58.9272L30.0762 44.4926Z" fill="#FFCBA1"/>
<path d="M30.0761 44.4926L-8.9803 34.4788L-20.6715 48.9131L18.3849 58.9272L30.0761 44.4926Z" fill="#FFCBA1"/>
</svg>
