<svg width="25" height="24" viewBox="0 0 25 24" fill="none" xmlns="http://www.w3.org/2000/svg">
<path opacity="0.4" d="M21.4 7V15H7.25002C5.68002 15 4.40002 16.28 4.40002 17.85V7C4.40002 3 5.40002 2 9.40002 2H16.4C20.4 2 21.4 3 21.4 7Z" fill="#004BFE"/>
<path d="M21.4 15V18.5C21.4 20.43 19.83 22 17.9 22H7.90002C5.97002 22 4.40002 20.43 4.40002 18.5V17.85C4.40002 16.28 5.68002 15 7.25002 15H21.4Z" fill="#004BFE"/>
<path d="M16.9 7.75H8.90002C8.49002 7.75 8.15002 7.41 8.15002 7C8.15002 6.59 8.49002 6.25 8.90002 6.25H16.9C17.31 6.25 17.65 6.59 17.65 7C17.65 7.41 17.31 7.75 16.9 7.75Z" fill="#004BFE"/>
<path d="M13.9 11.25H8.90002C8.49002 11.25 8.15002 10.91 8.15002 10.5C8.15002 10.09 8.49002 9.75 8.90002 9.75H13.9C14.31 9.75 14.65 10.09 14.65 10.5C14.65 10.91 14.31 11.25 13.9 11.25Z" fill="#004BFE"/>
</svg>
