<svg width="25" height="25" viewBox="0 0 25 25" fill="none" xmlns="http://www.w3.org/2000/svg">
<path d="M4 18.9707C3.59 18.9707 3.25 18.6307 3.25 18.2207V7.2207C3.25 2.8107 4.59 1.4707 9 1.4707H16C20.41 1.4707 21.75 2.8107 21.75 7.2207V17.2207C21.75 17.3807 21.75 17.5307 21.74 17.6907C21.71 18.1007 21.34 18.4207 20.94 18.3907C20.53 18.3607 20.21 18.0007 20.24 17.5907C20.25 17.4707 20.25 17.3407 20.25 17.2207V7.2207C20.25 3.6507 19.58 2.9707 16 2.9707H9C5.42 2.9707 4.75 3.6507 4.75 7.2207V18.2207C4.75 18.6307 4.41 18.9707 4 18.9707Z" fill="#484C52"/>
<path d="M17.5 22.9707H7.5C5.16 22.9707 3.25 21.0607 3.25 18.7207V18.0707C3.25 16.0807 4.87 14.4707 6.85 14.4707H21C21.41 14.4707 21.75 14.8107 21.75 15.2207V18.7207C21.75 21.0607 19.84 22.9707 17.5 22.9707ZM6.85 15.9707C5.69 15.9707 4.75 16.9107 4.75 18.0707V18.7207C4.75 20.2407 5.98 21.4707 7.5 21.4707H17.5C19.02 21.4707 20.25 20.2407 20.25 18.7207V15.9707H6.85Z" fill="#484C52"/>
<path d="M16.5 7.9707H8.5C8.09 7.9707 7.75 7.6307 7.75 7.2207C7.75 6.8107 8.09 6.4707 8.5 6.4707H16.5C16.91 6.4707 17.25 6.8107 17.25 7.2207C17.25 7.6307 16.91 7.9707 16.5 7.9707Z" fill="#484C52"/>
<path d="M13.5 11.4707H8.5C8.09 11.4707 7.75 11.1307 7.75 10.7207C7.75 10.3107 8.09 9.9707 8.5 9.9707H13.5C13.91 9.9707 14.25 10.3107 14.25 10.7207C14.25 11.1307 13.91 11.4707 13.5 11.4707Z" fill="#484C52"/>
</svg>
