<svg width="25" height="24" viewBox="0 0 25 24" fill="none" xmlns="http://www.w3.org/2000/svg">
<path d="M4.40002 18.75C3.99002 18.75 3.65002 18.41 3.65002 18V7C3.65002 2.59 4.99002 1.25 9.40002 1.25H16.4C20.81 1.25 22.15 2.59 22.15 7V17C22.15 17.16 22.15 17.31 22.14 17.47C22.11 17.88 21.74 18.2 21.34 18.17C20.93 18.14 20.61 17.78 20.64 17.37C20.65 17.25 20.65 17.12 20.65 17V7C20.65 3.43 19.98 2.75 16.4 2.75H9.40002C5.82002 2.75 5.15002 3.43 5.15002 7V18C5.15002 18.41 4.81002 18.75 4.40002 18.75Z" fill="#484C52"/>
<path d="M17.9 22.75H7.90002C5.56002 22.75 3.65002 20.84 3.65002 18.5V17.85C3.65002 15.86 5.27002 14.25 7.25002 14.25H21.4C21.81 14.25 22.15 14.59 22.15 15V18.5C22.15 20.84 20.24 22.75 17.9 22.75ZM7.25002 15.75C6.09002 15.75 5.15002 16.69 5.15002 17.85V18.5C5.15002 20.02 6.38002 21.25 7.90002 21.25H17.9C19.42 21.25 20.65 20.02 20.65 18.5V15.75H7.25002Z" fill="#484C52"/>
<path d="M16.9 7.75H8.90002C8.49002 7.75 8.15002 7.41 8.15002 7C8.15002 6.59 8.49002 6.25 8.90002 6.25H16.9C17.31 6.25 17.65 6.59 17.65 7C17.65 7.41 17.31 7.75 16.9 7.75Z" fill="#484C52"/>
<path d="M13.9 11.25H8.90002C8.49002 11.25 8.15002 10.91 8.15002 10.5C8.15002 10.09 8.49002 9.75 8.90002 9.75H13.9C14.31 9.75 14.65 10.09 14.65 10.5C14.65 10.91 14.31 11.25 13.9 11.25Z" fill="#484C52"/>
</svg>
