<svg width="176" height="144" viewBox="0 0 176 144" fill="none" xmlns="http://www.w3.org/2000/svg">
<g clip-path="url(#clip0_2003_16981)" filter="url(#filter0_d_2003_16981)">
<rect x="7.24211" y="36.7105" width="47.7073" height="56.2702" rx="2.29362" transform="rotate(-24.5083 7.24211 36.7105)" stroke="#E5ABAB" stroke-width="0.305816"/>
<rect x="17.5576" y="37.791" width="33.2824" height="5.82657" rx="2.91328" transform="rotate(-24.5063 17.5576 37.791)" fill="#E66F51"/>
<rect x="30.77" y="40.7246" width="21.8035" height="3.47415" rx="1.73707" transform="rotate(-24.5063 30.77 40.7246)" fill="#E66F51"/>
<rect x="33.1509" y="47.043" width="21.8035" height="3.47415" rx="1.73707" transform="rotate(-24.5063 33.1509 47.043)" fill="#E66F51"/>
</g>
<g clip-path="url(#clip1_2003_16981)" filter="url(#filter1_d_2003_16981)">
<rect x="23.3398" y="27.3729" width="47.7073" height="56.2702" rx="2.29362" transform="rotate(-16.4323 23.3398 27.3729)" stroke="#E5ABAB" stroke-width="0.305816"/>
<rect x="33.4009" y="29.8906" width="33.2824" height="5.82657" rx="2.91328" transform="rotate(-16.4303 33.4009 29.8906)" fill="#E66F51"/>
<rect x="46.0703" y="34.6504" width="21.8035" height="3.47415" rx="1.73707" transform="rotate(-16.4303 46.0703 34.6504)" fill="#E66F51"/>
<rect x="47.5396" y="41.2422" width="21.8035" height="3.47415" rx="1.73707" transform="rotate(-16.4303 47.5396 41.2422)" fill="#E66F51"/>
</g>
<g filter="url(#filter2_d_2003_16981)">
<rect x="42.2273" y="21.5573" width="47.7073" height="56.2702" rx="2.29362" transform="rotate(-8.82196 42.2273 21.5573)" stroke="#E5ABAB" stroke-width="0.305816"/>
<rect x="51.8662" y="25.3867" width="33.2824" height="5.82657" rx="2.91328" transform="rotate(-8.82 51.8662 25.3867)" fill="#E66F51"/>
<rect x="63.7935" y="31.7832" width="21.8035" height="3.47415" rx="1.73707" transform="rotate(-8.82 63.7935 31.7832)" fill="#E66F51"/>
<rect x="64.377" y="38.5098" width="21.8035" height="3.47415" rx="1.73707" transform="rotate(-8.82 64.377 38.5098)" fill="#E66F51"/>
</g>
<path d="M100.769 -0.00195312C96.7157 -0.00195312 93.4297 3.28409 93.4297 7.33763V32.0953C93.4297 35.3134 91.3333 38.1562 88.2589 39.1072L18.1708 60.7854C15.0964 61.7364 13 64.5791 13 67.7973V136.392C13 140.445 16.286 143.731 20.3396 143.731H168.66C172.714 143.731 176 140.445 176 136.392V7.33763C176 3.28409 172.714 -0.00195312 168.66 -0.00195312H100.769Z" fill="#E66F51"/>
<defs>
<filter id="filter0_d_2003_16981" x="-2.29076" y="18.5106" width="49.2978" height="80.5112" filterUnits="userSpaceOnUse" color-interpolation-filters="sRGB">
<feFlood flood-opacity="0" result="BackgroundImageFix"/>
<feColorMatrix in="SourceAlpha" type="matrix" values="0 0 0 0 0 0 0 0 0 0 0 0 0 0 0 0 0 0 127 0" result="hardAlpha"/>
<feOffset dy="1.22326"/>
<feGaussianBlur stdDeviation="3.66979"/>
<feComposite in2="hardAlpha" operator="out"/>
<feColorMatrix type="matrix" values="0 0 0 0 1 0 0 0 0 0.400961 0 0 0 0 0.400961 0 0 0 0.25 0"/>
<feBlend mode="normal" in2="BackgroundImageFix" result="effect1_dropShadow_2003_16981"/>
<feBlend mode="normal" in="SourceGraphic" in2="effect1_dropShadow_2003_16981" result="shape"/>
</filter>
<filter id="filter1_d_2003_16981" x="14.8347" y="11.205" width="42.8706" height="80.0395" filterUnits="userSpaceOnUse" color-interpolation-filters="sRGB">
<feFlood flood-opacity="0" result="BackgroundImageFix"/>
<feColorMatrix in="SourceAlpha" type="matrix" values="0 0 0 0 0 0 0 0 0 0 0 0 0 0 0 0 0 0 127 0" result="hardAlpha"/>
<feOffset dy="1.22326"/>
<feGaussianBlur stdDeviation="3.66979"/>
<feComposite in2="hardAlpha" operator="out"/>
<feColorMatrix type="matrix" values="0 0 0 0 1 0 0 0 0 0.400961 0 0 0 0 0.400961 0 0 0 0.25 0"/>
<feBlend mode="normal" in2="BackgroundImageFix" result="effect1_dropShadow_2003_16981"/>
<feBlend mode="normal" in="SourceGraphic" in2="effect1_dropShadow_2003_16981" result="shape"/>
</filter>
<filter id="filter2_d_2003_16981" x="34.7131" y="7.95008" width="70.8012" height="77.9497" filterUnits="userSpaceOnUse" color-interpolation-filters="sRGB">
<feFlood flood-opacity="0" result="BackgroundImageFix"/>
<feColorMatrix in="SourceAlpha" type="matrix" values="0 0 0 0 0 0 0 0 0 0 0 0 0 0 0 0 0 0 127 0" result="hardAlpha"/>
<feOffset dy="1.22326"/>
<feGaussianBlur stdDeviation="3.66979"/>
<feComposite in2="hardAlpha" operator="out"/>
<feColorMatrix type="matrix" values="0 0 0 0 1 0 0 0 0 0.400961 0 0 0 0 0.400961 0 0 0 0.25 0"/>
<feBlend mode="normal" in2="BackgroundImageFix" result="effect1_dropShadow_2003_16981"/>
<feBlend mode="normal" in="SourceGraphic" in2="effect1_dropShadow_2003_16981" result="shape"/>
</filter>
<clipPath id="clip0_2003_16981">
<rect width="18.1898" height="63.2702" fill="white" transform="translate(5.04883 29.5449) rotate(-15.6863)"/>
</clipPath>
<clipPath id="clip1_2003_16981">
<rect width="19.9885" height="63.2702" fill="white" transform="translate(22.1743 19.9688) rotate(-7.61033)"/>
</clipPath>
</defs>
</svg>
