<svg width="51" height="51" viewBox="0 0 51 51" fill="none" xmlns="http://www.w3.org/2000/svg">
<path d="M19.2499 22.8958C16.0833 22.8958 13.5208 20.3333 13.5208 17.1667C13.5208 14 16.0833 11.4375 19.2499 11.4375C22.4166 11.4375 24.9791 14 24.9791 17.1667C24.9791 20.3333 22.4166 22.8958 19.2499 22.8958ZM19.2499 14.5625C17.8124 14.5625 16.6458 15.7292 16.6458 17.1667C16.6458 18.6042 17.8124 19.7708 19.2499 19.7708C20.6874 19.7708 21.8541 18.6042 21.8541 17.1667C21.8541 15.7292 20.6874 14.5625 19.2499 14.5625Z" fill="#D1D1DB"/>
<path d="M31.7501 47.8959H19.2501C7.93758 47.8959 3.10425 43.0626 3.10425 31.7501V19.2501C3.10425 7.93758 7.93758 3.10425 19.2501 3.10425H27.5834C28.4376 3.10425 29.1459 3.81258 29.1459 4.66675C29.1459 5.52091 28.4376 6.22925 27.5834 6.22925H19.2501C9.64592 6.22925 6.22925 9.64592 6.22925 19.2501V31.7501C6.22925 41.3543 9.64592 44.7709 19.2501 44.7709H31.7501C41.3543 44.7709 44.7709 41.3543 44.7709 31.7501V21.3334C44.7709 20.4792 45.4793 19.7709 46.3334 19.7709C47.1876 19.7709 47.8959 20.4792 47.8959 21.3334V31.7501C47.8959 43.0626 43.0626 47.8959 31.7501 47.8959Z" fill="#D1D1DB"/>
<path d="M44.7708 12.4792H33.3125C32.4583 12.4792 31.75 11.7709 31.75 10.9167C31.75 10.0626 32.4583 9.35425 33.3125 9.35425H44.7708C45.625 9.35425 46.3333 10.0626 46.3333 10.9167C46.3333 11.7709 45.625 12.4792 44.7708 12.4792Z" fill="#D1D1DB"/>
<path d="M39.0417 18.2083C38.1876 18.2083 37.4792 17.5 37.4792 16.6458V5.1875C37.4792 4.33333 38.1876 3.625 39.0417 3.625C39.8959 3.625 40.6042 4.33333 40.6042 5.1875V16.6458C40.6042 17.5 39.8959 18.2083 39.0417 18.2083Z" fill="#D1D1DB"/>
<path d="M6.06254 41.5417C5.56254 41.5417 5.06254 41.2917 4.77087 40.8542C4.29171 40.1459 4.47921 39.1667 5.18754 38.6876L15.4584 31.7917C17.7084 30.2917 20.8125 30.4584 22.8542 32.1876L23.5417 32.7917C24.5834 33.6876 26.3542 33.6876 27.375 32.7917L36.0417 25.3542C38.2709 23.4584 41.7292 23.4584 43.9584 25.3542L47.3542 28.2709C48 28.8334 48.0834 29.8126 47.5209 30.4792C46.9584 31.1251 45.9792 31.2084 45.3125 30.6459L41.9167 27.7292C40.875 26.8334 39.1042 26.8334 38.0834 27.7292L29.4167 35.1667C27.2084 37.0626 23.7292 37.0626 21.5 35.1667L20.8125 34.5626C19.8542 33.7501 18.2709 33.6667 17.2084 34.3959L6.95837 41.2917C6.66671 41.4584 6.35421 41.5417 6.06254 41.5417Z" fill="#D1D1DB"/>
</svg>
