<svg width="24" height="25" viewBox="0 0 24 25" fill="none" xmlns="http://www.w3.org/2000/svg">
<path d="M20.943 17.335C20.3949 14.0635 18.8285 11.0484 16.467 8.719C15.95 8.216 15.692 7.965 15.121 7.733C14.55 7.5 14.059 7.5 13.078 7.5H10.922C9.94098 7.5 9.44998 7.5 8.87898 7.733C8.30898 7.965 8.04898 8.216 7.53298 8.719C5.17144 11.0484 3.60508 14.0635 3.05698 17.335C2.56998 20.273 5.27998 22.5 8.30798 22.5H15.692C18.721 22.5 21.432 20.273 20.942 17.335" fill="#EA8303" fill-opacity="0.3"/>
<path d="M20.943 17.335C20.3949 14.0635 18.8285 11.0484 16.467 8.719C15.95 8.216 15.692 7.965 15.121 7.733C14.55 7.5 14.059 7.5 13.078 7.5H10.922C9.94098 7.5 9.44998 7.5 8.87898 7.733C8.30898 7.965 8.04898 8.216 7.53298 8.719C5.17144 11.0484 3.60508 14.0635 3.05698 17.335C2.56998 20.273 5.27998 22.5 8.30798 22.5H15.692C18.721 22.5 21.432 20.273 20.942 17.335" stroke="#EA8303" stroke-width="1.5" stroke-linecap="round" stroke-linejoin="round"/>
<path d="M9 15.5C7.4 14.7 4.66667 15.5 3.5 16V19L5.5 22L11.5 23L17.5 22L20 20.5L21 18L20 15C19.1667 15.3333 17.4 15.9 17 15.5C16.6 15.1 13.8333 15.3333 12.5 15.5C12 15.8333 10.6 16.3 9 15.5Z" fill="#EA8303"/>
<path d="M7.25694 4.943C7.04994 4.643 6.75094 4.235 7.36894 4.143C8.00394 4.047 8.66294 4.481 9.30894 4.473C9.89194 4.464 10.1889 4.205 10.5089 3.835C10.8449 3.446 11.3649 2.5 11.9999 2.5C12.6349 2.5 13.1549 3.446 13.4909 3.835C13.8109 4.205 14.1079 4.465 14.6909 4.472C15.3369 4.482 15.9959 4.047 16.6309 4.142C17.2489 4.235 16.9499 4.642 16.7429 4.942L15.8109 6.301C15.4109 6.881 15.2119 7.171 14.7939 7.336C14.3759 7.501 13.8369 7.5 12.7579 7.5H11.2419C10.1619 7.5 9.62294 7.5 9.20594 7.336C8.78894 7.172 8.58894 6.88 8.18894 6.3L7.25694 4.943Z" fill="#EA8303" fill-opacity="0.3" stroke="#EA8303" stroke-width="1.5" stroke-linecap="round" stroke-linejoin="round"/>
</svg>
