<svg width="24" height="25" viewBox="0 0 24 25" fill="none" xmlns="http://www.w3.org/2000/svg">
<path d="M17.9998 8.87071C17.9698 8.87071 17.9498 8.87071 17.9198 8.87071H17.8698C15.9798 8.81071 14.5698 7.35071 14.5698 5.5507C14.5698 3.7107 16.0698 2.2207 17.8998 2.2207C19.7298 2.2207 21.2298 3.7207 21.2298 5.5507C21.2198 7.3607 19.8098 8.82071 18.0098 8.88071C18.0098 8.87071 18.0098 8.87071 17.9998 8.87071ZM17.8998 3.71071C16.8898 3.71071 16.0698 4.53071 16.0698 5.54071C16.0698 6.53071 16.8398 7.33071 17.8298 7.37071C17.8398 7.36071 17.9198 7.36071 18.0098 7.37071C18.9798 7.32071 19.7298 6.52071 19.7398 5.54071C19.7398 4.53071 18.9198 3.71071 17.8998 3.71071Z" fill="#484C52"/>
<path d="M18.01 16.2406C17.62 16.2406 17.23 16.2106 16.84 16.1406C16.43 16.0706 16.16 15.6806 16.23 15.2706C16.3 14.8606 16.69 14.5906 17.1 14.6606C18.33 14.8706 19.63 14.6406 20.5 14.0606C20.97 13.7506 21.22 13.3606 21.22 12.9706C21.22 12.5806 20.96 12.2006 20.5 11.8906C19.63 11.3106 18.31 11.0806 17.07 11.3006C16.66 11.3806 16.27 11.1006 16.2 10.6906C16.13 10.2806 16.4 9.8906 16.81 9.8206C18.44 9.5306 20.13 9.84059 21.33 10.6406C22.21 11.2306 22.72 12.0706 22.72 12.9706C22.72 13.8606 22.22 14.7106 21.33 15.3106C20.42 15.9106 19.24 16.2406 18.01 16.2406Z" fill="#484C52"/>
<path d="M5.96998 8.87094C5.95998 8.87094 5.94998 8.87094 5.94998 8.87094C4.14998 8.81094 2.73998 7.35093 2.72998 5.55093C2.72998 3.71093 4.22998 2.21094 6.05998 2.21094C7.88998 2.21094 9.38998 3.71094 9.38998 5.54094C9.38998 7.35094 7.97998 8.81094 6.17998 8.87094L5.96998 8.12094L6.03998 8.87094C6.01998 8.87094 5.98998 8.87094 5.96998 8.87094ZM6.06998 7.37094C6.12998 7.37094 6.17998 7.37094 6.23998 7.38094C7.12998 7.34094 7.90998 6.54093 7.90998 5.55093C7.90998 4.54093 7.08998 3.72093 6.07998 3.72093C5.06998 3.72093 4.24998 4.54093 4.24998 5.55093C4.24998 6.53093 5.00998 7.32094 5.97998 7.38094C5.98998 7.37094 6.02998 7.37094 6.06998 7.37094Z" fill="#484C52"/>
<path d="M5.96 16.2406C4.73 16.2406 3.55 15.9106 2.64 15.3106C1.76 14.7206 1.25 13.8706 1.25 12.9706C1.25 12.0806 1.76 11.2306 2.64 10.6406C3.84 9.84059 5.53 9.5306 7.16 9.8206C7.57 9.8906 7.84 10.2806 7.77 10.6906C7.7 11.1006 7.31 11.3806 6.9 11.3006C5.66 11.0806 4.35 11.3106 3.47 11.8906C3 12.2006 2.75 12.5806 2.75 12.9706C2.75 13.3606 3.01 13.7506 3.47 14.0606C4.34 14.6406 5.64 14.8706 6.87 14.6606C7.28 14.5906 7.67 14.8706 7.74 15.2706C7.81 15.6806 7.54 16.0706 7.13 16.1406C6.74 16.2106 6.35 16.2406 5.96 16.2406Z" fill="#484C52"/>
<path d="M11.9998 16.3414C11.9698 16.3414 11.9498 16.3414 11.9198 16.3414H11.8698C9.97982 16.2814 8.56982 14.8214 8.56982 13.0214C8.56982 11.1814 10.0698 9.69141 11.8998 9.69141C13.7298 9.69141 15.2298 11.1914 15.2298 13.0214C15.2198 14.8314 13.8098 16.2914 12.0098 16.3514C12.0098 16.3414 12.0098 16.3414 11.9998 16.3414ZM11.8998 11.1814C10.8898 11.1814 10.0698 12.0014 10.0698 13.0114C10.0698 14.0014 10.8398 14.8014 11.8298 14.8414C11.8398 14.8314 11.9198 14.8314 12.0098 14.8414C12.9798 14.7914 13.7298 13.9914 13.7398 13.0114C13.7398 12.0114 12.9198 11.1814 11.8998 11.1814Z" fill="#484C52"/>
<path d="M11.9998 23.7207C10.7998 23.7207 9.59978 23.4107 8.66978 22.7807C7.78978 22.1907 7.27979 21.3507 7.27979 20.4507C7.27979 19.5607 7.77978 18.7007 8.66978 18.1107C10.5398 16.8707 13.4698 16.8707 15.3298 18.1107C16.2098 18.7007 16.7198 19.5407 16.7198 20.4407C16.7198 21.3307 16.2198 22.1907 15.3298 22.7807C14.3998 23.4007 13.1998 23.7207 11.9998 23.7207ZM9.49979 19.3707C9.02979 19.6807 8.77979 20.0707 8.77979 20.4607C8.77979 20.8507 9.03979 21.2307 9.49979 21.5407C10.8498 22.4507 13.1398 22.4507 14.4898 21.5407C14.9598 21.2307 15.2098 20.8407 15.2098 20.4507C15.2098 20.0607 14.9498 19.6807 14.4898 19.3707C13.1498 18.4607 10.8598 18.4707 9.49979 19.3707Z" fill="#484C52"/>
</svg>
