<svg width="25" height="24" viewBox="0 0 25 24" fill="none" xmlns="http://www.w3.org/2000/svg">
<path d="M18.6998 7.91002C18.6698 7.91002 18.6498 7.91002 18.6198 7.91002H18.5698C16.6798 7.85002 15.2698 6.39001 15.2698 4.59001C15.2698 2.75001 16.7698 1.26001 18.5998 1.26001C20.4298 1.26001 21.9298 2.76001 21.9298 4.59001C21.9198 6.40001 20.5098 7.86001 18.7098 7.92001C18.7098 7.91001 18.7098 7.91002 18.6998 7.91002ZM18.5998 2.75002C17.5898 2.75002 16.7698 3.57002 16.7698 4.58002C16.7698 5.57002 17.5398 6.37002 18.5298 6.41002C18.5398 6.40002 18.6198 6.40002 18.7098 6.41002C19.6798 6.36002 20.4298 5.56002 20.4398 4.58002C20.4398 3.57002 19.6198 2.75002 18.5998 2.75002Z" fill="#484C52"/>
<path d="M18.71 15.2801C18.32 15.2801 17.93 15.2501 17.54 15.1801C17.13 15.1101 16.86 14.7201 16.93 14.3101C17 13.9001 17.39 13.6301 17.8 13.7001C19.03 13.9101 20.33 13.6802 21.2 13.1002C21.67 12.7902 21.92 12.4001 21.92 12.0101C21.92 11.6201 21.66 11.2401 21.2 10.9301C20.33 10.3501 19.01 10.1201 17.77 10.3401C17.36 10.4201 16.97 10.1401 16.9 9.73015C16.83 9.32015 17.1 8.93015 17.51 8.86015C19.14 8.57015 20.83 8.88014 22.03 9.68014C22.91 10.2701 23.42 11.1101 23.42 12.0101C23.42 12.9001 22.92 13.7502 22.03 14.3502C21.12 14.9502 19.94 15.2801 18.71 15.2801Z" fill="#484C52"/>
<path d="M6.66993 7.91C6.65993 7.91 6.64993 7.91 6.64993 7.91C4.84993 7.85 3.43993 6.39 3.42993 4.59C3.42993 2.75 4.92993 1.25 6.75993 1.25C8.58993 1.25 10.0899 2.75 10.0899 4.58C10.0899 6.39 8.67993 7.85 6.87993 7.91L6.66993 7.16L6.73993 7.91C6.71993 7.91 6.68993 7.91 6.66993 7.91ZM6.76993 6.41C6.82993 6.41 6.87993 6.41 6.93993 6.42C7.82993 6.38 8.60993 5.58 8.60993 4.59C8.60993 3.58 7.78993 2.75999 6.77993 2.75999C5.76993 2.75999 4.94993 3.58 4.94993 4.59C4.94993 5.57 5.70993 6.36 6.67993 6.42C6.68993 6.41 6.72993 6.41 6.76993 6.41Z" fill="#484C52"/>
<path d="M6.65995 15.2801C5.42995 15.2801 4.24995 14.9502 3.33995 14.3502C2.45995 13.7602 1.94995 12.9101 1.94995 12.0101C1.94995 11.1201 2.45995 10.2701 3.33995 9.68014C4.53995 8.88014 6.22995 8.57015 7.85995 8.86015C8.26995 8.93015 8.53995 9.32015 8.46995 9.73015C8.39995 10.1401 8.00995 10.4201 7.59995 10.3401C6.35995 10.1201 5.04995 10.3501 4.16995 10.9301C3.69995 11.2401 3.44995 11.6201 3.44995 12.0101C3.44995 12.4001 3.70995 12.7902 4.16995 13.1002C5.03995 13.6802 6.33995 13.9101 7.56995 13.7001C7.97995 13.6301 8.36995 13.9101 8.43995 14.3101C8.50995 14.7201 8.23995 15.1101 7.82995 15.1801C7.43995 15.2501 7.04995 15.2801 6.65995 15.2801Z" fill="#484C52"/>
<path d="M12.6998 15.38C12.6698 15.38 12.6498 15.38 12.6198 15.38H12.5698C10.6798 15.32 9.26978 13.86 9.26978 12.06C9.26978 10.22 10.7698 8.72998 12.5998 8.72998C14.4298 8.72998 15.9298 10.23 15.9298 12.06C15.9198 13.87 14.5098 15.33 12.7098 15.39C12.7098 15.38 12.7098 15.38 12.6998 15.38ZM12.5998 10.22C11.5898 10.22 10.7698 11.04 10.7698 12.05C10.7698 13.04 11.5398 13.84 12.5298 13.88C12.5398 13.87 12.6198 13.87 12.7098 13.88C13.6798 13.83 14.4298 13.03 14.4398 12.05C14.4398 11.05 13.6198 10.22 12.5998 10.22Z" fill="#484C52"/>
<path d="M12.6997 22.76C11.4997 22.76 10.2997 22.45 9.36974 21.82C8.48974 21.23 7.97974 20.39 7.97974 19.49C7.97974 18.6 8.47974 17.74 9.36974 17.15C11.2397 15.91 14.1697 15.91 16.0297 17.15C16.9097 17.74 17.4197 18.58 17.4197 19.48C17.4197 20.37 16.9197 21.23 16.0297 21.82C15.0997 22.44 13.8997 22.76 12.6997 22.76ZM10.1997 18.41C9.72974 18.72 9.47974 19.11 9.47974 19.5C9.47974 19.89 9.73974 20.27 10.1997 20.58C11.5497 21.49 13.8397 21.49 15.1897 20.58C15.6597 20.27 15.9097 19.88 15.9097 19.49C15.9097 19.1 15.6497 18.72 15.1897 18.41C13.8497 17.5 11.5597 17.51 10.1997 18.41Z" fill="#484C52"/>
</svg>
