<svg width="20" height="20" viewBox="0 0 20 20" fill="none" xmlns="http://www.w3.org/2000/svg">
<path fill-rule="evenodd" clip-rule="evenodd" d="M10 1.04175C7.81387 1.04175 6.04167 2.81395 6.04167 5.00008C6.04167 7.18621 7.81387 8.95842 10 8.95842C12.1861 8.95842 13.9583 7.18621 13.9583 5.00008C13.9583 2.81395 12.1861 1.04175 10 1.04175ZM7.29167 5.00008C7.29167 3.50431 8.50423 2.29175 10 2.29175C11.4958 2.29175 12.7083 3.50431 12.7083 5.00008C12.7083 6.49585 11.4958 7.70842 10 7.70842C8.50423 7.70842 7.29167 6.49585 7.29167 5.00008Z" fill="#2C2D3A"/>
<path d="M15 2.70841C14.6548 2.70841 14.375 2.98824 14.375 3.33341C14.375 3.67859 14.6548 3.95841 15 3.95841C16.1471 3.95841 16.875 4.71319 16.875 5.41675C16.875 6.12031 16.1471 6.87508 15 6.87508C14.6548 6.87508 14.375 7.1549 14.375 7.50008C14.375 7.84526 14.6548 8.12508 15 8.12508C16.6144 8.12508 18.125 7.01438 18.125 5.41675C18.125 3.81912 16.6144 2.70841 15 2.70841Z" fill="#2C2D3A"/>
<path d="M5.625 3.33341C5.625 2.98824 5.34518 2.70841 5 2.70841C3.38565 2.70841 1.875 3.81912 1.875 5.41675C1.875 7.01438 3.38565 8.12508 5 8.12508C5.34518 8.12508 5.625 7.84526 5.625 7.50008C5.625 7.1549 5.34518 6.87508 5 6.87508C3.85293 6.87508 3.125 6.12031 3.125 5.41675C3.125 4.71319 3.85293 3.95841 5 3.95841C5.34518 3.95841 5.625 3.67859 5.625 3.33341Z" fill="#2C2D3A"/>
<path fill-rule="evenodd" clip-rule="evenodd" d="M10 10.2084C8.51311 10.2084 7.13871 10.6091 6.11778 11.2897C5.10122 11.9674 4.375 12.9723 4.375 14.1667C4.375 15.3612 5.10122 16.3661 6.11778 17.0438C7.13871 17.7244 8.51311 18.1251 10 18.1251C11.4869 18.1251 12.8613 17.7244 13.8822 17.0438C14.8988 16.3661 15.625 15.3612 15.625 14.1667C15.625 12.9723 14.8988 11.9674 13.8822 11.2897C12.8613 10.6091 11.4869 10.2084 10 10.2084ZM5.625 14.1667C5.625 13.5203 6.01807 12.8585 6.81115 12.3298C7.59987 11.8039 8.72547 11.4584 10 11.4584C11.2745 11.4584 12.4001 11.8039 13.1888 12.3298C13.9819 12.8585 14.375 13.5203 14.375 14.1667C14.375 14.8132 13.9819 15.475 13.1888 16.0037C12.4001 16.5295 11.2745 16.8751 10 16.8751C8.72547 16.8751 7.59987 16.5295 6.81115 16.0037C6.01807 15.475 5.625 14.8132 5.625 14.1667Z" fill="#2C2D3A"/>
<path d="M16.0562 11.5329C16.1301 11.1957 16.4634 10.9823 16.8005 11.0563C17.6021 11.232 18.3244 11.5495 18.8607 11.9884C19.3965 12.4268 19.7917 13.0294 19.7917 13.7501C19.7917 14.4707 19.3965 15.0734 18.8607 15.5118C18.3244 15.9506 17.6021 16.2681 16.8005 16.4439C16.4634 16.5178 16.1301 16.3045 16.0562 15.9673C15.9822 15.6301 16.1956 15.2969 16.5328 15.2229C17.1931 15.0781 17.7208 14.8294 18.0691 14.5444C18.4178 14.259 18.5417 13.9803 18.5417 13.7501C18.5417 13.5198 18.4178 13.2411 18.0691 12.9557C17.7208 12.6708 17.1931 12.422 16.5328 12.2772C16.1956 12.2033 15.9822 11.87 16.0562 11.5329Z" fill="#2C2D3A"/>
<path d="M3.19945 11.0563C3.53662 10.9823 3.86989 11.1957 3.94383 11.5329C4.01776 11.87 3.80438 12.2033 3.46721 12.2772C2.80691 12.422 2.27921 12.6708 1.93093 12.9557C1.58219 13.2411 1.45833 13.5198 1.45833 13.7501C1.45833 13.9803 1.58219 14.259 1.93093 14.5444C2.27921 14.8294 2.80691 15.0781 3.46721 15.2229C3.80438 15.2969 4.01776 15.6301 3.94383 15.9673C3.86989 16.3045 3.53662 16.5178 3.19945 16.4439C2.39789 16.2681 1.67558 15.9506 1.13933 15.5118C0.603539 15.0734 0.208332 14.4707 0.208332 13.7501C0.208332 13.0294 0.603539 12.4268 1.13933 11.9884C1.67558 11.5495 2.39789 11.232 3.19945 11.0563Z" fill="#2C2D3A"/>
</svg>
