<svg width="19" height="19" viewBox="0 0 19 19" fill="none" xmlns="http://www.w3.org/2000/svg">
    <path d="M1.86204 10.4611C1.58179 8.64187 1.44246 7.73304 1.78604 6.92633C2.12963 6.11962 2.89279 5.56862 4.41834 4.46583L5.55834 3.64171C7.45596 2.26975 8.40517 1.58337 9.50084 1.58337C10.5949 1.58337 11.5433 2.26975 13.4418 3.64171L14.5818 4.46583C16.1073 5.56862 16.8697 6.12042 17.214 6.92633C17.5576 7.73304 17.4183 8.64187 17.1388 10.4603L16.9005 12.012C16.5047 14.5897 16.306 15.8785 15.3813 16.648C14.4567 17.4175 13.1053 17.4167 10.4025 17.4167H8.59754C5.894 17.4167 4.54263 17.4167 3.61796 16.648C2.69329 15.8785 2.49538 14.5897 2.09954 12.0112L1.86204 10.4611Z"
        fill="currentColor"/>
    <path d="M11.875 13.4584C11.2416 13.9508 10.4104 14.25 9.49997 14.25C8.58955 14.25 7.7583 13.9508 7.12497 13.4584"
        stroke="white" stroke-width="1.1875" stroke-linecap="round" stroke-linejoin="round"/>
</svg>
