<svg width="25" height="24" viewBox="0 0 25 24" fill="none" xmlns="http://www.w3.org/2000/svg">
<path fill-rule="evenodd" clip-rule="evenodd" d="M11.8861 1.21065C12.2472 0.929784 12.7529 0.929784 13.114 1.21065L22.114 8.21065C22.3576 8.4001 22.5 8.69141 22.5 9V20C22.5 20.7957 22.184 21.5587 21.6214 22.1213C21.0587 22.6839 20.2957 23 19.5 23H5.50003C4.70438 23 3.94132 22.6839 3.37871 22.1213C2.8161 21.5587 2.50003 20.7957 2.50003 20V9C2.50003 8.69141 2.6425 8.4001 2.88609 8.21065L11.8861 1.21065ZM4.50003 9.48908V20C4.50003 20.2652 4.60539 20.5196 4.79292 20.7071C4.98046 20.8946 5.23481 21 5.50003 21H19.5C19.7652 21 20.0196 20.8946 20.2071 20.7071C20.3947 20.5196 20.5 20.2652 20.5 20V9.48908L12.5 3.26686L4.50003 9.48908Z" fill="white"/>
<path fill-rule="evenodd" clip-rule="evenodd" d="M8.50003 12C8.50003 11.4477 8.94775 11 9.50003 11H15.5C16.0523 11 16.5 11.4477 16.5 12V22C16.5 22.5523 16.0523 23 15.5 23C14.9477 23 14.5 22.5523 14.5 22V13H10.5V22C10.5 22.5523 10.0523 23 9.50003 23C8.94775 23 8.50003 22.5523 8.50003 22V12Z" fill="white"/>
</svg>
