<svg width="33" height="42" viewBox="0 0 33 42" fill="none" xmlns="http://www.w3.org/2000/svg">
<path d="M32.9998 11.3715V38.1128C32.9998 40.1681 31.159 42 29.0947 42H4.7347C2.67044 42 0.82959 40.1681 0.82959 38.1128V3.88723C0.82959 1.83191 2.67044 0 4.7347 0H21.5241C21.7487 0 21.9627 0.0882002 22.1217 0.2457L32.7518 10.7793C32.9108 10.9368 32.9998 11.1489 32.9998 11.3715Z" fill="#FF1943"/>
<path d="M32.5969 11.1426H23.8805C22.7721 11.1426 21.8735 10.2522 21.8735 9.15389V0.293989C21.8735 0.184789 22.0049 0.130189 22.0833 0.207889L32.7495 10.7772C32.8852 10.9116 32.7898 11.1426 32.5969 11.1426V11.1426Z" fill="#F9F9F9"/>
<path d="M10.6743 19.8789V27.4375H9.12158V18.6601H10.5571L10.6743 19.8789ZM14.7466 21.7656V21.8886C14.7466 22.3496 14.6919 22.7773 14.5825 23.1718C14.4771 23.5625 14.3208 23.9043 14.1138 24.1972C13.9067 24.4863 13.6489 24.7129 13.3403 24.8769C13.0356 25.0371 12.6841 25.1172 12.2856 25.1172C11.895 25.1172 11.5552 25.0429 11.2661 24.8945C10.9771 24.7422 10.7329 24.5273 10.5337 24.25C10.3345 23.9726 10.1743 23.6504 10.0532 23.2832C9.93604 22.9121 9.84814 22.5078 9.78955 22.0703V21.6777C9.84814 21.2129 9.93604 20.791 10.0532 20.4121C10.1743 20.0293 10.3345 19.6992 10.5337 19.4218C10.7329 19.1406 10.9751 18.9238 11.2603 18.7715C11.5493 18.6191 11.8872 18.5429 12.2739 18.5429C12.6763 18.5429 13.0298 18.6191 13.3345 18.7715C13.6431 18.9238 13.9028 19.1425 14.1138 19.4277C14.3247 19.7129 14.4829 20.0527 14.5884 20.4472C14.6938 20.8418 14.7466 21.2812 14.7466 21.7656ZM13.1938 21.8886V21.7656C13.1938 21.4843 13.1685 21.2246 13.1177 20.9863C13.0669 20.7441 12.9888 20.5332 12.8833 20.3535C12.7778 20.1699 12.6411 20.0273 12.4731 19.9258C12.3052 19.8242 12.1021 19.7734 11.8638 19.7734C11.6255 19.7734 11.4204 19.8125 11.2485 19.8906C11.0767 19.9687 10.936 20.08 10.8267 20.2246C10.7173 20.3691 10.6313 20.541 10.5688 20.7402C10.5103 20.9355 10.4712 21.1523 10.4517 21.3906V22.3633C10.4868 22.6523 10.5552 22.9121 10.6567 23.1425C10.7583 23.373 10.9067 23.5566 11.1021 23.6933C11.3013 23.83 11.5591 23.8984 11.8755 23.8984C12.1138 23.8984 12.3169 23.8457 12.4849 23.7402C12.6528 23.6347 12.7896 23.4902 12.895 23.3066C13.0005 23.1191 13.0767 22.9043 13.1235 22.6621C13.1704 22.4199 13.1938 22.1621 13.1938 21.8886ZM19.6802 23.6523V16H21.2388V25H19.8325L19.6802 23.6523ZM15.6079 21.9062V21.7832C15.6079 21.2988 15.6626 20.8593 15.772 20.4648C15.8853 20.0664 16.0493 19.7246 16.2642 19.4394C16.479 19.1543 16.7388 18.9336 17.0435 18.7773C17.3521 18.6211 17.7017 18.5429 18.0923 18.5429C18.4712 18.5429 18.8013 18.6191 19.0825 18.7715C19.3677 18.9238 19.6099 19.1406 19.8091 19.4218C20.0122 19.7031 20.1743 20.0371 20.2954 20.4238C20.4165 20.8066 20.5044 21.2285 20.5591 21.6894V22.0234C20.5044 22.4726 20.4165 22.8847 20.2954 23.2597C20.1743 23.6347 20.0122 23.9629 19.8091 24.2441C19.6099 24.5215 19.3677 24.7363 19.0825 24.8886C18.7974 25.041 18.4634 25.1172 18.0806 25.1172C17.6938 25.1172 17.3462 25.0371 17.0376 24.8769C16.7329 24.7168 16.4731 24.4922 16.2583 24.2031C16.0474 23.914 15.8853 23.5742 15.772 23.1836C15.6626 22.7929 15.6079 22.3672 15.6079 21.9062ZM17.1606 21.7832V21.9062C17.1606 22.1797 17.1841 22.4355 17.231 22.6738C17.2778 22.9121 17.354 23.123 17.4595 23.3066C17.5649 23.4863 17.6997 23.6269 17.8638 23.7285C18.0317 23.83 18.2349 23.8808 18.4731 23.8808C18.7778 23.8808 19.0278 23.8144 19.2231 23.6816C19.4224 23.5449 19.5767 23.3593 19.686 23.125C19.7954 22.8867 19.8657 22.6191 19.897 22.3222V21.4023C19.8813 21.1679 19.8403 20.9511 19.7739 20.7519C19.7114 20.5527 19.6216 20.3808 19.5044 20.2363C19.3911 20.0918 19.2505 19.9785 19.0825 19.8965C18.9146 19.8144 18.7153 19.7734 18.4849 19.7734C18.2466 19.7734 18.0435 19.8261 17.8755 19.9316C17.7075 20.0332 17.5708 20.1758 17.4653 20.3593C17.3599 20.5429 17.2817 20.7558 17.231 20.998C17.1841 21.2402 17.1606 21.5019 17.1606 21.7832ZM24.6665 25H23.1079V18.0742C23.1079 17.5976 23.1997 17.1972 23.3833 16.873C23.5669 16.5449 23.8286 16.2968 24.1685 16.1289C24.5083 15.9609 24.9087 15.8769 25.3696 15.8769C25.522 15.8769 25.6665 15.8867 25.8032 15.9062C25.9438 15.9258 26.0825 15.9531 26.2192 15.9883L26.1899 17.166C26.1157 17.1465 26.0337 17.1328 25.9438 17.125C25.8579 17.1172 25.7622 17.1133 25.6567 17.1133C25.4458 17.1133 25.2661 17.1504 25.1177 17.2246C24.9692 17.2988 24.856 17.4082 24.7778 17.5527C24.7036 17.6933 24.6665 17.8672 24.6665 18.0742V25ZM25.9497 18.6601V19.7734H22.1528V18.6601H25.9497Z" fill="white"/>
</svg>
