<?xml version="1.0" standalone="no"?>
<!DOCTYPE svg PUBLIC "-//W3C//DTD SVG 20010904//EN"
 "http://www.w3.org/TR/2001/REC-SVG-20010904/DTD/svg10.dtd">
<svg version="1.0" xmlns="http://www.w3.org/2000/svg"
 width="496.000000pt" height="500.000000pt" viewBox="0 0 496.000000 500.000000"
 preserveAspectRatio="xMidYMid meet">

<g transform="translate(0.000000,500.000000) scale(0.100000,-0.100000)"
fill="#000000" stroke="none">
<path d="M320 3653 c-29 -46 -35 -77 -24 -119 7 -25 33 -22 58 5 12 13 13 25
5 61 -6 25 -9 57 -6 73 2 15 2 27 0 27 -2 0 -17 -21 -33 -47z"/>
<path d="M3065 3562 c-39 -53 -85 -175 -85 -228 0 -47 52 -82 172 -118 62 -19
126 -39 142 -45 20 -8 32 -9 40 -1 7 7 2 10 -16 10 -14 0 -37 9 -51 20 -14 11
-32 20 -41 20 -9 0 -16 5 -16 10 0 6 -7 10 -16 10 -9 0 -18 9 -21 20 -3 11 -9
20 -13 20 -21 0 -49 147 -42 218 3 36 0 52 -14 69 l-19 22 -20 -27z"/>
<path d="M62 3391 c-37 -47 -36 -39 -16 -107 13 -46 19 -54 39 -54 22 0 27
-10 55 -100 26 -83 36 -104 64 -125 18 -14 41 -25 52 -25 15 0 12 4 -11 19
-44 27 -63 51 -73 96 -6 22 -26 98 -46 169 -20 72 -34 138 -30 148 8 27 1 22
-34 -21z"/>
<path d="M2875 3046 c-14 -24 -25 -52 -25 -64 0 -33 -26 -52 -63 -45 -18 3
-34 6 -37 5 -40 0 -55 -7 -84 -34 -34 -33 -44 -59 -150 -358 -13 -36 -38 -104
-55 -152 -17 -49 -45 -127 -62 -175 -17 -49 -41 -116 -54 -150 -13 -35 -20
-65 -15 -68 17 -11 38 8 48 43 6 20 34 100 62 177 29 77 54 151 57 165 3 14 9
30 13 35 4 6 13 28 19 50 7 22 21 64 32 93 54 146 62 169 75 199 8 17 14 35
14 41 0 16 28 64 42 73 7 5 23 9 35 9 25 0 93 -30 93 -41 0 -3 -16 -33 -35
-65 -19 -32 -35 -64 -35 -71 0 -7 -6 -27 -14 -45 -23 -54 -66 -173 -70 -194
-2 -10 -14 -44 -26 -74 -12 -30 -23 -62 -25 -70 -7 -28 -83 -237 -95 -259 -6
-13 -9 -28 -7 -36 3 -7 1 -17 -4 -22 -6 -6 -11 -30 -13 -54 -4 -52 -14 -79
-29 -79 -22 0 32 -43 70 -56 40 -14 53 -7 53 27 0 9 3 19 7 23 4 4 8 13 8 19
2 30 18 88 26 93 5 3 9 13 9 23 0 10 7 24 15 31 8 7 15 18 14 24 -1 6 -1 33 0
59 1 36 5 49 19 54 9 4 20 11 24 17 11 16 10 58 -2 51 -5 -3 -10 -3 -10 2 0
15 19 38 32 38 8 0 13 13 14 32 1 18 7 39 14 48 7 8 9 15 4 15 -5 0 1 8 14 18
16 12 25 34 32 76 11 69 36 140 63 179 14 21 18 40 14 85 -3 49 0 61 20 87 13
17 23 32 21 35 -1 3 10 17 25 32 22 22 27 36 26 65 -3 56 -26 106 -54 120 -24
10 -27 8 -50 -31z"/>
<path d="M680 2460 c0 -5 4 -10 9 -10 6 0 13 5 16 10 3 6 -1 10 -9 10 -9 0
-16 -4 -16 -10z"/>
<path d="M330 2317 c0 -13 20 -93 44 -178 24 -85 61 -217 81 -294 59 -224 123
-427 137 -436 23 -15 29 -9 14 13 -9 12 -16 31 -16 40 0 10 -4 26 -9 36 -6 9
-22 66 -36 127 -15 60 -29 114 -33 119 -3 6 -7 23 -9 39 -2 15 -7 36 -12 46
-5 9 -23 73 -40 142 -17 68 -44 167 -61 219 -16 52 -30 101 -30 107 0 7 -5 13
-11 13 -6 0 -9 7 -5 15 3 8 1 15 -4 15 -6 0 -10 -10 -10 -23z"/>
<path d="M2286 1374 c-3 -9 -6 -24 -6 -35 0 -10 -4 -19 -9 -19 -14 0 -20 -70
-10 -120 4 -25 18 -97 30 -160 11 -63 25 -120 30 -126 5 -6 -1 -38 -13 -78
-23 -70 -21 -88 15 -110 26 -16 48 2 79 65 14 29 38 61 52 70 14 8 36 26 49
40 51 51 106 99 114 99 10 0 73 55 73 64 0 4 -11 -1 -25 -10 -18 -12 -25 -13
-23 -4 2 7 -12 17 -32 22 -19 5 -42 16 -51 24 -8 8 -23 14 -32 14 -28 0 -122
58 -126 77 -2 10 -7 23 -12 29 -18 22 -6 76 18 87 13 6 23 14 23 18 0 6 -122
69 -134 69 -2 0 -7 -7 -10 -16z"/>
<path d="M307 938 c-7 -21 14 -68 30 -68 12 0 13 3 4 14 -6 7 -12 25 -13 40
-2 27 -13 35 -21 14z"/>
<path d="M356 769 c-8 -19 9 -69 25 -69 8 0 8 4 1 13 -6 6 -12 26 -14 42 -3
22 -6 26 -12 14z"/>
<path d="M400 588 c0 -28 13 -58 25 -58 9 0 10 8 1 35 -11 34 -26 48 -26 23z"/>
<path d="M1 449 c-1 -19 14 -89 32 -155 19 -65 45 -158 58 -207 13 -48 27 -87
32 -87 5 0 6 8 3 18 -5 17 -83 312 -110 412 -13 51 -14 52 -15 19z"/>
<path d="M1947 389 c-46 -26 -283 -55 -527 -64 -91 -3 -196 -13 -235 -22 -71
-16 -151 -50 -141 -60 3 -3 17 2 30 11 47 30 155 47 369 56 115 5 238 12 271
15 84 9 244 44 252 56 9 15 1 19 -19 8z"/>
<path d="M874 115 c11 -8 27 -15 35 -15 10 1 7 6 -9 15 -33 19 -50 18 -26 0z"/>
</g>
</svg>
