<svg width="24" height="24" viewBox="0 0 24 24" fill="none" xmlns="http://www.w3.org/2000/svg">
<path fill-rule="evenodd" clip-rule="evenodd" d="M15 3H9C7.56687 3 6.6123 3.00156 5.87887 3.06148C5.1688 3.11949 4.84387 3.2221 4.63803 3.32698C4.07354 3.6146 3.6146 4.07354 3.32698 4.63803C3.2221 4.84387 3.11949 5.1688 3.06148 5.87887C3.00156 6.6123 3 7.56687 3 9V15C3 16.4331 3.00156 17.3877 3.06148 18.1211C3.11949 18.8312 3.2221 19.1561 3.32698 19.362C3.6146 19.9265 4.07354 20.3854 4.63803 20.673C4.69203 20.7005 4.75423 20.7279 4.82943 20.7543L14.498 10.6462C15.5811 9.51399 17.353 9.40586 18.5657 10.398L21 12.3897V9C21 7.56687 20.9984 6.6123 20.9385 5.87887C20.8805 5.1688 20.7779 4.84387 20.673 4.63803C20.3854 4.07354 19.9265 3.6146 19.362 3.32698C19.1561 3.2221 18.8312 3.11949 18.1211 3.06148C17.3877 3.00156 16.4331 3 15 3ZM9 21C8.37088 21 7.83398 20.9997 7.36752 20.9943L15.9433 12.0287C16.3043 11.6513 16.895 11.6152 17.2992 11.9459L21 14.9739V15C21 16.4331 20.9984 17.3877 20.9385 18.1211C20.8805 18.8312 20.7779 19.1561 20.673 19.362C20.3854 19.9265 19.9265 20.3854 19.362 20.673C19.1561 20.7779 18.8312 20.8805 18.1211 20.9385C17.3877 20.9984 16.4331 21 15 21H9ZM23 15V14.5086V14.4926V9C23 6.19974 23 4.79961 22.455 3.73005C21.9757 2.78924 21.2108 2.02433 20.27 1.54497C19.2004 1 17.8003 1 15 1H9C6.19974 1 4.79961 1 3.73005 1.54497C2.78924 2.02433 2.02433 2.78924 1.54497 3.73005C1 4.79961 1 6.19974 1 9V15C1 17.8003 1 19.2004 1.54497 20.27C2.02433 21.2108 2.78924 21.9757 3.73005 22.455C4.79961 23 6.19974 23 9 23H15C17.8003 23 19.2004 23 20.27 22.455C21.2108 21.9757 21.9757 21.2108 22.455 20.27C23 19.2004 23 17.8003 23 15ZM7 8.5C7 7.67157 7.67157 7 8.5 7C9.32843 7 10 7.67157 10 8.5C10 9.32843 9.32843 10 8.5 10C7.67157 10 7 9.32843 7 8.5ZM8.5 5C6.567 5 5 6.567 5 8.5C5 10.433 6.567 12 8.5 12C10.433 12 12 10.433 12 8.5C12 6.567 10.433 5 8.5 5Z" fill="#979797"/>
</svg>
