<svg width="20" height="20" viewBox="0 0 20 20" fill="none" xmlns="http://www.w3.org/2000/svg">
<path d="M8.29331 5.20841C7.9351 5.20835 7.6002 5.2083 7.3266 5.24917C7.01752 5.29535 6.7 5.4045 6.44619 5.68651C6.20086 5.95909 6.11425 6.28392 6.0767 6.5942C6.04161 6.88422 6.04164 7.24373 6.04167 7.6497L6.04167 8.12508C6.04167 8.47026 6.32149 8.75008 6.66667 8.75008C7.01185 8.75008 7.29167 8.47026 7.29167 8.12508V7.68527C7.29167 7.23284 7.29275 6.95018 7.31765 6.74435C7.32934 6.64779 7.34394 6.59215 7.35575 6.56026C7.36571 6.53335 7.37283 6.52546 7.37519 6.52284L7.37587 6.52206C7.377 6.52069 7.37784 6.51969 7.38535 6.51625C7.3992 6.50992 7.43474 6.49689 7.51128 6.48546C7.68137 6.46005 7.92093 6.45841 8.33333 6.45841H9.375V13.5417H7.91667C7.57149 13.5417 7.29167 13.8216 7.29167 14.1667C7.29167 14.5119 7.57149 14.7917 7.91667 14.7917H12.5C12.8452 14.7917 13.125 14.5119 13.125 14.1667C13.125 13.8216 12.8452 13.5417 12.5 13.5417H10.625V6.45841H11.6667C12.0791 6.45841 12.3186 6.46005 12.4887 6.48546C12.5653 6.49689 12.6008 6.50992 12.6146 6.51625C12.6222 6.51969 12.623 6.52069 12.6241 6.52206L12.6247 6.52272C12.6271 6.52534 12.6343 6.53335 12.6443 6.56026C12.6561 6.59215 12.6707 6.64779 12.6824 6.74435C12.7073 6.95018 12.7083 7.23284 12.7083 7.68527V8.12508C12.7083 8.47026 12.9882 8.75008 13.3333 8.75008C13.6785 8.75008 13.9583 8.47026 13.9583 8.12508L13.9583 7.64969C13.9584 7.24373 13.9584 6.88421 13.9233 6.5942C13.8858 6.28392 13.7991 5.9591 13.5538 5.68651C13.3 5.4045 12.9825 5.29535 12.6734 5.24917C12.3998 5.2083 12.0649 5.20835 11.7067 5.20841H8.29331Z" fill="#2C2D3A"/>
<path fill-rule="evenodd" clip-rule="evenodd" d="M9.95219 1.04175C8.02852 1.04174 6.52099 1.04173 5.34476 1.19987C4.14081 1.36174 3.19079 1.69952 2.44511 2.4452C1.69944 3.19087 1.36166 4.14089 1.19979 5.34484C1.04165 6.52107 1.04166 8.0286 1.04167 9.95227V10.0479C1.04166 11.9716 1.04165 13.4791 1.19979 14.6553C1.36166 15.8593 1.69944 16.8093 2.44511 17.555C3.19079 18.3006 4.14081 18.6384 5.34476 18.8003C6.521 18.9584 8.02853 18.9584 9.95219 18.9584H10.0478C11.9715 18.9584 13.479 18.9584 14.6552 18.8003C15.8592 18.6384 16.8092 18.3006 17.5549 17.555C18.3006 16.8093 18.6383 15.8593 18.8002 14.6553C18.9584 13.4791 18.9583 11.9716 18.9583 10.0479V9.95227C18.9583 8.02861 18.9584 6.52108 18.8002 5.34484C18.6383 4.14089 18.3006 3.19087 17.5549 2.4452C16.8092 1.69952 15.8592 1.36174 14.6552 1.19987C13.479 1.04173 11.9715 1.04174 10.0478 1.04175H9.95219ZM3.329 3.32908C3.80371 2.85436 4.44598 2.58195 5.51132 2.43872C6.59463 2.29308 8.01815 2.29175 10 2.29175C11.9819 2.29175 13.4054 2.29308 14.4887 2.43872C15.554 2.58195 16.1963 2.85436 16.671 3.32908C17.1457 3.80379 17.4181 4.44606 17.5614 5.5114C17.707 6.59471 17.7083 8.01823 17.7083 10.0001C17.7083 11.9819 17.707 13.4055 17.5614 14.4888C17.4181 15.5541 17.1457 16.1964 16.671 16.6711C16.1963 17.1458 15.554 17.4182 14.4887 17.5614C13.4054 17.7071 11.9819 17.7084 10 17.7084C8.01815 17.7084 6.59463 17.7071 5.51132 17.5614C4.44598 17.4182 3.80371 17.1458 3.329 16.6711C2.85428 16.1964 2.58187 15.5541 2.43864 14.4888C2.293 13.4055 2.29167 11.9819 2.29167 10.0001C2.29167 8.01823 2.293 6.59471 2.43864 5.5114C2.58187 4.44606 2.85428 3.80379 3.329 3.32908Z" fill="#2C2D3A"/>
</svg>
