<svg width="18" height="18" viewBox="0 0 18 18" fill="none" xmlns="http://www.w3.org/2000/svg">
<path d="M3.15303 11.25C2.57871 11.6913 2.25 12.2036 2.25 12.75C2.25 14.4069 5.27208 15.75 9 15.75C12.7279 15.75 15.75 14.4069 15.75 12.75C15.75 12.2036 15.4213 11.6913 14.847 11.25M9 4.875V8.625M7.125 6.75H10.875M13.5 6.91667C13.5 9.494 11.4853 11.5833 9 12.75C6.51472 11.5833 4.5 9.494 4.5 6.91667C4.5 4.33934 6.51472 2.25 9 2.25C11.4853 2.25 13.5 4.33934 13.5 6.91667Z" stroke="#FF8200" stroke-linecap="round" stroke-linejoin="round"/>
</svg>
