<svg width="20" height="20" viewBox="0 0 20 20" fill="none" xmlns="http://www.w3.org/2000/svg">
<path d="M4.55806 10.442C4.31398 10.1979 4.31398 9.80222 4.55806 9.55814L6.22472 7.89147C6.4688 7.6474 6.86453 7.6474 7.10861 7.89147C7.35268 8.13555 7.35268 8.53128 7.10861 8.77536L6.50888 9.37508L12.5 9.37508C12.8452 9.37508 13.125 9.6549 13.125 10.0001C13.125 10.3453 12.8452 10.6251 12.5 10.6251L6.50888 10.6251L7.10861 11.2248C7.35268 11.4689 7.35268 11.8646 7.10861 12.1087C6.86453 12.3528 6.4688 12.3528 6.22472 12.1087L4.55806 10.442Z" fill="#F44336"/>
<path fill-rule="evenodd" clip-rule="evenodd" d="M11.6211 1.04175H12.5459C13.6856 1.04173 14.6042 1.04172 15.3266 1.13885C16.0767 1.2397 16.7083 1.45544 17.2099 1.95704C17.7115 2.45864 17.9272 3.0902 18.0281 3.84029C18.1252 4.56276 18.1252 5.48136 18.1252 6.62103V13.3791C18.1252 14.5188 18.1252 15.4374 18.0281 16.1599C17.9272 16.91 17.7115 17.5415 17.2099 18.0431C16.7083 18.5447 16.0767 18.7605 15.3266 18.8613C14.6042 18.9584 13.6856 18.9584 12.5459 18.9584H11.6211C10.4815 18.9584 9.56286 18.9584 8.84038 18.8613C8.0903 18.7605 7.45873 18.5447 6.95714 18.0431C6.62469 17.7107 6.41723 17.3204 6.28587 16.8749C5.49306 16.8739 4.83255 16.8652 4.2974 16.7932C3.66078 16.7076 3.10883 16.5224 2.66825 16.0818C2.22767 15.6413 2.04244 15.0893 1.95685 14.4527C1.87496 13.8436 1.87498 13.0722 1.875 12.1282V7.87201C1.87498 6.92799 1.87496 6.15653 1.95685 5.54749C2.04244 4.91086 2.22767 4.35891 2.66825 3.91833C3.10883 3.47776 3.66078 3.29252 4.2974 3.20693C4.83255 3.13498 5.49306 3.12626 6.28587 3.12522C6.41723 2.67976 6.62469 2.28949 6.95714 1.95704C7.45873 1.45544 8.0903 1.2397 8.84039 1.13885C9.56286 1.04172 10.4815 1.04173 11.6211 1.04175ZM6.0433 14.1702C6.04629 14.7073 6.05516 15.1911 6.0857 15.6243C5.39029 15.6216 4.87333 15.6094 4.46396 15.5544C3.96595 15.4874 3.72175 15.3676 3.55213 15.1979C3.38252 15.0283 3.26266 14.7841 3.1957 14.2861C3.12633 13.7701 3.125 13.0832 3.125 12.0834V7.91675C3.125 6.91699 3.12633 6.23004 3.1957 5.71405C3.26266 5.21603 3.38252 4.97184 3.55213 4.80222C3.72175 4.6326 3.96595 4.51274 4.46396 4.44578C4.87333 4.39075 5.3903 4.37854 6.0857 4.37584C6.05516 4.80903 6.04629 5.29282 6.0433 5.82994C6.04138 6.17511 6.31964 6.45648 6.66481 6.45841C7.00999 6.46033 7.29136 6.18207 7.29328 5.83689C7.29836 4.92565 7.32202 4.27974 7.41206 3.78954C7.49883 3.3172 7.63814 3.0438 7.84102 2.84092C8.07166 2.61029 8.39547 2.45992 9.00695 2.37771C9.6364 2.29308 10.4707 2.29175 11.6668 2.29175H12.5002C13.6964 2.29175 14.5306 2.29308 15.1601 2.37771C15.7716 2.45992 16.0954 2.61029 16.326 2.84092C16.5566 3.07156 16.707 3.39537 16.7892 4.00685C16.8739 4.63631 16.8752 5.47057 16.8752 6.66675V13.3334C16.8752 14.5296 16.8739 15.3639 16.7892 15.9933C16.707 16.6048 16.5566 16.9286 16.326 17.1592C16.0954 17.3899 15.7716 17.5402 15.1601 17.6225C14.5306 17.7071 13.6964 17.7084 12.5002 17.7084H11.6668C10.4707 17.7084 9.6364 17.7071 9.00695 17.6225C8.39547 17.5402 8.07166 17.3899 7.84102 17.1592C7.63814 16.9564 7.49883 16.683 7.41206 16.2106C7.32202 15.7204 7.29836 15.0745 7.29328 14.1633C7.29136 13.8181 7.00999 13.5398 6.66481 13.5418C6.31964 13.5437 6.04138 13.8251 6.0433 14.1702Z" fill="#F44336"/>
</svg>
