<svg width="66" height="67" viewBox="0 0 66 67" fill="none" xmlns="http://www.w3.org/2000/svg">
<g filter="url(#filter0_d_0_7115)">
<rect x="12" y="8.5" width="42" height="42" rx="21" fill="url(#paint0_linear_0_7115)" shape-rendering="crispEdges"/>
<path d="M30.5627 24.8958C30.5627 24.4471 30.1989 24.0833 29.7502 24.0833H28.4675H26.8235C27.2216 21.0269 29.8353 18.6666 33.0002 18.6666C36.1651 18.6666 38.7787 21.0269 39.1768 24.0833H37.5329L34.6252 24.0833C34.1764 24.0833 33.8127 24.4471 33.8127 24.8958C33.8127 25.3445 34.1764 25.7083 34.6252 25.7083L37.6043 25.7083H39.2293V27.3333H37.6043H34.6252C34.1764 27.3333 33.8127 27.6971 33.8127 28.1458C33.8127 28.5945 34.1764 28.9583 34.6252 28.9583H37.5329H39.1768C38.7787 32.0147 36.1651 34.375 33.0002 34.375C29.8353 34.375 27.2216 32.0147 26.8235 28.9583H28.4675H29.7502C30.1989 28.9583 30.5627 28.5945 30.5627 28.1458C30.5627 27.6971 30.1989 27.3333 29.7502 27.3333H28.396H26.771V25.7083H28.396H29.7502C30.1989 25.7083 30.5627 25.3445 30.5627 24.8958Z" fill="white"/>
<path fill-rule="evenodd" clip-rule="evenodd" d="M24.3335 26.25C24.7822 26.25 25.146 26.6137 25.146 27.0625V28.1458C25.146 32.4835 28.6624 36 33.0002 36C37.3379 36 40.8543 32.4835 40.8543 28.1458V27.0625C40.8543 26.6137 41.2181 26.25 41.6668 26.25C42.1156 26.25 42.4793 26.6137 42.4793 27.0625V28.1458C42.4793 33.1073 38.6675 37.1785 33.8127 37.5906V40.0625C33.8127 40.5112 33.4489 40.875 33.0002 40.875C32.5514 40.875 32.1877 40.5112 32.1877 40.0625V37.5906C27.3328 37.1785 23.521 33.1073 23.521 28.1458V27.0625C23.521 26.6137 23.8848 26.25 24.3335 26.25Z" fill="white"/>
</g>
<defs>
<filter id="filter0_d_0_7115" x="0" y="0.5" width="66" height="66" filterUnits="userSpaceOnUse" color-interpolation-filters="sRGB">
<feFlood flood-opacity="0" result="BackgroundImageFix"/>
<feColorMatrix in="SourceAlpha" type="matrix" values="0 0 0 0 0 0 0 0 0 0 0 0 0 0 0 0 0 0 127 0" result="hardAlpha"/>
<feOffset dy="4"/>
<feGaussianBlur stdDeviation="6"/>
<feComposite in2="hardAlpha" operator="out"/>
<feColorMatrix type="matrix" values="0 0 0 0 0.0509804 0 0 0 0 0.0392157 0 0 0 0 0.172549 0 0 0 0.06 0"/>
<feBlend mode="normal" in2="BackgroundImageFix" result="effect1_dropShadow_0_7115"/>
<feBlend mode="normal" in="SourceGraphic" in2="effect1_dropShadow_0_7115" result="shape"/>
</filter>
<linearGradient id="paint0_linear_0_7115" x1="12" y1="8.5" x2="52.7604" y2="38.4865" gradientUnits="userSpaceOnUse">
<stop stop-color="#40C4FF"/>
<stop offset="1" stop-color="#03A9F4"/>
</linearGradient>
</defs>
</svg>
