<svg width="41" height="40" viewBox="0 0 41 40" fill="none" xmlns="http://www.w3.org/2000/svg">
<path d="M41 30L40 26.1062L32.3532 27.0015L29.2172 30.4037L5.49997 26.1062L-3.05176e-05 30.4037L23.2935 39.536L41 30Z" fill="#4E4E55" fill-opacity="0.1"/>
<path d="M22.173 16.4385V34.589L40.1935 25.9366L39.9983 8.30652L22.173 16.4385Z" fill="#FFC088"/>
<path d="M20.462 5.12535C20.1953 4.66345 20.1758 4.63743 19.6683 4.40323C19.265 4.20806 19.0633 4.15602 18.7706 4.14951C18.5689 4.14301 18.3022 4.18204 18.1916 4.23409C18.0745 4.27962 17.9118 4.39022 17.8403 4.47479C17.7622 4.55936 17.58 4.8391 17.4304 5.08632C17.2548 5.38557 17.1637 5.61977 17.1637 5.7694C17.1637 5.92554 17.2613 6.15323 17.4825 6.51754C17.6581 6.80379 17.8793 7.10955 17.9769 7.20063C18.1395 7.35676 18.1916 7.36327 18.9202 7.36327C19.5968 7.36327 19.7139 7.35026 19.8765 7.22665C19.9741 7.15509 20.2148 6.84282 20.4035 6.54357C20.6247 6.19226 20.7418 5.92554 20.7418 5.80193C20.7418 5.69133 20.6182 5.39208 20.462 5.12535Z" fill="#CDD0DE"/>
<path d="M14.5289 5.37907C14.5029 5.25546 14.3988 5.0733 14.3012 4.97572C14.1451 4.82609 14.0605 4.79357 13.7873 4.79357C13.4945 4.79357 13.4295 4.81959 13.2278 5.02126C13.0327 5.21643 13.0001 5.28799 13.0327 5.79542L13.5336 6.01011C14.0085 6.21178 14.054 6.21829 14.2037 6.12721C14.2947 6.07516 14.4118 5.93204 14.4704 5.82145C14.5419 5.67182 14.5615 5.5352 14.5289 5.37907Z" fill="#CDD0DE"/>
<path d="M16.4611 6.97293C16.4741 6.84282 16.4546 6.6997 16.4286 6.64765C16.4025 6.59561 16.3245 6.55007 16.2659 6.55007C16.1683 6.55007 16.1683 6.56308 16.2529 6.61513C16.3375 6.67368 16.3375 6.68669 16.2529 6.74524C16.1879 6.78861 16.1814 6.81029 16.2334 6.81029C16.2854 6.81029 16.318 6.89487 16.318 7.00546C16.318 7.11606 16.344 7.20063 16.383 7.20063C16.4221 7.20063 16.4546 7.09654 16.4611 6.97293Z" fill="#CDD0DE"/>
<path d="M16.0577 7.10304C16.0968 7.12256 16.1228 7.051 16.1228 6.94041C16.1228 6.79078 16.0968 6.74524 15.9927 6.74524C15.9211 6.74524 15.8626 6.77777 15.8626 6.81029C15.8626 6.84282 15.8886 6.87535 15.9276 6.87535C15.9667 6.87535 15.9927 6.92089 15.9927 6.97293C15.9927 7.02498 16.0187 7.08353 16.0577 7.10304Z" fill="#CDD0DE"/>
<path d="M8.3486 10.356L6.56607 9.56879L4.78355 8.78162L4.75752 9.56879C4.75102 10.0047 4.75102 10.3625 4.76403 10.3755C4.78355 10.382 5.59024 10.382 8.3486 10.356Z" fill="#CE844D"/>
<path d="M20.0977 4.48795C20.0717 4.42289 19.9416 4.3188 19.8245 4.26025C19.7009 4.1952 19.4992 4.14966 19.3756 4.14966C19.1609 4.15616 19.1674 4.16267 19.6033 4.37085C19.857 4.49445 20.0782 4.59204 20.1107 4.59854C20.1368 4.59854 20.1303 4.5465 20.0977 4.48795Z" fill="#B3BFDD"/>
<path d="M11.8291 6.22494V5.80207L11.8226 5.37271L11.6275 5.4768C11.4518 5.56787 11.4323 5.60691 11.4388 5.89966C11.4388 6.21843 11.4453 6.22494 11.8291 6.22494Z" fill="#B3BFDD"/>
<path d="M12.818 5.97122C12.831 5.77605 12.7985 5.69799 12.7074 5.65245C12.6358 5.61341 12.5448 5.58089 12.4992 5.58089C12.4472 5.58089 12.4212 5.67847 12.4342 5.88665C12.4472 6.17289 12.4667 6.19891 12.6293 6.21193C12.7985 6.23144 12.8115 6.21193 12.818 5.97122Z" fill="#B3BFDD"/>
<path d="M11.2111 6.0688C11.2241 6.02977 11.2241 5.93869 11.2046 5.86062C11.1721 5.72401 11.1591 5.7175 10.9639 5.80207C10.8533 5.84761 10.6126 5.95821 10.437 6.04929C10.1637 6.1859 10.1312 6.21843 10.2418 6.25747C10.3133 6.27698 10.502 6.28349 10.6646 6.27048C10.8208 6.25096 11.0094 6.21193 11.068 6.1859C11.133 6.15338 11.1981 6.10133 11.2111 6.0688Z" fill="#B3BFDD"/>
<path d="M13.9825 6.24445C13.9825 6.21843 13.7938 6.12085 13.5726 6.02326C13.3514 5.92568 13.1433 5.84761 13.1172 5.84761C13.0912 5.84111 13.0652 5.86062 13.0652 5.88665C13.0652 5.91267 13.1172 5.98423 13.1823 6.03628C13.2474 6.09483 13.3775 6.17289 13.4751 6.21843C13.5726 6.25746 13.7288 6.2965 13.8199 6.2965C13.9044 6.2965 13.9825 6.27048 13.9825 6.24445Z" fill="#B3BFDD"/>
<path d="M15.16 7.04464C15.199 7.2333 15.199 7.2333 15.212 6.9926L15.2186 6.75189L14.5355 6.78442L14.5225 7.01211C14.5094 7.2333 14.5094 7.2333 14.555 7.04464C14.581 6.93404 14.6396 6.84947 14.6981 6.84947C14.7567 6.84947 14.8022 6.92754 14.8477 7.23981L14.8868 7.04464C14.9063 6.93404 14.9648 6.84947 15.0234 6.84947C15.0754 6.84947 15.134 6.93404 15.16 7.04464Z" fill="#B3BFDD"/>
<path d="M15.4918 7.1162C15.4528 7.09018 15.4267 7.01211 15.4397 6.94055C15.4593 6.86899 15.4397 6.81044 15.4072 6.81044C15.3747 6.81044 15.3357 6.84297 15.3161 6.87549C15.2966 6.91453 15.3096 6.9991 15.3487 7.07066C15.3812 7.14222 15.4658 7.20728 15.5243 7.20728C15.5894 7.20728 15.6804 7.16825 15.7195 7.12271C15.765 7.07717 15.778 7.01862 15.752 6.9926C15.726 6.96657 15.6739 6.99259 15.6414 7.05115C15.6024 7.1097 15.5373 7.14222 15.4918 7.1162Z" fill="#B3BFDD"/>
<path d="M21.5877 1.15051L21.2429 1.1375H21.2494C20.9631 1.11798 20.8005 1.16352 20.3191 1.38471C20.0003 1.53434 19.057 1.97021 18.2243 2.36055C17.3916 2.75088 16.715 3.08267 16.7085 3.10218C16.7085 3.1217 17.0858 3.29084 17.5412 3.48601C17.9966 3.68118 18.517 3.90887 18.6927 3.99345C18.9009 4.09103 19.1351 4.14307 19.3433 4.14307C19.5579 4.14307 19.7401 4.18861 19.8832 4.27319C19.9938 4.34475 20.1109 4.45534 20.1304 4.5204C20.1499 4.58545 20.4362 4.74809 20.846 4.92374C21.2234 5.08638 21.5486 5.223 21.5747 5.23601C21.6007 5.24252 21.6137 4.32523 21.5877 1.15051Z" fill="#D1E0F8"/>
<path d="M12.4083 5.9191C12.4083 5.56129 12.3953 5.53527 12.1936 5.43118C12.083 5.37263 11.9594 5.33359 11.9204 5.3401C11.8814 5.34661 11.8488 5.5678 11.8228 6.28991H11.6276C11.4325 6.28991 11.4325 6.28341 11.4325 5.93211C11.4325 5.59382 11.426 5.58081 11.3024 5.63936C11.1983 5.6914 11.1853 5.73043 11.2373 5.83452C11.2763 5.90609 11.3024 5.99716 11.3024 6.02969C11.3024 6.06222 11.1788 6.14029 11.0226 6.19884C10.8405 6.26823 10.6301 6.29208 10.3916 6.2704C10.0423 6.23806 10.0017 6.25716 7.43169 7.46546L7.38601 7.48694C5.93526 8.17003 4.76426 8.74902 4.78377 8.77505C4.8098 8.80107 5.08954 8.93768 5.41482 9.0743C5.7401 9.21742 6.61835 9.59475 7.36649 9.92653C8.11463 10.2518 8.74567 10.5185 8.76519 10.5185C8.7847 10.5185 8.75218 10.486 8.70013 10.4535C8.63508 10.4145 10.6063 10.3949 14.0802 10.3884C17.0988 10.3884 19.5644 10.4079 19.5644 10.4405C19.5644 10.4665 19.8117 10.4925 20.1174 10.5055C20.4557 10.512 20.6704 10.4925 20.6704 10.4535C20.6704 10.4145 20.7159 10.3884 20.768 10.3884C20.82 10.3884 20.8656 10.4079 20.8656 10.4405C20.8656 10.4665 21.0347 10.4795 21.2429 10.4795C21.4576 10.473 21.6332 10.499 21.6592 10.5446C21.6983 10.5966 21.7113 10.5901 21.7113 10.5381C21.7113 10.473 21.8349 10.46 22.1602 10.473C22.4074 10.4795 22.596 10.4665 22.583 10.4405C22.57 10.4079 22.3293 10.3884 22.0496 10.3819C21.7763 10.3819 21.5877 10.3689 21.6267 10.3494C21.6723 10.3364 21.7113 10.2973 21.7113 10.2583C21.7113 10.2193 21.6853 10.2063 21.6462 10.2258C21.6072 10.2453 21.5812 10.1152 21.5812 9.90051C21.5812 9.63378 21.6007 9.55571 21.6592 9.58174C21.7156 9.6121 21.7221 9.60559 21.6788 9.56222C21.6397 9.52319 20.3841 8.96371 18.8814 8.31965C17.3786 7.6691 16.1425 7.16817 16.136 7.2007C16.123 7.23973 16.0905 7.26575 16.0514 7.26575C16.0124 7.26575 15.9734 7.2007 15.9278 6.973L15.7587 7.13564C15.6156 7.27876 15.5765 7.29177 15.4334 7.22021C15.3293 7.16817 15.2578 7.16166 15.2382 7.2007C15.2187 7.23322 15.1797 7.26575 15.1407 7.26575C15.1016 7.26575 15.0756 7.18118 15.0756 7.07058C15.0756 6.95999 15.0496 6.87542 15.0105 6.87542C14.9715 6.87542 14.939 6.95348 14.9325 7.05107C14.9195 7.14215 14.8739 7.23322 14.8349 7.24623C14.7828 7.25925 14.7503 7.19419 14.7503 7.07058C14.7503 6.95999 14.7243 6.87542 14.6853 6.87542C14.6462 6.87542 14.6137 6.95348 14.6072 7.05107C14.5942 7.14215 14.5486 7.23322 14.5096 7.24623C14.4511 7.25925 14.425 7.18768 14.425 7.05757C14.4185 6.94047 14.4641 6.80386 14.5226 6.76482C14.5747 6.71928 14.6723 6.69326 14.7373 6.71278C14.7959 6.72579 14.8869 6.71928 14.9325 6.69326C14.978 6.66724 14.8479 6.57616 14.5747 6.46557C14.2884 6.34846 14.0022 6.2769 13.7615 6.2704C13.4687 6.25739 13.3581 6.22486 13.228 6.09475C13.1304 6.00367 13.0589 5.89307 13.0589 5.85404C13.0589 5.8085 13.0459 5.76947 13.0263 5.76947C13.0068 5.76947 12.9548 5.75646 12.9157 5.73694C12.8572 5.71092 12.8312 5.78248 12.8312 5.97765C12.8312 6.24438 12.8247 6.25739 12.4083 6.28991V5.9191Z" fill="#D1E0F8"/>
<path d="M23.1881 10.4795C23.3962 10.4535 23.5784 10.4275 23.5979 10.4079C23.6174 10.3949 23.4483 10.3884 23.2206 10.4014C22.9929 10.4079 22.8107 10.4405 22.8172 10.4665C22.8172 10.499 22.9864 10.499 23.1881 10.4795Z" fill="#D1E0F8"/>
<path d="M4.8098 24.5446C4.74474 24.486 4.72523 23.0158 4.71221 17.4145L4.6992 10.3559L4.68619 17.512C4.67969 21.4479 4.68619 24.6747 4.6992 24.6877C4.71872 24.6942 4.77077 24.6812 4.8098 24.6617C4.87485 24.6291 4.87485 24.6096 4.8098 24.5446Z" fill="#D1E0F8"/>
<path d="M21.6462 16.2109C21.6853 16.2304 21.7113 16.1329 21.7113 15.9832C21.7113 15.8401 21.6853 15.723 21.6527 15.723C21.6202 15.723 21.5877 15.8271 21.5877 15.9507C21.5812 16.0743 21.6072 16.1914 21.6462 16.2109Z" fill="#D1E0F8"/>
<path d="M31.0273 21.7342C31.0533 21.7211 31.0793 21.5585 31.0793 21.3829C31.0793 21.2007 31.0533 21.0576 31.0273 21.0576C31.0012 21.0576 30.9817 21.2137 30.9817 21.4089C30.9817 21.604 31.0012 21.7472 31.0273 21.7342Z" fill="#D1E0F8"/>
<path d="M12.6228 6.2769C12.8244 6.25738 12.8374 6.24437 12.8439 5.99716L12.8505 5.73694L12.8309 5.98415C12.8049 6.20534 12.7919 6.22486 12.6097 6.21185C12.5057 6.19883 12.4146 6.21185 12.4146 6.24437C12.4146 6.2704 12.5122 6.28341 12.6228 6.2769Z" fill="#C9D7F1"/>
<path d="M14.8216 7.01854C14.7956 6.82988 14.8086 6.80385 14.9843 6.75181C15.1664 6.69976 15.1599 6.69326 14.8867 6.69976C14.7241 6.69976 14.5549 6.73229 14.5094 6.77132C14.4638 6.81036 14.4313 6.94047 14.4313 7.05757C14.4313 7.18768 14.4638 7.25924 14.5159 7.24623C14.5614 7.23322 14.6005 7.14214 14.6135 7.05106C14.62 6.95348 14.659 6.87541 14.6915 6.87541C14.7306 6.87541 14.7566 6.95999 14.7566 7.07058C14.7566 7.19419 14.7891 7.25924 14.8412 7.24623C14.8867 7.23322 14.9257 7.14214 14.9387 7.05106C14.9452 6.95348 14.9843 6.87541 15.0168 6.87541C15.0558 6.87541 15.0819 6.95999 15.0819 7.07058C15.0819 7.18118 15.1144 7.26575 15.1469 7.26575C15.186 7.26575 15.225 7.23322 15.2445 7.20069C15.264 7.16817 15.3096 7.14865 15.3421 7.16817C15.3855 7.18985 15.3855 7.15732 15.3421 7.07058C15.3096 6.99902 15.29 6.89493 15.3096 6.84289C15.3291 6.79084 15.3161 6.7453 15.277 6.7453C15.2445 6.7453 15.212 6.8559 15.2055 6.99251C15.199 7.22672 15.199 7.22672 15.1534 7.03805C15.1339 6.92746 15.0754 6.84289 15.0168 6.84289C14.9648 6.84289 14.9062 6.92746 14.8477 7.23322L14.8216 7.01854Z" fill="#C9D7F1"/>
<path d="M26.935 14.2983C26.9415 14.2657 26.909 14.2202 26.857 14.2072C26.8049 14.1877 26.5317 14.1682 26.2584 14.1682C25.9722 14.1617 25.6795 14.2007 25.5819 14.2462C25.4908 14.2853 25.3086 14.4999 25.172 14.7146L25.1718 14.7149C25.0418 14.9295 24.9118 15.144 24.8858 15.1895C24.8597 15.2286 25.0679 15.1635 25.3477 15.0334C25.6209 14.9098 26.0893 14.7016 26.3886 14.578C26.6813 14.4544 26.9285 14.3308 26.935 14.2983Z" fill="#C9D7F1"/>
<path d="M30.9882 9.302L26.4018 7.3113C23.8776 6.21836 21.7958 5.32059 21.7633 5.32059C21.7373 5.31408 21.7242 6.2704 21.7503 9.55572L23.6694 10.3884H30.9557L30.9882 9.302Z" fill="white"/>
<path d="M33.2716 10.3364C33.2456 10.3104 32.7512 10.0827 32.1722 9.82245C31.5932 9.56873 31.1118 9.35405 31.0988 9.35405C31.0923 9.34754 31.0858 9.58174 31.0858 10.3884H32.2047C32.8163 10.3884 33.2977 10.3689 33.2716 10.3364Z" fill="white"/>
<path d="M34.4557 10.8764C34.4687 10.8373 34.319 10.7462 34.1304 10.6682C33.8116 10.5381 33.675 10.5251 31.0858 10.5185V11.4619C31.0858 12.3271 31.0923 12.4052 31.1964 12.3726C31.2614 12.3531 32.0161 12.0278 32.8748 11.644C33.7335 11.2537 34.4492 10.9089 34.4557 10.8764Z" fill="white"/>
<path d="M30.9557 12.5027V11.5074V10.5185H27.5272C25.6406 10.5185 24.1248 10.5446 24.1573 10.5706C24.1964 10.6031 25.4585 11.1626 26.9677 11.8066C28.4835 12.4572 29.7391 12.9907 29.7651 12.9907C29.7977 12.9907 30.0709 12.8801 30.9557 12.5027Z" fill="white"/>
<path d="M13.7484 20.5762C13.4231 20.4851 13.0913 20.4005 13.0003 20.381C12.9092 20.368 12.727 20.355 12.3497 20.3355V20.921C12.3497 21.3308 12.3237 21.5195 12.2651 21.539C12.2196 21.5585 12.2586 21.565 12.3497 21.565C12.4408 21.5585 12.6295 21.578 12.7726 21.604C12.9157 21.6301 13.3125 21.7342 13.6508 21.8382C13.9891 21.9423 14.5031 22.1635 14.7893 22.3262C15.0756 22.4888 15.4659 22.7425 15.6611 22.8856C15.8497 23.0353 16.1685 23.3345 16.3702 23.5492C16.5653 23.7704 16.8386 24.1087 16.9687 24.3039C17.0988 24.5055 17.3005 24.8373 17.4045 25.052C17.5151 25.2667 17.6778 25.683 17.7689 25.9628C17.8599 26.249 17.9705 26.6914 18.0096 26.9386C18.0551 27.1923 18.0811 27.6347 18.0811 27.9145C18.0746 28.2007 18.0616 28.591 18.0096 29.118H19.2456L19.2847 28.7472C19.3107 28.539 19.3107 27.9925 19.2912 27.5241C19.2651 26.9386 19.2001 26.4962 19.0895 26.0604C18.9984 25.7221 18.8488 25.2537 18.7577 25.0195C18.6666 24.7918 18.491 24.421 18.3674 24.2063C18.2503 23.9916 18.0161 23.6338 17.8534 23.4126C17.6583 23.1459 17.5282 23.0223 17.4696 23.0548C17.4176 23.0851 17.4067 23.0743 17.4371 23.0223C17.4696 22.9702 17.385 22.8271 17.2094 22.6449C17.0598 22.4823 16.7475 22.1895 16.5133 22.0009C16.2791 21.8122 15.9148 21.552 15.7001 21.4219C15.4854 21.2983 15.2837 21.2072 15.2577 21.2202C15.2317 21.2332 15.2122 21.2267 15.2122 21.2007C15.2122 21.1747 15.017 21.0576 14.7763 20.947C14.5291 20.8299 14.0672 20.6607 13.7484 20.5762Z" fill="white"/>
<path d="M39.9855 8.47584C40.0505 8.38476 38.9641 7.88383 31.1965 4.43587H31.203C26.3238 2.27602 22.2968 0.506506 22.2578 0.5C22.2123 0.5 21.887 0.636617 20.9046 1.11803L21.5877 1.15056V3.14777C21.5877 4.25372 21.6137 5.18401 21.6398 5.22305C21.6658 5.25558 24.1444 6.35502 27.15 7.65613C30.1556 8.95725 32.8228 10.1087 33.0701 10.2128C33.3238 10.3169 33.6751 10.4665 33.8507 10.5511C34.0329 10.6357 34.2671 10.7333 34.3712 10.7723C34.4883 10.8178 34.5403 10.8699 34.5013 10.9024C34.4688 10.9284 33.8247 11.2212 33.0701 11.5595C32.3219 11.8913 31.5282 12.2426 31.3136 12.3401C31.0989 12.4442 30.6825 12.6264 30.3898 12.7565C30.0905 12.8866 29.8238 12.9907 29.7847 12.9907C29.7522 12.9907 28.4511 12.4507 26.9093 11.7872C25.3609 11.1236 24.0143 10.5381 23.9232 10.4861C23.7866 10.4145 23.6695 10.408 23.3702 10.4535C23.1621 10.4926 22.9474 10.5186 22.9083 10.5186C22.8628 10.5186 22.8238 10.4991 22.8238 10.4665C22.8238 10.4405 22.9929 10.4145 23.1946 10.4015C23.4028 10.3885 23.5784 10.3755 23.5849 10.369C23.5914 10.3625 23.2076 10.1868 22.7392 9.98513C22.2643 9.77695 21.8154 9.5948 21.7373 9.57528C21.5942 9.54275 21.5877 9.56227 21.5877 9.90056C21.5877 10.1152 21.6137 10.2454 21.6528 10.2258C21.6918 10.2063 21.7178 10.2193 21.7178 10.2584C21.7178 10.2974 21.6788 10.3364 21.6398 10.3494C21.5942 10.369 21.7829 10.382 22.0626 10.382C22.3359 10.3885 22.5766 10.408 22.5896 10.434C22.6026 10.4665 22.4139 10.4796 22.1667 10.4665C21.8414 10.46 21.7178 10.473 21.7178 10.5316C21.7178 10.5901 21.7048 10.5967 21.6658 10.5446C21.6398 10.4991 21.4641 10.473 21.2494 10.4796C21.0412 10.4796 20.8721 10.4665 20.8721 10.434C20.8721 10.408 20.8266 10.3885 20.7745 10.3885C20.7225 10.3885 20.6769 10.4145 20.6769 10.4535C20.6769 10.4926 20.4622 10.5121 20.124 10.4991C19.8182 10.4926 19.571 10.4665 19.571 10.434C19.571 10.408 17.1054 10.3885 14.0933 10.3885C8.92136 10.3885 8.61559 10.395 8.77173 10.4991C8.86281 10.5641 9.35723 10.7983 9.87768 11.026C10.3981 11.2537 10.8535 11.4489 10.886 11.4554C10.9251 11.4619 11.1528 11.566 11.4065 11.6766C11.6602 11.7937 11.8749 11.8848 11.8944 11.8848C11.9139 11.8848 12.0896 11.9628 12.2847 12.0604C12.4799 12.1515 13.0394 12.4052 13.5208 12.6134C14.0022 12.8281 14.4316 13.0102 14.4641 13.0167C14.5031 13.0232 14.7308 13.1273 14.9846 13.2379C15.2383 13.355 15.4465 13.4461 15.4595 13.4461C15.466 13.4461 15.6937 13.5502 15.9604 13.6738C16.2271 13.7974 16.4873 13.9015 16.5329 13.9015C16.5784 13.9015 16.6435 13.9275 16.676 13.96C16.715 13.9926 17.0338 14.1422 17.3916 14.2918L17.4548 14.3194C17.807 14.4731 18.2718 14.6759 18.5171 14.7862C18.7708 14.9099 18.9985 15.0074 19.018 15.0074C19.0375 15.0074 19.2717 15.1115 19.5385 15.2351C19.8052 15.3587 20.0654 15.4628 20.111 15.4628C20.1565 15.4628 20.2215 15.4888 20.2541 15.5214C20.2931 15.5539 20.5989 15.7035 20.9372 15.8467C21.386 16.0353 21.5682 16.0874 21.5942 16.0288C21.6202 15.9898 21.6267 15.8987 21.6137 15.8336C21.6007 15.7751 21.6202 15.723 21.6528 15.723C21.6918 15.723 21.7243 15.8336 21.7373 15.9638C21.7504 16.1849 21.7764 16.2175 22.0106 16.302C22.2578 16.3931 22.2903 16.3866 22.6937 16.211C22.9279 16.1134 23.3182 15.9377 23.5719 15.8206C23.8256 15.71 24.1965 15.5409 24.4046 15.4563C24.7364 15.3197 24.8015 15.2546 25.0292 14.8773C25.1658 14.6431 25.3609 14.3894 25.465 14.3048C25.6277 14.1747 25.7253 14.1552 26.2262 14.1617C26.5385 14.1617 26.8442 14.1877 26.9093 14.2268C26.9938 14.2723 27.2346 14.1942 27.8981 13.895C28.3795 13.6803 28.8935 13.4461 29.0366 13.381L29.0593 13.3707C29.2028 13.3055 29.4144 13.2092 29.544 13.1599C29.7717 13.0623 29.7847 13.0623 29.7912 13.1664C29.7912 13.2314 29.7912 13.973 29.7847 14.8123C29.7847 15.6515 29.7652 17.6682 29.7197 22.2286L29.9018 22.1571C29.9994 22.118 30.2271 22.0204 30.4028 21.9294C30.5849 21.8448 30.7671 21.7732 30.8126 21.7732C30.8517 21.7732 30.9167 21.7212 30.9427 21.6561C30.9753 21.5976 30.9948 21.4349 30.9948 21.3048C30.9883 21.1682 31.0078 21.0576 31.0403 21.0576C31.0663 21.0576 31.0924 21.1877 31.1184 21.6366L31.7364 21.3764C32.0747 21.2333 32.4715 21.0641 32.6147 20.9991C32.7578 20.934 33.2587 20.7193 34.5663 20.1729L34.5989 10.9089L34.9567 10.7463C35.1518 10.6552 35.4706 10.5121 35.6593 10.4275C35.8414 10.3429 36.1667 10.1998 36.3749 10.1022C36.5766 10.0112 36.7587 9.93309 36.7782 9.93309C36.7978 9.93309 37.0254 9.8355 37.2857 9.7119C37.5394 9.58829 38.1054 9.33457 38.5347 9.15242C38.9641 8.96375 39.3479 8.7881 39.3805 8.76208C39.4195 8.73606 39.5496 8.68402 39.6732 8.64498C39.7968 8.60595 39.9399 8.52788 39.9855 8.47584Z" fill="#FFC088"/>
<path d="M22.1731 16.5688L30.175 12.9908L38.8924 8.89224L21.5225 0.890381L4.6731 8.82718L22.1731 16.5688Z" fill="#FFC088"/>
<path d="M40.1285 25.9693L40.135 17.2062V8.44324L39.6276 8.66443C39.3478 8.78803 38.1118 9.34101 34.6313 10.8958L34.5662 20.1728L32.8748 20.8949C31.9445 21.2852 31.1378 21.6431 31.0858 21.6756C31.0337 21.7081 30.9426 21.7406 30.8906 21.7536C30.8385 21.7602 30.6174 21.8447 30.4027 21.9423C30.188 22.0334 29.9473 22.1375 29.7196 22.2286L29.8172 13.0492L29.5244 13.1728C29.3618 13.2444 28.8218 13.4851 28.3209 13.7062C27.82 13.9274 27.332 14.1486 27.0523 14.2918L27.2084 14.5064C27.293 14.617 27.4426 14.8642 27.5402 15.0399C27.6768 15.2871 27.7094 15.4107 27.6768 15.5603C27.6508 15.6709 27.5207 15.9312 27.3906 16.1393C27.2605 16.3475 27.0783 16.5752 26.9872 16.6468C26.8571 16.7444 26.714 16.7704 26.2911 16.7639C25.9463 16.7639 25.6796 16.7313 25.556 16.6663C25.4389 16.6077 25.2633 16.4061 25.1201 16.1654C24.9835 15.9377 24.8599 15.6449 24.8079 15.2741L23.5393 15.8336C22.8432 16.1458 22.2642 16.3996 22.2577 16.3996C22.2447 16.4061 22.2382 20.4916 22.2382 25.4813C22.2447 30.4711 22.2512 34.5631 22.2577 34.5761C22.2642 34.5826 23.5848 33.9581 25.1982 33.1839C26.8051 32.4098 28.503 31.5901 28.9714 31.3689C29.4398 31.1477 30.3766 30.6923 31.0532 30.3605C31.7298 30.0287 32.6081 29.6059 33.0049 29.4172C33.4017 29.2286 34.3516 28.7667 35.1192 28.3958C35.8869 28.025 37.3311 27.3224 40.1285 25.9693Z" fill="#FFC088"/>
<path d="M21.4573 16.0874C21.3337 16.0288 18.3347 14.7082 14.7891 13.1664L8.3486 10.356L4.73801 10.3885L4.74451 17.4666C4.74451 22.9638 4.76403 24.5121 4.82258 24.421C4.86812 24.356 5.06329 24.0437 5.26496 23.7379C5.46663 23.4257 5.82444 22.9703 6.05213 22.7166C6.28633 22.4628 6.73522 22.066 7.05399 21.8253C7.37276 21.5911 7.86719 21.2788 8.15343 21.1357C8.43968 20.9926 8.90808 20.7974 9.19433 20.6998C9.48057 20.6022 9.90343 20.4851 10.1376 20.4331C10.3718 20.3876 10.8663 20.3225 11.2436 20.303C11.6599 20.277 12.1804 20.29 12.5772 20.3355C12.935 20.381 13.5205 20.5047 13.8783 20.6152C14.2361 20.7258 14.7631 20.9275 15.0493 21.0771C15.3356 21.2203 15.7194 21.4284 15.8951 21.5455C16.0772 21.6561 16.4285 21.9229 16.6822 22.1376C16.936 22.3457 17.2873 22.697 17.4629 22.9117C17.6451 23.1264 17.9053 23.4777 18.0549 23.6924C18.198 23.9071 18.4062 24.2649 18.5233 24.4926C18.6339 24.7138 18.7835 25.0651 18.8551 25.2732C18.9202 25.4749 19.0438 25.8652 19.1153 26.132C19.2064 26.4573 19.265 26.9126 19.291 27.4981C19.317 28.0641 19.304 28.5911 19.2454 28.9944C19.1999 29.3327 19.0633 29.9117 18.9462 30.2825C18.8226 30.6468 18.7445 30.9461 18.777 30.9461C18.8031 30.9461 18.7901 30.9721 18.7575 30.9981C18.7185 31.0242 18.5754 31.2649 18.4388 31.5316C18.3021 31.7983 18.133 32.0911 18.0614 32.1822C17.9964 32.2732 17.9378 32.3578 17.9378 32.3773C17.9378 32.3968 18.4192 32.6571 18.9982 32.9563C19.5837 33.2556 20.5335 33.75 21.1125 34.0428C21.698 34.342 22.186 34.5892 22.2055 34.5892C22.225 34.5892 22.238 30.4972 22.238 16.4061L21.9973 16.3086C21.8607 16.2565 21.7371 16.211 21.7176 16.211C21.698 16.2045 21.5809 16.1524 21.4573 16.0874Z" fill="#CE844D"/>
<path d="M4.20161 25.7481L22.2871 34.5223L21.5709 16.6159L10.4689 12.6764L4.91786 9.99048L4.20161 25.7481Z" fill="#CE844D"/>
<path d="M16.5132 6.22488V5.3141V4.40332H16.1228V6.22488H16.5132Z" fill="#CDD0DE"/>
<path d="M15.8821 5.36615C15.8496 5.24905 15.7455 5.07339 15.6479 4.97581C15.4983 4.82618 15.4007 4.79365 15.16 4.79365C14.9909 4.79365 14.8022 4.82618 14.7372 4.87172C14.6201 4.95629 14.6201 4.95629 14.7307 5.05388C14.7957 5.10592 14.9453 5.13845 15.0624 5.13194C15.2056 5.12544 15.3227 5.16447 15.4072 5.24905C15.4788 5.32061 15.5373 5.4312 15.5373 5.49626C15.5373 5.55481 15.4853 5.67841 15.4268 5.76299C15.3292 5.8931 15.2641 5.91261 15.0299 5.8931C14.8217 5.87358 14.7242 5.8931 14.6591 5.98418C14.5745 6.08176 14.5745 6.10128 14.6786 6.15332C14.7372 6.17934 14.8673 6.22488 14.9714 6.2509C15.082 6.27693 15.2511 6.2444 15.4398 6.15983C15.6544 6.06224 15.7585 5.97116 15.8301 5.80202C15.8952 5.65022 15.9125 5.50493 15.8821 5.36615Z" fill="#CDD0DE"/>
<path d="M31.0337 18.6505C31.0663 18.6505 31.0793 18.4879 31.0728 18.2927C31.0663 18.0976 31.0468 17.9349 31.0207 17.9349C30.9947 17.9349 30.9752 18.0976 30.9817 18.2927C30.9882 18.4879 31.0077 18.6505 31.0337 18.6505Z" fill="#D1E0F8"/>
<path d="M19.6944 5.19703C19.6228 5.07993 19.4927 4.95632 19.4211 4.9238C19.3431 4.89127 19.213 4.86525 19.1349 4.86525C19.0503 4.85874 18.8942 4.90428 18.7901 4.95632C18.686 5.00837 18.5494 5.11896 18.4974 5.19703C18.4453 5.2816 18.3998 5.44424 18.3998 5.55484C18.3998 5.67194 18.4258 5.82807 18.4648 5.89963C18.5169 6.01023 18.4843 6.06878 18.2371 6.28997C18.0745 6.43309 17.9444 6.59573 17.9444 6.64777C17.9444 6.69982 17.9704 6.75837 18.0094 6.77789C18.0485 6.7974 18.2306 6.68681 18.4193 6.53067C18.725 6.27696 18.7836 6.25093 19.0698 6.27045C19.3431 6.28997 19.3951 6.27045 19.6033 6.06227C19.7724 5.89313 19.831 5.77603 19.831 5.61989C19.831 5.5093 19.7724 5.31413 19.6944 5.19703Z" fill="#E3E4ED"/>
<path d="M19.5708 5.57429C19.5708 5.46369 19.5122 5.32057 19.4407 5.24901C19.3691 5.17745 19.226 5.1189 19.1154 5.1189C19.0048 5.1189 18.8617 5.17745 18.7901 5.24901C18.712 5.32707 18.66 5.46369 18.66 5.60681C18.66 5.76945 18.699 5.86053 18.8031 5.93209C18.8877 5.98414 19.0308 6.02968 19.1284 6.02968C19.2325 6.02968 19.3691 5.97113 19.4407 5.89957C19.5122 5.828 19.5708 5.68488 19.5708 5.57429Z" fill="#CDD0DE"/>
<path d="M34.5987 10.9089L29.6545 13.1858L11.8292 5.31406L16.6433 3.03711L34.5987 10.9089Z" fill="#CE844D"/>
<path d="M34.4633 20.376L29.6492 22.1667V13.1626L34.4633 10.8856V20.376Z" fill="#B76325"/>
</svg>
