<svg width="36" height="36" viewBox="0 0 36 36" fill="none" xmlns="http://www.w3.org/2000/svg">
<rect width="36" height="36" rx="18" fill="#F0F0F3"/>
<path d="M20.75 25C20.75 26.52 19.52 27.75 18 27.75C16.48 27.75 15.25 26.52 15.25 25C15.25 23.48 16.48 22.25 18 22.25C19.52 22.25 20.75 23.48 20.75 25ZM16.75 25C16.75 25.69 17.31 26.25 18 26.25C18.69 26.25 19.25 25.69 19.25 25C19.25 24.31 18.69 23.75 18 23.75C17.31 23.75 16.75 24.31 16.75 25Z" fill="#484C52"/>
<path d="M20.75 11C20.75 12.52 19.52 13.75 18 13.75C16.48 13.75 15.25 12.52 15.25 11C15.25 9.48 16.48 8.25 18 8.25C19.52 8.25 20.75 9.48 20.75 11ZM16.75 11C16.75 11.69 17.31 12.25 18 12.25C18.69 12.25 19.25 11.69 19.25 11C19.25 10.31 18.69 9.75 18 9.75C17.31 9.75 16.75 10.31 16.75 11Z" fill="#484C52"/>
<path d="M20.75 18C20.75 19.52 19.52 20.75 18 20.75C16.48 20.75 15.25 19.52 15.25 18C15.25 16.48 16.48 15.25 18 15.25C19.52 15.25 20.75 16.48 20.75 18ZM16.75 18C16.75 18.69 17.31 19.25 18 19.25C18.69 19.25 19.25 18.69 19.25 18C19.25 17.31 18.69 16.75 18 16.75C17.31 16.75 16.75 17.31 16.75 18Z" fill="#484C52"/>
</svg>
