<svg width="24" height="24" viewBox="0 0 24 24" fill="none" xmlns="http://www.w3.org/2000/svg">
<path d="M6.578 15.482C5.163 16.324 1.453 18.044 3.713 20.197C4.816 21.248 6.045 22 7.59 22H16.408C17.954 22 19.183 21.248 20.286 20.197C22.546 18.044 18.836 16.324 17.421 15.482C15.7788 14.5119 13.9064 14.0001 11.999 14.0001C10.0916 14.0001 8.22021 14.5119 6.578 15.482ZM16.5 6.5C16.5 7.69347 16.0259 8.83807 15.182 9.68198C14.3381 10.5259 13.1935 11 12 11C10.8065 11 9.66193 10.5259 8.81802 9.68198C7.97411 8.83807 7.5 7.69347 7.5 6.5C7.5 5.30653 7.97411 4.16193 8.81802 3.31802C9.66193 2.47411 10.8065 2 12 2C13.1935 2 14.3381 2.47411 15.182 3.31802C16.0259 4.16193 16.5 5.30653 16.5 6.5Z" stroke="black" stroke-width="1.5" stroke-linecap="round" stroke-linejoin="round"/>
</svg>
