<svg width="18" height="18" viewBox="0 0 18 18" fill="none" xmlns="http://www.w3.org/2000/svg">
<path d="M8.72095 7.95165C8.43053 7.95165 8.1897 7.71081 8.1897 7.4204V5.06165C8.1897 4.77123 8.43053 4.5304 8.72095 4.5304C9.01136 4.5304 9.2522 4.77123 9.2522 5.06165V7.4204C9.2522 7.7179 9.01136 7.95165 8.72095 7.95165Z" fill="#004BFE"/>
<path d="M8.73506 14.9145C6.90756 14.9145 5.08714 14.6241 3.35173 14.0433C2.70714 13.8308 2.21839 13.3704 2.00589 12.7895C1.79339 12.2087 1.86423 11.5429 2.21131 10.962L3.11089 9.46038C3.30923 9.12746 3.48631 8.50413 3.48631 8.11455V6.62705C3.48631 3.72996 5.83798 1.3783 8.73506 1.3783C11.6321 1.3783 13.9838 3.72996 13.9838 6.62705V8.11455C13.9838 8.49705 14.1609 9.12746 14.3592 9.46038L15.2588 10.962C15.5917 11.5145 15.6484 12.1733 15.4288 12.7754C15.2092 13.3775 14.7276 13.8379 14.1184 14.0433C12.383 14.6312 10.5626 14.9145 8.73506 14.9145ZM8.73506 2.44788C6.42589 2.44788 4.54881 4.32496 4.54881 6.63413V8.12163C4.54881 8.69538 4.32214 9.52413 4.02464 10.0129L3.12506 11.5216C2.94089 11.8262 2.89839 12.152 3.00464 12.4354C3.11089 12.7187 3.35173 12.9312 3.69173 13.0445C6.95006 14.1283 10.5342 14.1283 13.7926 13.0445C14.0971 12.9454 14.3309 12.7187 14.4371 12.4212C14.5505 12.1237 14.5151 11.7979 14.3521 11.5216L13.4526 10.02C13.1551 9.53121 12.9284 8.70246 12.9284 8.12871V6.64121C12.9213 4.32496 11.0442 2.44788 8.73506 2.44788Z" fill="#004BFE"/>
<path d="M8.72093 16.7208C7.96302 16.7208 7.21927 16.4091 6.68093 15.8708C6.1426 15.3325 5.83093 14.5887 5.83093 13.8308H6.89343C6.89343 14.3125 7.09177 14.78 7.43177 15.12C7.77177 15.46 8.23927 15.6583 8.72093 15.6583C9.72677 15.6583 10.5484 14.8366 10.5484 13.8308H11.6109C11.6109 15.4246 10.3147 16.7208 8.72093 16.7208Z" fill="#004BFE"/>
</svg>
