<svg width="18" height="18" viewBox="0 0 18 18" fill="none" xmlns="http://www.w3.org/2000/svg">
<path d="M3.8685 8.61826C3.81375 9.66526 3.87675 10.7798 2.9415 11.481C2.72648 11.6419 2.552 11.8508 2.43195 12.091C2.3119 12.3313 2.24959 12.5962 2.25 12.8648C2.25 13.6125 2.8365 14.25 3.6 14.25H14.4C15.1635 14.25 15.75 13.6125 15.75 12.8648C15.75 12.3203 15.4935 11.8073 15.0585 11.481C14.1233 10.7798 14.1863 9.66526 14.1315 8.61826C14.064 7.30282 13.4939 6.06353 12.539 5.15633C11.584 4.24913 10.3172 3.74329 9 3.74329C7.68283 3.74329 6.41596 4.24913 5.46102 5.15633C4.50608 6.06353 3.93599 7.30282 3.8685 8.61826Z" stroke="#2D2D31" stroke-width="1.125" stroke-linecap="round" stroke-linejoin="round"/>
<path d="M11.25 14.25C11.25 14.8467 11.0129 15.419 10.591 15.841C10.169 16.2629 9.59674 16.5 9 16.5C8.40326 16.5 7.83097 16.2629 7.40901 15.841C6.98705 15.419 6.75 14.8467 6.75 14.25M7.875 2.34375C7.875 2.96475 8.379 3.75 9 3.75C9.621 3.75 10.125 2.96475 10.125 2.34375C10.125 1.72275 9.621 1.5 9 1.5C8.379 1.5 7.875 1.72275 7.875 2.34375Z" stroke="#2D2D31" stroke-width="1.125" stroke-linecap="round" stroke-linejoin="round"/>
</svg>
