<svg width="79" height="84" viewBox="0 0 79 84" fill="none" xmlns="http://www.w3.org/2000/svg">
<path d="M27.9231 34.4925V83.8957L-11.1325 73.881V24.4778H-11.1304L27.9231 34.4925Z" fill="#CE844D"/>
<path d="M66.9766 24.4778V73.881L27.9231 83.8957V34.4925L66.9766 24.4778Z" fill="#FFC088"/>
<path d="M66.9787 24.4776L27.9239 34.4929L-11.1308 24.4776L27.9239 14.466L66.9787 24.4776Z" fill="#FFC088"/>
<path d="M32.1945 78.2369L40.7386 76.0463V71.7377L32.1945 73.9283V78.2369Z" fill="white"/>
<path d="M56.1 72.2715L64.6445 70.0807V69.0217L56.1 71.2127V72.2715Z" fill="#A86538"/>
<path d="M24.3739 78.237L-8.62377 69.7761V68.041L24.3739 76.5019V78.237Z" fill="#A86538"/>
<path d="M56.1 69.7226L64.6445 67.5318V66.4728L56.1 68.6638V69.7226Z" fill="#A86538"/>
<path d="M27.9239 14.466V34.4929L-11.1308 24.4776L27.9239 14.466Z" fill="#E5A57A"/>
<path d="M27.9231 34.4924L16.2331 54.1867L-11.1325 47.1691V29.7379L27.9231 34.4924Z" fill="#B76F3E"/>
<path d="M66.9766 29.7379V47.1711L39.6151 54.1867L27.9231 34.4924L66.9766 29.7379Z" fill="#CE844D"/>
<path d="M27.9238 34.4926L-11.1326 24.4788L-22.8238 38.9131L16.2326 48.9272L27.9238 34.4926Z" fill="#FFCBA1"/>
<path d="M27.9238 14.4651L-11.1326 24.4792L-22.8238 10.0449L16.2326 0.0308228L27.9238 14.4651Z" fill="#FFCBA1"/>
<path d="M27.9239 14.4651L66.9803 24.4792L78.6715 10.0449L39.6151 0.0308228L27.9239 14.4651Z" fill="#FFCBA1"/>
<path d="M27.9239 34.4926L66.9803 24.4788L78.6715 38.9131L39.6151 48.9272L27.9239 34.4926Z" fill="#FFCBA1"/>
</svg>
