<svg width="25" height="24" viewBox="0 0 25 24" fill="none" xmlns="http://www.w3.org/2000/svg">
<path d="M22.75 10.5V9.71704C22.75 7.77704 22.75 6.80804 22.164 6.20504C21.578 5.60304 20.636 5.60304 18.75 5.60304H16.671C15.754 5.60304 15.746 5.60104 14.921 5.18804L11.59 3.52104C10.199 2.82504 9.503 2.47704 8.762 2.50104C8.021 2.52504 7.35 2.91804 6.003 3.70404L4.776 4.42004C3.787 4.99704 3.293 5.28604 3.022 5.76604C2.75 6.24604 2.75 6.83004 2.75 7.99904V16.216C2.75 17.751 2.75 18.519 3.092 18.946C3.32 19.231 3.639 19.422 3.992 19.486C4.522 19.581 5.172 19.202 6.47 18.444C7.352 17.929 8.2 17.394 9.255 17.539C10.139 17.661 10.96 18.219 11.75 18.614M8.75 2.50004V17.5M15.75 5.50004V9.50004" stroke="black" stroke-width="1.5" stroke-linecap="round" stroke-linejoin="round"/>
<path d="M18.25 16.5H18.259M18.25 12C20.685 12 22.75 14.017 22.75 16.463C22.75 18.948 20.652 20.693 18.714 21.878C18.5727 21.9581 18.413 22.0002 18.2505 22.0002C18.088 22.0002 17.9283 21.9581 17.787 21.878C15.852 20.681 13.75 18.957 13.75 16.463C13.75 14.016 15.815 12 18.25 12Z" stroke="black" stroke-width="1.5" stroke-linecap="round" stroke-linejoin="round"/>
</svg>
