<svg width="27" height="32" viewBox="0 0 27 32" fill="none" xmlns="http://www.w3.org/2000/svg">
<path d="M13.8119 0.436157C14.9092 0.436402 15.9855 0.736178 16.9249 1.30316L23.9909 5.56716C24.8774 6.10583 25.6107 6.8631 26.1206 7.76643C26.6305 8.66975 26.8998 9.68887 26.9029 10.7262V21.2742C26.8998 22.3114 26.6303 23.3305 26.1204 24.2338C25.6106 25.1371 24.8773 25.8944 23.9909 26.4332L16.9209 30.6972C15.9814 31.2642 14.9048 31.5638 13.8074 31.5638C12.7101 31.5638 11.6335 31.2642 10.6939 30.6972L3.63295 26.4332C2.74649 25.8945 2.0132 25.1372 1.50332 24.2339C0.993436 23.3306 0.724044 22.3114 0.720947 21.2742L0.720947 10.7262C0.724044 9.68887 0.993436 8.66975 1.50332 7.76643C2.0132 6.8631 2.74649 6.10583 3.63295 5.56716L10.6989 1.30316C11.6383 0.736131 12.7147 0.436351 13.8119 0.436157ZM13.8119 29.0872C14.4583 29.0873 15.0925 28.911 15.6459 28.5772L22.7119 24.3152C23.2341 23.9978 23.666 23.5517 23.9663 23.0196C24.2666 22.4875 24.4252 21.8872 24.4269 21.2762V10.7262C24.4252 10.1151 24.2666 9.51482 23.9663 8.9827C23.666 8.45057 23.2341 8.00448 22.7119 7.68716L15.6459 3.42416C15.0924 3.09037 14.4583 2.91403 13.8119 2.91416C13.1659 2.91416 12.5321 3.09049 11.9789 3.42416L4.91295 7.68816C4.39094 8.00539 3.95912 8.45132 3.65883 8.98326C3.35854 9.5152 3.19985 10.1153 3.19795 10.7262V21.2742C3.19934 21.8855 3.35779 22.4862 3.6581 23.0187C3.95841 23.5513 4.39051 23.9977 4.91295 24.3152L11.9779 28.5792C12.5316 28.9123 13.1658 29.0879 13.8119 29.0872Z" fill="white"/>
</svg>
