<svg width="40" height="40" viewBox="0 0 40 40" fill="none" xmlns="http://www.w3.org/2000/svg">
<path d="M33 0H7C3.13401 0 0 3.13401 0 7V33C0 36.866 3.13401 40 7 40H33C36.866 40 40 36.866 40 33V7C40 3.13401 36.866 0 33 0Z" fill="#DCF8FF"/>
<path d="M10.3882 10.1908C9.6821 10.6169 9.09802 11.2181 8.6926 11.9363C8.28718 12.6544 8.07417 13.4652 8.07422 14.2898V24.8378C8.0741 25.6627 8.28707 26.4736 8.69249 27.1919C9.09791 27.9102 9.68202 28.5116 10.3882 28.9378L17.4532 33.2018C18.1996 33.6523 19.0549 33.8904 19.9267 33.8904C20.7985 33.8904 21.6538 33.6523 22.4002 33.2018L29.4662 28.9378C30.1724 28.5116 30.7565 27.9102 31.162 27.1919C31.5674 26.4736 31.7803 25.6627 31.7802 24.8378V14.2898C31.7804 13.465 31.5675 12.6541 31.1621 11.9357C30.7567 11.2174 30.1725 10.616 29.4662 10.1898L22.4002 5.92685C21.6538 5.47637 20.7985 5.23828 19.9267 5.23828C19.0549 5.23828 18.1996 5.47637 17.4532 5.92685L10.3882 10.1908Z" fill="#0075E7"/>
<path d="M19.926 4C21.0232 4.00024 22.0996 4.30002 23.039 4.867L30.105 9.131C30.9914 9.66968 31.7247 10.4269 32.2346 11.3303C32.7445 12.2336 33.0139 13.2527 33.017 14.29V24.838C33.0138 25.8753 32.7443 26.8944 32.2345 27.7977C31.7246 28.701 30.9914 29.4583 30.105 29.997L23.035 34.261C22.0954 34.828 21.0188 35.1277 19.9215 35.1277C18.8241 35.1277 17.7475 34.828 16.808 34.261L9.74696 29.997C8.8605 29.4583 8.12721 28.7011 7.61733 27.7977C7.10745 26.8944 6.83806 25.8753 6.83496 24.838V14.29C6.83806 13.2527 7.10745 12.2336 7.61733 11.3303C8.12721 10.4269 8.8605 9.66968 9.74696 9.131L16.813 4.867C17.7523 4.29997 18.8287 4.00019 19.926 4ZM19.926 32.651C20.5723 32.6512 21.2065 32.4748 21.76 32.141L28.826 27.879C29.3481 27.5617 29.78 27.1156 30.0803 26.5835C30.3806 26.0513 30.5392 25.451 30.541 24.84V14.29C30.5392 13.679 30.3806 13.0787 30.0803 12.5465C29.78 12.0144 29.3481 11.5683 28.826 11.251L21.76 6.988C21.2065 6.65421 20.5723 6.47787 19.926 6.478C19.2799 6.478 18.6462 6.65434 18.093 6.988L11.027 11.252C10.505 11.5692 10.0731 12.0152 9.77284 12.5471C9.47256 13.079 9.31386 13.6792 9.31196 14.29V24.838C9.31335 25.4493 9.4718 26.0501 9.77211 26.5826C10.0724 27.1151 10.5045 27.5615 11.027 27.879L18.092 32.143C18.6456 32.4761 19.2798 32.6518 19.926 32.651Z" fill="white"/>
<path fill-rule="evenodd" clip-rule="evenodd" d="M18.161 9.09306C18.3394 8.98251 18.5441 8.92159 18.7539 8.91659C18.9638 8.9116 19.1711 8.9627 19.3546 9.06463C19.5381 9.16656 19.691 9.31562 19.7976 9.49641C19.9042 9.6772 19.9606 9.88318 19.961 10.0931V13.5511C19.961 13.7538 19.9085 13.9532 19.8089 14.1298C19.7092 14.3064 19.5656 14.4542 19.392 14.5591L16.172 16.5051C15.9762 16.6239 15.75 16.6831 15.5211 16.6754C15.2922 16.6678 15.0705 16.5937 14.883 16.4621L12.283 14.6371C12.1231 14.5249 11.9936 14.3747 11.9062 14.2001C11.8187 14.0255 11.7759 13.8319 11.7818 13.6367C11.7876 13.4414 11.8419 13.2507 11.9397 13.0817C12.0375 12.9126 12.1757 12.7705 12.342 12.6681L18.161 9.09306Z" fill="#DDF4FF"/>
</svg>
