<svg width="20" height="20" viewBox="0 0 20 20" fill="none" xmlns="http://www.w3.org/2000/svg">
<path fill-rule="evenodd" clip-rule="evenodd" d="M10 2.29175C5.74281 2.29175 2.29167 5.74289 2.29167 10.0001C2.29167 14.2573 5.74281 17.7084 10 17.7084C14.2572 17.7084 17.7083 14.2573 17.7083 10.0001C17.7083 5.74289 14.2572 2.29175 10 2.29175ZM1.04167 10.0001C1.04167 5.05253 5.05245 1.04175 10 1.04175C14.9476 1.04175 18.9583 5.05253 18.9583 10.0001C18.9583 14.9476 14.9476 18.9584 10 18.9584C5.05245 18.9584 1.04167 14.9476 1.04167 10.0001ZM10 6.45841C9.48223 6.45841 9.0625 6.87815 9.0625 7.39591C9.0625 7.74109 8.78268 8.02091 8.4375 8.02091C8.09232 8.02091 7.8125 7.74109 7.8125 7.39591C7.8125 6.18779 8.79188 5.20841 10 5.20841C11.2081 5.20841 12.1875 6.18779 12.1875 7.39591C12.1875 8.1987 11.7547 8.89973 11.1127 9.27955C10.9488 9.37656 10.8134 9.48247 10.7252 9.58639C10.6396 9.68727 10.625 9.75308 10.625 9.79175V10.8334C10.625 11.1786 10.3452 11.4584 10 11.4584C9.65482 11.4584 9.375 11.1786 9.375 10.8334V9.79175C9.375 9.37018 9.55956 9.02811 9.77216 8.77759C9.98219 8.5301 10.2441 8.34108 10.4762 8.20374C10.7537 8.03957 10.9375 7.73888 10.9375 7.39591C10.9375 6.87815 10.5178 6.45841 10 6.45841ZM10 14.1667C10.4602 14.1667 10.8333 13.7937 10.8333 13.3334C10.8333 12.8732 10.4602 12.5001 10 12.5001C9.53976 12.5001 9.16667 12.8732 9.16667 13.3334C9.16667 13.7937 9.53976 14.1667 10 14.1667Z" fill="#2C2D3A"/>
</svg>
