<svg width="40" height="40" viewBox="0 0 40 40" fill="none" xmlns="http://www.w3.org/2000/svg">
<rect width="40" height="40" rx="20" fill="#F2F2F2"/>
<path d="M24 30.75H16C12.98 30.75 11.25 29.02 11.25 26V16.25C11.25 13.1 12.85 11.5 16 11.5C16.41 11.5 16.75 11.84 16.75 12.25C16.75 12.65 16.91 13.03 17.19 13.31C17.47 13.59 17.85 13.75 18.25 13.75H21.75C22.58 13.75 23.25 13.08 23.25 12.25C23.25 11.84 23.59 11.5 24 11.5C27.15 11.5 28.75 13.1 28.75 16.25V26C28.75 29.02 27.02 30.75 24 30.75ZM15.35 13.02C13.77 13.15 12.75 13.86 12.75 16.25V26C12.75 28.22 13.78 29.25 16 29.25H24C26.22 29.25 27.25 28.22 27.25 26V16.25C27.25 13.86 26.23 13.16 24.65 13.02C24.31 14.3 23.14 15.25 21.75 15.25H18.25C17.45 15.25 16.7 14.94 16.13 14.37C15.75 13.99 15.49 13.53 15.35 13.02Z" fill="black"/>
<path d="M21.75 15.25H18.25C17.45 15.25 16.7 14.94 16.13 14.37C15.56 13.8 15.25 13.05 15.25 12.25C15.25 10.6 16.6 9.25 18.25 9.25H21.75C22.55 9.25 23.3 9.56 23.87 10.13C24.44 10.7 24.75 11.45 24.75 12.25C24.75 13.9 23.4 15.25 21.75 15.25ZM18.25 10.75C17.42 10.75 16.75 11.42 16.75 12.25C16.75 12.65 16.91 13.03 17.19 13.31C17.47 13.59 17.85 13.75 18.25 13.75H21.75C22.58 13.75 23.25 13.08 23.25 12.25C23.25 11.85 23.09 11.47 22.81 11.19C22.53 10.91 22.15 10.75 21.75 10.75H18.25Z" fill="black"/>
<path d="M20 21.75H16C15.59 21.75 15.25 21.41 15.25 21C15.25 20.59 15.59 20.25 16 20.25H20C20.41 20.25 20.75 20.59 20.75 21C20.75 21.41 20.41 21.75 20 21.75Z" fill="black"/>
<path d="M24 25.75H16C15.59 25.75 15.25 25.41 15.25 25C15.25 24.59 15.59 24.25 16 24.25H24C24.41 24.25 24.75 24.59 24.75 25C24.75 25.41 24.41 25.75 24 25.75Z" fill="black"/>
</svg>
