<svg width="13" height="13" viewBox="0 0 13 13" fill="none" xmlns="http://www.w3.org/2000/svg">
<path d="M10.2917 1.08337V2.70837C10.2917 3.71399 9.89218 4.67841 9.1811 5.38949C8.47003 6.10056 7.5056 6.50004 6.49999 6.50004M6.49999 6.50004C5.49438 6.50004 4.52995 6.10056 3.81888 5.38949C3.1078 4.67841 2.70832 3.71399 2.70832 2.70837V1.08337M6.49999 6.50004C7.5056 6.50004 8.47003 6.89952 9.1811 7.61059C9.89218 8.32167 10.2917 9.28609 10.2917 10.2917V11.9167M6.49999 6.50004C5.49438 6.50004 4.52995 6.89952 3.81888 7.61059C3.1078 8.32167 2.70832 9.28609 2.70832 10.2917V11.9167M2.16666 1.08337H10.8333M10.8333 11.9167H2.16666" stroke="#EA8303" stroke-width="0.8125" stroke-linecap="round" stroke-linejoin="round"/>
</svg>
