<svg width="19" height="18" viewBox="0 0 19 18" fill="none" xmlns="http://www.w3.org/2000/svg">
<path d="M9.66657 7.70992C8.90157 7.70992 8.13657 7.57492 7.40907 7.31242C7.11657 7.20742 6.96657 6.88492 7.07157 6.59242C7.18407 6.29992 7.50657 6.14992 7.79907 6.25492C9.00657 6.68992 10.3341 6.68992 11.5416 6.25492C11.8341 6.14992 12.1566 6.29992 12.2616 6.59242C12.3666 6.88492 12.2166 7.20742 11.9241 7.31242C11.1966 7.57492 10.4316 7.70992 9.66657 7.70992Z" fill="#7A7A7A"/>
<path d="M14.9692 17.0625C14.5867 17.0625 14.1667 16.95 13.7617 16.7175L10.1017 14.685C9.88424 14.565 9.45674 14.565 9.23924 14.685L5.57924 16.7175C4.83674 17.13 4.07924 17.175 3.50174 16.83C2.92424 16.4925 2.59424 15.81 2.59424 14.9625V4.395C2.59424 2.49 4.14674 0.9375 6.05174 0.9375H13.2892C15.1942 0.9375 16.7467 2.49 16.7467 4.395V14.9625C16.7467 15.81 16.4167 16.4925 15.8392 16.83C15.5767 16.9875 15.2767 17.0625 14.9692 17.0625ZM9.66674 13.47C10.0192 13.47 10.3642 13.545 10.6417 13.7025L14.3017 15.735C14.6842 15.9525 15.0367 15.9975 15.2617 15.8625C15.4867 15.7275 15.6142 15.405 15.6142 14.9625V4.395C15.6142 3.1125 14.5642 2.0625 13.2817 2.0625H6.05174C4.76924 2.0625 3.71924 3.1125 3.71924 4.395V14.9625C3.71924 15.405 3.84674 15.735 4.07174 15.8625C4.29674 15.99 4.64174 15.9525 5.03174 15.735L8.69174 13.7025C8.96924 13.545 9.31424 13.47 9.66674 13.47Z" fill="#95989A"/>
<path d="M14.9692 17.0625C14.5867 17.0625 14.1667 16.95 13.7617 16.7175L10.1017 14.685C9.88424 14.565 9.45674 14.565 9.23924 14.685L5.57924 16.7175C4.83674 17.13 4.07924 17.175 3.50174 16.83C2.92424 16.4925 2.59424 15.81 2.59424 14.9625V4.395C2.59424 2.49 4.14674 0.9375 6.05174 0.9375H13.2892C15.1942 0.9375 16.7467 2.49 16.7467 4.395V14.9625C16.7467 15.81 16.4167 16.4925 15.8392 16.83C15.5767 16.9875 15.2767 17.0625 14.9692 17.0625ZM9.66674 13.47C10.0192 13.47 10.3642 13.545 10.6417 13.7025L14.3017 15.735C14.6842 15.9525 15.0367 15.9975 15.2617 15.8625C15.4867 15.7275 15.6142 15.405 15.6142 14.9625V4.395C15.6142 3.1125 14.5642 2.0625 13.2817 2.0625H6.05174C4.76924 2.0625 3.71924 3.1125 3.71924 4.395V14.9625C3.71924 15.405 3.84674 15.735 4.07174 15.8625C4.29674 15.99 4.64174 15.9525 5.03174 15.735L8.69174 13.7025C8.96924 13.545 9.31424 13.47 9.66674 13.47Z" fill="#95989A"/>
</svg>
