<svg width="18" height="18" viewBox="0 0 18 18" fill="none" xmlns="http://www.w3.org/2000/svg">
<path d="M8.25 15.5625C4.215 15.5625 0.9375 12.285 0.9375 8.25C0.9375 4.215 4.215 0.9375 8.25 0.9375C12.285 0.9375 15.5625 4.215 15.5625 8.25C15.5625 12.285 12.285 15.5625 8.25 15.5625ZM8.25 2.0625C4.8375 2.0625 2.0625 4.8375 2.0625 8.25C2.0625 11.6625 4.8375 14.4375 8.25 14.4375C11.6625 14.4375 14.4375 11.6625 14.4375 8.25C14.4375 4.8375 11.6625 2.0625 8.25 2.0625Z" fill="#979797"/>
<path d="M15.1198 17.0925C15.0598 17.0925 14.9998 17.085 14.9473 17.0775C14.5948 17.0325 13.9573 16.7925 13.5973 15.72C13.4098 15.1575 13.4773 14.595 13.7848 14.1675C14.0923 13.74 14.6098 13.5 15.2023 13.5C15.9673 13.5 16.5673 13.7925 16.8373 14.31C17.1073 14.8275 17.0323 15.4875 16.6048 16.125C16.0723 16.9275 15.4948 17.0925 15.1198 17.0925ZM14.6698 15.3675C14.7973 15.7575 14.9773 15.9525 15.0973 15.9675C15.2173 15.9825 15.4423 15.84 15.6748 15.5025C15.8923 15.18 15.9073 14.9475 15.8548 14.8425C15.8023 14.7375 15.5923 14.625 15.2023 14.625C14.9698 14.625 14.7973 14.7 14.6998 14.8275C14.6098 14.955 14.5948 15.15 14.6698 15.3675Z" fill="#979797"/>
</svg>
