<svg width="66" height="66" viewBox="0 0 66 66" fill="none" xmlns="http://www.w3.org/2000/svg">
<g filter="url(#filter0_d_64_8250)">
<rect x="12" y="8" width="42" height="42" rx="21" fill="url(#paint0_linear_64_8250)" shape-rendering="crispEdges"/>
<path fill-rule="evenodd" clip-rule="evenodd" d="M42.0481 27.3974L40.1886 32.9758C38.8776 36.909 38.222 38.8756 37.2607 39.4344C36.3462 39.9661 35.2168 39.9661 34.3023 39.4344C33.341 38.8756 32.6855 36.909 31.3744 32.9758C31.1639 32.3443 31.0587 32.0285 30.882 31.7646C30.7107 31.5088 30.491 31.2891 30.2352 31.1178C29.9713 30.9411 29.6555 30.8359 29.024 30.6254C25.0908 29.3143 23.1242 28.6588 22.5654 27.6975C22.0337 26.783 22.0337 25.6536 22.5654 24.7391C23.1242 23.7778 25.0908 23.1222 29.024 21.8112L34.6024 19.9517C39.4757 18.3273 41.9123 17.5151 43.1985 18.8013C44.4847 20.0875 43.6725 22.5241 42.0481 27.3974ZM34.1328 27.8105C33.8172 27.4915 33.8201 26.977 34.1392 26.6615L38.7006 22.1504C39.0196 21.8348 39.534 21.8377 39.8496 22.1567C40.1651 22.4758 40.1623 22.9902 39.8432 23.3058L35.2818 27.8169C34.9628 28.1324 34.4483 28.1296 34.1328 27.8105Z" fill="white"/>
</g>
<defs>
<filter id="filter0_d_64_8250" x="0" y="0" width="66" height="66" filterUnits="userSpaceOnUse" color-interpolation-filters="sRGB">
<feFlood flood-opacity="0" result="BackgroundImageFix"/>
<feColorMatrix in="SourceAlpha" type="matrix" values="0 0 0 0 0 0 0 0 0 0 0 0 0 0 0 0 0 0 127 0" result="hardAlpha"/>
<feOffset dy="4"/>
<feGaussianBlur stdDeviation="6"/>
<feComposite in2="hardAlpha" operator="out"/>
<feColorMatrix type="matrix" values="0 0 0 0 0.0509804 0 0 0 0 0.0392157 0 0 0 0 0.172549 0 0 0 0.06 0"/>
<feBlend mode="normal" in2="BackgroundImageFix" result="effect1_dropShadow_64_8250"/>
<feBlend mode="normal" in="SourceGraphic" in2="effect1_dropShadow_64_8250" result="shape"/>
</filter>
<linearGradient id="paint0_linear_64_8250" x1="12" y1="8" x2="52.7604" y2="37.9865" gradientUnits="userSpaceOnUse">
<stop stop-color="#40C4FF"/>
<stop offset="1" stop-color="#03A9F4"/>
</linearGradient>
</defs>
</svg>
