<svg width="66" height="67" viewBox="0 0 66 67" fill="none" xmlns="http://www.w3.org/2000/svg">
<g filter="url(#filter0_d_0_6964)">
<rect x="12" y="8.5" width="42" height="42" rx="21" fill="url(#paint0_linear_0_6964)" shape-rendering="crispEdges"/>
<path fill-rule="evenodd" clip-rule="evenodd" d="M42.048 27.8975L40.1885 33.476C38.8774 37.4091 38.2219 39.3757 37.2606 39.9346C36.3461 40.4662 35.2167 40.4662 34.3022 39.9346C33.3409 39.3757 32.6854 37.4091 31.3743 33.4759C31.1638 32.8444 31.0585 32.5286 30.8818 32.2647C30.7106 32.0089 30.4909 31.7892 30.2351 31.618C29.9712 31.4413 29.6554 31.336 29.0239 31.1255C25.0907 29.8144 23.1241 29.1589 22.5652 28.1976C22.0336 27.2831 22.0336 26.1537 22.5652 25.2392C23.1241 24.2779 25.0907 23.6224 29.0239 22.3113L34.6023 20.4518C39.4756 18.8274 41.9122 18.0152 43.1984 19.3014C44.4846 20.5876 43.6724 23.0242 42.048 27.8975ZM34.1327 28.3107C33.8171 27.9916 33.82 27.4772 34.139 27.1616L38.7004 22.6505C39.0195 22.335 39.5339 22.3378 39.8495 22.6569C40.165 22.9759 40.1622 23.4904 39.8431 23.8059L35.2817 28.317C34.9626 28.6326 34.4482 28.6297 34.1327 28.3107Z" fill="white"/>
</g>
<defs>
<filter id="filter0_d_0_6964" x="0" y="0.5" width="66" height="66" filterUnits="userSpaceOnUse" color-interpolation-filters="sRGB">
<feFlood flood-opacity="0" result="BackgroundImageFix"/>
<feColorMatrix in="SourceAlpha" type="matrix" values="0 0 0 0 0 0 0 0 0 0 0 0 0 0 0 0 0 0 127 0" result="hardAlpha"/>
<feOffset dy="4"/>
<feGaussianBlur stdDeviation="6"/>
<feComposite in2="hardAlpha" operator="out"/>
<feColorMatrix type="matrix" values="0 0 0 0 0.0509804 0 0 0 0 0.0392157 0 0 0 0 0.172549 0 0 0 0.06 0"/>
<feBlend mode="normal" in2="BackgroundImageFix" result="effect1_dropShadow_0_6964"/>
<feBlend mode="normal" in="SourceGraphic" in2="effect1_dropShadow_0_6964" result="shape"/>
</filter>
<linearGradient id="paint0_linear_0_6964" x1="12" y1="8.5" x2="52.7604" y2="38.4865" gradientUnits="userSpaceOnUse">
<stop stop-color="#40C4FF"/>
<stop offset="1" stop-color="#03A9F4"/>
</linearGradient>
</defs>
</svg>
