<svg width="20" height="20" viewBox="0 0 20 20" fill="none" xmlns="http://www.w3.org/2000/svg">
<path d="M8.75 1H10.75C11.3023 1 11.75 1.44772 11.75 2V2.56879C11.75 2.99659 12.0371 3.36825 12.4322 3.53228C12.8275 3.69638 13.2877 3.63384 13.5903 3.33123L13.9926 2.92891C14.3831 2.53838 15.0163 2.53838 15.4068 2.92891L16.821 4.34312C17.2116 4.73365 17.2115 5.36681 16.821 5.75734L16.4188 6.1596C16.1161 6.46223 16.0536 6.92247 16.2177 7.31774C16.3817 7.71287 16.7534 8 17.1813 8L17.75 8C18.3023 8 18.75 8.44771 18.75 9V11C18.75 11.5523 18.3023 12 17.75 12H17.1812C16.7534 12 16.3818 12.2871 16.2177 12.6822C16.0536 13.0775 16.1161 13.5377 16.4188 13.8403L16.821 14.2426C17.2116 14.6331 17.2116 15.2663 16.821 15.6568L15.4068 17.071C15.0163 17.4616 14.3831 17.4616 13.9926 17.071L13.5903 16.6688C13.2877 16.3661 12.8275 16.3036 12.4322 16.4677C12.0371 16.6318 11.75 17.0034 11.75 17.4312V18C11.75 18.5523 11.3023 19 10.75 19H8.75C8.19772 19 7.75 18.5523 7.75 18V17.4313C7.75 17.0034 7.46287 16.6317 7.06774 16.4677C6.67247 16.3036 6.21223 16.3661 5.9096 16.6688L5.50732 17.071C5.11679 17.4616 4.48363 17.4616 4.09311 17.071L2.67889 15.6568C2.28837 15.2663 2.28837 14.6331 2.67889 14.2426L3.08123 13.8403C3.38384 13.5377 3.44638 13.0775 3.28228 12.6822C3.11825 12.2871 2.74659 12 2.31879 12H1.75C1.19772 12 0.75 11.5523 0.75 11V9C0.75 8.44772 1.19772 8 1.75 8L2.31877 8C2.74658 8 3.11825 7.71288 3.28229 7.31776C3.4464 6.9225 3.38386 6.46229 3.08123 6.15966L2.67891 5.75734C2.28838 5.36681 2.28838 4.73365 2.67891 4.34313L4.09312 2.92891C4.48365 2.53839 5.11681 2.53839 5.50734 2.92891L5.90966 3.33123C6.21228 3.63386 6.6725 3.6964 7.06776 3.53229C7.46288 3.36825 7.75 2.99658 7.75 2.56876V2C7.75 1.44772 8.19772 1 8.75 1Z" stroke="black" stroke-width="1.5"/>
<path d="M11.75 10C11.75 11.1046 10.8546 12 9.75 12C8.64543 12 7.75 11.1046 7.75 10C7.75 8.89543 8.64543 8 9.75 8C10.8546 8 11.75 8.89543 11.75 10Z" stroke="black" stroke-width="1.5"/>
</svg>
