<svg width="17" height="18" viewBox="0 0 17 18" fill="none" xmlns="http://www.w3.org/2000/svg">
<path d="M10.75 9C10.75 9.44501 10.618 9.88002 10.3708 10.25C10.1236 10.62 9.77217 10.9084 9.36104 11.0787C8.94991 11.249 8.4975 11.2936 8.06105 11.2068C7.62459 11.1199 7.22368 10.9057 6.90901 10.591C6.59434 10.2763 6.38005 9.87541 6.29323 9.43895C6.20642 9.0025 6.25098 8.5501 6.42127 8.13896C6.59157 7.72783 6.87996 7.37643 7.24997 7.12919C7.61998 6.88196 8.05499 6.75 8.5 6.75C9.09674 6.75 9.66903 6.98705 10.091 7.40901C10.5129 7.83097 10.75 8.40326 10.75 9Z" stroke="#004BFE" stroke-linecap="round" stroke-linejoin="round"/>
<path d="M13.8821 11.1819C13.7852 11.4013 13.7562 11.6448 13.799 11.8807C13.8418 12.1167 13.9543 12.3345 14.1221 12.5059L14.1661 12.5499C14.439 12.8229 14.5923 13.193 14.5923 13.5789C14.5923 13.9649 14.439 14.335 14.1661 14.6079C13.8931 14.8809 13.523 15.0342 13.1371 15.0342C12.7511 15.0342 12.381 14.8809 12.1081 14.6079L12.0641 14.5639C11.894 14.3995 11.6794 14.2885 11.447 14.2447C11.2145 14.201 10.9743 14.2263 10.756 14.3176C10.5378 14.4089 10.3511 14.5621 10.219 14.7584C10.087 14.9547 10.0154 15.1854 10.0131 15.4219V15.5459C10.0031 15.9251 9.84551 16.2854 9.57382 16.55C9.30213 16.8147 8.93784 16.9628 8.55856 16.9628C8.17927 16.9628 7.81498 16.8147 7.54329 16.55C7.2716 16.2854 7.114 15.9251 7.10406 15.5459V15.4799C7.09882 15.239 7.02114 15.0051 6.88112 14.8089C6.7411 14.6127 6.54524 14.4632 6.31906 14.3799C6.09965 14.2831 5.85625 14.2541 5.62025 14.2969C5.38425 14.3397 5.16649 14.4522 4.99506 14.6199L4.95106 14.6639C4.67815 14.9369 4.30801 15.0902 3.92206 15.0902C3.53611 15.0902 3.16596 14.9369 2.89305 14.6639C2.62015 14.391 2.46683 14.0209 2.46683 13.6349C2.46683 13.249 2.62015 12.8789 2.89305 12.6059L2.93706 12.5619C3.10149 12.3919 3.21246 12.1773 3.25625 11.9448C3.30004 11.7124 3.27472 11.4722 3.18342 11.2539C3.09212 11.0357 2.93886 10.849 2.74258 10.7169C2.54629 10.5849 2.31561 10.5133 2.07906 10.5109H1.95506C1.76084 10.516 1.56757 10.4822 1.38665 10.4114C1.20573 10.3406 1.04082 10.2342 0.901648 10.0987C0.76248 9.96312 0.651871 9.80105 0.576348 9.62205C0.500824 9.44304 0.461914 9.25073 0.461914 9.05645C0.461914 8.86216 0.500824 8.66985 0.576348 8.49084C0.651871 8.31184 0.76248 8.14977 0.901648 8.01421C1.04082 7.87864 1.20573 7.77232 1.38665 7.70151C1.56757 7.63071 1.76084 7.59685 1.95506 7.60194H2.02006C2.26104 7.59671 2.49486 7.51902 2.69106 7.37901C2.88726 7.23899 3.03675 7.04313 3.12006 6.81694C3.21695 6.59754 3.24587 6.35414 3.20309 6.11814C3.16031 5.88214 3.04779 5.66438 2.88006 5.49294L2.83606 5.44894C2.69345 5.31562 2.57913 5.15496 2.49991 4.97654C2.42068 4.79812 2.37818 4.60557 2.37492 4.41038C2.37166 4.21518 2.40771 4.02133 2.48094 3.84036C2.55416 3.65939 2.66305 3.49501 2.80113 3.357C2.9392 3.21899 3.10364 3.11018 3.28464 3.03704C3.46565 2.96391 3.65952 2.92795 3.85471 2.9313C4.04991 2.93466 4.24243 2.97726 4.42081 3.05657C4.5992 3.13588 4.7598 3.25027 4.89306 3.39294L4.93706 3.43694C5.10849 3.60468 5.32625 3.7172 5.56225 3.75998C5.79825 3.80276 6.04165 3.77384 6.26106 3.67694H6.31906C6.53439 3.58459 6.71798 3.43121 6.84717 3.23574C6.97636 3.04027 7.0455 2.81125 7.04605 2.57694V2.45494C7.056 2.07579 7.2136 1.7155 7.48529 1.45085C7.75698 1.18619 8.12127 1.03809 8.50056 1.03809C8.87984 1.03809 9.24413 1.18619 9.51582 1.45085C9.78751 1.7155 9.94511 2.07579 9.95506 2.45494V2.51994C9.95738 2.7565 10.029 2.98718 10.161 3.18346C10.2931 3.37975 10.4798 3.53301 10.698 3.62431C10.9163 3.71561 11.1565 3.74093 11.389 3.69714C11.6214 3.65335 11.836 3.54238 12.0061 3.37794L12.0501 3.33394C12.1852 3.19881 12.3456 3.09162 12.5222 3.01849C12.6987 2.94536 12.888 2.90772 13.0791 2.90772C13.2702 2.90772 13.4594 2.94536 13.6359 3.01849C13.8125 3.09162 13.9729 3.19881 14.1081 3.33394C14.2432 3.46908 14.3504 3.6295 14.4235 3.80605C14.4966 3.98261 14.5343 4.17184 14.5343 4.36294C14.5343 4.55405 14.4966 4.74328 14.4235 4.91984C14.3504 5.09639 14.2432 5.25681 14.1081 5.39194L14.0641 5.43594C13.8963 5.60738 13.7838 5.82514 13.741 6.06114C13.6982 6.29714 13.7272 6.54054 13.8241 6.75994V6.81794C13.9164 7.03328 14.0698 7.21687 14.2653 7.34606C14.4607 7.47525 14.6897 7.54439 14.9241 7.54494H15.0481C15.4272 7.55489 15.7875 7.71249 16.0522 7.98418C16.3168 8.25587 16.4649 8.62016 16.4649 8.99944C16.4649 9.37873 16.3168 9.74302 16.0522 10.0147C15.7875 10.2864 15.4272 10.444 15.0481 10.4539H14.9801C14.7457 10.4545 14.5167 10.5236 14.3213 10.6528C14.1258 10.782 13.9724 10.9656 13.8801 11.1809L13.8821 11.1819Z" stroke="#004BFE" stroke-linecap="round" stroke-linejoin="round"/>
</svg>
