<svg width="25" height="24" viewBox="0 0 25 24" fill="none" xmlns="http://www.w3.org/2000/svg">
<g >
<path d="M12.25 22C11.432 22 10.65 21.67 9.087 21.01C5.196 19.366 3.25 18.543 3.25 17.16V7M12.25 22C13.068 22 13.85 21.67 15.413 21.01C19.304 19.366 21.25 18.543 21.25 17.16V7M12.25 22V11.355M6.25 12L8.25 13M17.25 4L7.25 9M8.576 9.691L5.655 8.278C4.052 7.502 3.25 7.114 3.25 6.5C3.25 5.886 4.052 5.498 5.655 4.722L8.575 3.309C10.38 2.436 11.28 2 12.25 2C13.22 2 14.121 2.436 15.924 3.309L18.845 4.722C20.448 5.498 21.25 5.886 21.25 6.5C21.25 7.114 20.448 7.502 18.845 8.278L15.925 9.691C14.12 10.564 13.22 11 12.25 11C11.28 11 10.379 10.564 8.576 9.691Z" stroke="black" stroke-width="1.5" stroke-linecap="round" stroke-linejoin="round"/>
</g>
</svg>
