<svg width="19" height="16" viewBox="0 0 19 16" fill="none" xmlns="http://www.w3.org/2000/svg">
<path fill-rule="evenodd" clip-rule="evenodd" d="M10.1169 2.09124C9.52165 2.38038 8.76742 2.87612 7.69258 3.5848L7.51014 3.7051C7.49625 3.71425 7.48255 3.72329 7.46902 3.73221C7.15219 3.9412 6.93276 4.08595 6.69231 4.19207C6.45534 4.29665 6.2063 4.37136 5.9509 4.41449C5.69174 4.45825 5.42887 4.4582 5.04931 4.45812C5.03311 4.45812 5.0167 4.45812 5.00007 4.45812C3.79701 4.45812 3.39093 4.47168 3.04567 4.63142C2.71204 4.78578 2.3567 5.12012 2.18233 5.44374C2.00044 5.78133 1.96704 6.12733 1.90283 7.1808C1.88521 7.46994 1.875 7.7471 1.875 7.99978C1.875 8.25247 1.88521 8.52962 1.90283 8.81876C1.96704 9.87223 2.00044 10.2182 2.18233 10.5558C2.3567 10.8794 2.71204 11.2138 3.04567 11.3681C3.39093 11.5279 3.79701 11.5414 5.00007 11.5414C5.0167 11.5414 5.03311 11.5414 5.04931 11.5414C5.42887 11.5414 5.69174 11.5413 5.9509 11.5851C6.2063 11.6282 6.45534 11.7029 6.69231 11.8075C6.93276 11.9136 7.15219 12.0584 7.46902 12.2673C7.48254 12.2763 7.49624 12.2853 7.51013 12.2945L7.69258 12.4148C8.76742 13.1234 9.52165 13.6192 10.1169 13.9083C10.7104 14.1967 11.0072 14.2082 11.2149 14.1374C11.3294 14.0983 11.4414 14.0413 11.5404 13.9717C11.7209 13.8448 11.8855 13.5994 12.0013 12.9566C12.1175 12.3108 12.1603 11.4176 12.2196 10.1419C12.263 9.20896 12.2917 8.42626 12.2917 7.99978C12.2917 7.57331 12.263 6.79061 12.2196 5.85764C12.1603 4.58201 12.1175 3.68873 12.0013 3.04299C11.8855 2.40019 11.7209 2.15471 11.5404 2.02784C11.4414 1.95828 11.3294 1.90126 11.2149 1.86219C11.0072 1.79133 10.7104 1.80289 10.1169 2.09124ZM9.57067 0.966882C10.259 0.632492 10.9368 0.446507 11.6186 0.679178C11.8451 0.756496 12.0632 0.867486 12.2591 1.00514C12.8475 1.41864 13.0965 2.07198 13.2315 2.82153C13.3642 3.55849 13.4095 4.53511 13.466 5.75169L13.4683 5.79962C13.5114 6.72875 13.5417 7.53979 13.5417 7.99978C13.5417 8.45978 13.5114 9.27081 13.4683 10.1999L13.466 10.2479C13.4095 11.4645 13.3642 12.4411 13.2315 13.178C13.0965 13.9276 12.8475 14.5809 12.2591 14.9944C12.0632 15.1321 11.8451 15.2431 11.6186 15.3204C10.9368 15.5531 10.259 15.3671 9.57067 15.0327C8.8927 14.7033 8.07011 14.161 7.04439 13.4846L6.82206 13.338C6.4488 13.0919 6.3204 13.0097 6.18761 12.9511C6.04543 12.8883 5.896 12.8435 5.74276 12.8176C5.59964 12.7935 5.44717 12.7914 5.00007 12.7914C4.95474 12.7914 4.91002 12.7915 4.86589 12.7915C3.85179 12.792 3.14716 12.7924 2.5208 12.5026C1.9418 12.2347 1.38451 11.7104 1.0819 11.1487C0.754719 10.5415 0.716328 9.90648 0.66174 9.00352C0.659574 8.96771 0.657384 8.93148 0.655149 8.89481C0.636444 8.58792 0.625 8.28443 0.625 7.99978C0.625 7.71513 0.636444 7.41164 0.655149 7.10476C0.657384 7.06809 0.659574 7.03185 0.66174 6.99604C0.716328 6.09309 0.754719 5.45806 1.0819 4.85082C1.38451 4.28919 1.9418 3.76484 2.5208 3.49696C3.14716 3.20716 3.85179 3.20753 4.86589 3.20807C4.91002 3.20809 4.95474 3.20812 5.00007 3.20812C5.44717 3.20812 5.59964 3.20611 5.74276 3.18194C5.896 3.15606 6.04543 3.11123 6.18761 3.04849C6.3204 2.98988 6.4488 2.90763 6.82206 2.66152L7.0444 2.51492C8.07012 1.83861 8.89271 1.29622 9.57067 0.966882ZM16.2666 2.51982C16.5317 2.29884 16.9258 2.33467 17.1468 2.59984L16.6667 2.99996C17.1468 2.59984 17.1468 2.59984 17.1468 2.59984L17.1478 2.60099L17.1488 2.60228L17.1513 2.60529L17.1576 2.61301C17.1623 2.61893 17.1682 2.62637 17.1751 2.63536C17.189 2.65334 17.2072 2.6775 17.229 2.70797C17.2725 2.76892 17.3305 2.85509 17.3979 2.96746C17.5328 3.19231 17.7052 3.52161 17.875 3.9631C18.2152 4.84757 18.5417 6.17365 18.5417 7.99996C18.5417 9.82627 18.2152 11.1523 17.875 12.0368C17.7052 12.4783 17.5328 12.8076 17.3979 13.0325C17.3305 13.1448 17.2725 13.231 17.229 13.2919C17.2072 13.3224 17.189 13.3466 17.1751 13.3646C17.171 13.3699 17.1672 13.3748 17.1638 13.379C17.1616 13.3819 17.1595 13.3845 17.1576 13.3869L17.1513 13.3946L17.1488 13.3976L17.1478 13.3989C17.1478 13.3989 17.1468 13.4001 16.6667 13L17.1468 13.4001C16.9258 13.6652 16.5317 13.7011 16.2666 13.4801C16.0027 13.2602 15.9659 12.8688 16.1834 12.6037M16.1834 12.6037C16.1834 12.6037 16.1848 12.6018 16.1863 12.6C16.1907 12.5943 16.1994 12.5828 16.2118 12.5654C16.2366 12.5306 16.2763 12.4723 16.326 12.3893C16.4255 12.2236 16.5656 11.9591 16.7083 11.5881C16.9931 10.8476 17.2917 9.67365 17.2917 7.99996C17.2917 6.32627 16.9931 5.15235 16.7083 4.41182C16.5656 4.04081 16.4255 3.77636 16.326 3.61058C16.2763 3.52764 16.2366 3.46928 16.2118 3.43452C16.1994 3.41714 16.1907 3.40566 16.1863 3.39996C16.1848 3.39812 16.1834 3.39624 16.1834 3.39624L16.1863 3.39996L16.185 3.39819L16.1834 3.39624C15.9659 3.13111 16.0027 2.73973 16.2666 2.51982M14.6965 4.95361C14.9982 4.78598 15.3787 4.89469 15.5463 5.19643L15.023 5.48717C15.5464 5.19644 15.5463 5.19643 15.5463 5.19643L15.547 5.19752L15.5476 5.19869L15.549 5.20123L15.5522 5.20716L15.5602 5.22245C15.5663 5.23418 15.5737 5.24897 15.5822 5.26689C15.5993 5.30275 15.6209 5.35108 15.6454 5.41237C15.6945 5.53501 15.7549 5.70912 15.8137 5.93847C15.9315 6.39759 16.0417 7.07486 16.0417 7.99996C16.0417 8.92506 15.9315 9.60233 15.8137 10.0614C15.7549 10.2908 15.6945 10.4649 15.6454 10.5875C15.6209 10.6488 15.5993 10.6972 15.5822 10.733C15.5737 10.7509 15.5663 10.7657 15.5602 10.7775L15.5522 10.7928L15.549 10.7987L15.5476 10.8012L15.547 10.8024C15.547 10.8024 15.5464 10.8035 15.023 10.5127L15.5463 10.8035C15.3787 11.1052 14.9982 11.2139 14.6965 11.0463C14.3973 10.8801 14.2879 10.5046 14.4494 10.2041L14.4536 10.1956C14.4593 10.1836 14.4703 10.1597 14.4848 10.1233C14.5139 10.0506 14.5576 9.92787 14.6029 9.75097C14.6935 9.39759 14.7917 8.82486 14.7917 7.99996C14.7917 7.17506 14.6935 6.60233 14.6029 6.24894C14.5576 6.07204 14.5139 5.94929 14.4848 5.87661C14.4703 5.84024 14.4593 5.81631 14.4536 5.80431L14.4494 5.79578C14.2879 5.4953 14.3973 5.11982 14.6965 4.95361Z" fill="#2C2D3A"/>
</svg>
