<svg width="36" height="36" viewBox="0 0 36 36" fill="none" xmlns="http://www.w3.org/2000/svg">
<rect width="36" height="36" rx="18" fill="#F0F0F3"/>
<path d="M22 28.75H14C10.35 28.75 8.25 26.65 8.25 23V13C8.25 9.35 10.35 7.25 14 7.25H22C25.65 7.25 27.75 9.35 27.75 13V23C27.75 26.65 25.65 28.75 22 28.75ZM14 8.75C11.14 8.75 9.75 10.14 9.75 13V23C9.75 25.86 11.14 27.25 14 27.25H22C24.86 27.25 26.25 25.86 26.25 23V13C26.25 10.14 24.86 8.75 22 8.75H14Z" fill="#484C52"/>
<path d="M24.5 15.25H22.5C20.98 15.25 19.75 14.02 19.75 12.5V10.5C19.75 10.09 20.09 9.75 20.5 9.75C20.91 9.75 21.25 10.09 21.25 10.5V12.5C21.25 13.19 21.81 13.75 22.5 13.75H24.5C24.91 13.75 25.25 14.09 25.25 14.5C25.25 14.91 24.91 15.25 24.5 15.25Z" fill="#484C52"/>
<path d="M18 19.75H14C13.59 19.75 13.25 19.41 13.25 19C13.25 18.59 13.59 18.25 14 18.25H18C18.41 18.25 18.75 18.59 18.75 19C18.75 19.41 18.41 19.75 18 19.75Z" fill="#484C52"/>
<path d="M22 23.75H14C13.59 23.75 13.25 23.41 13.25 23C13.25 22.59 13.59 22.25 14 22.25H22C22.41 22.25 22.75 22.59 22.75 23C22.75 23.41 22.41 23.75 22 23.75Z" fill="#484C52"/>
</svg>
