<svg width="40" height="40" viewBox="0 0 40 40" fill="none" xmlns="http://www.w3.org/2000/svg">
<path d="M20 40C31.0457 40 40 31.0457 40 20C40 8.9543 31.0457 0 20 0C8.9543 0 0 8.9543 0 20C0 31.0457 8.9543 40 20 40Z" fill="#004BFE"/>
<path d="M14 9H13C11.8954 9 11 9.89543 11 11V29C11 30.1046 11.8954 31 13 31H14C15.1046 31 16 30.1046 16 29V11C16 9.89543 15.1046 9 14 9Z" fill="white"/>
<path d="M20.5 15H19.5C18.3954 15 17.5 15.8954 17.5 17V29C17.5 30.1046 18.3954 31 19.5 31H20.5C21.6046 31 22.5 30.1046 22.5 29V17C22.5 15.8954 21.6046 15 20.5 15Z" fill="white"/>
<path d="M27 19H26C24.8954 19 24 19.8954 24 21V29C24 30.1046 24.8954 31 26 31H27C28.1046 31 29 30.1046 29 29V21C29 19.8954 28.1046 19 27 19Z" fill="white"/>
</svg>
