<svg width="20" height="20" viewBox="0 0 20 20" fill="none" xmlns="http://www.w3.org/2000/svg">
<path d="M17.227 7.02206L13.0243 2.78676M17.227 7.02206L11.9753 12.3145C11.2833 13.0119 10.4432 13.5626 9.47882 13.7302C8.50504 13.8994 7.29659 13.9558 6.72031 13.375C6.14402 12.7942 6.19991 11.5764 6.36786 10.5951C6.5342 9.62317 7.08058 8.77663 7.77261 8.07924L13.0243 2.78676M17.227 7.02206C17.227 7.02206 20.379 3.84559 18.2777 1.72794C16.1763 -0.389706 13.0243 2.78676 13.0243 2.78676M18.8614 10C18.8614 16.8824 16.76 19 9.93068 19C3.10134 19 1 16.8824 1 10C1 3.11765 3.10134 1 9.93068 1" stroke="black" stroke-width="1.5" stroke-linecap="round" stroke-linejoin="round"/>
</svg>
