<svg width="20" height="20" viewBox="0 0 20 20" fill="none" xmlns="http://www.w3.org/2000/svg">
<path fill-rule="evenodd" clip-rule="evenodd" d="M13.6616 1.68443L13.717 1.69928C14.6332 1.94475 15.3592 2.13928 15.9302 2.34556C16.5143 2.55657 16.9906 2.79795 17.383 3.16547C17.9544 3.70065 18.3543 4.39324 18.5321 5.15567C18.6542 5.67927 18.6251 6.21246 18.5157 6.82383C18.4089 7.42152 18.2143 8.14755 17.9688 9.06373L17.5226 10.729C17.2771 11.6451 17.0826 12.3711 16.8763 12.9421C16.6653 13.5262 16.424 14.0026 16.0564 14.395C15.5383 14.9482 14.8726 15.3406 14.1388 15.5264C13.9244 16.0179 13.6113 16.4629 13.2164 16.8328C12.824 17.2003 12.3477 17.4417 11.7635 17.6527C11.1925 17.859 10.4665 18.0535 9.5504 18.299L9.49503 18.3138C8.57885 18.5593 7.85281 18.7539 7.25512 18.8607C6.64375 18.9701 6.11056 18.9992 5.58696 18.8771C4.82453 18.6993 4.13194 18.2994 3.59676 17.7281C3.22923 17.3356 2.98786 16.8593 2.77685 16.2752C2.57057 15.7042 2.37604 14.9782 2.13056 14.062L1.68436 12.3967C1.43887 11.4806 1.24433 10.7546 1.13746 10.1569C1.02814 9.54555 0.999014 9.01235 1.1211 8.48876C1.29887 7.72632 1.69874 7.03373 2.27014 6.49855C2.66255 6.13103 3.13887 5.88965 3.72299 5.67865C4.29403 5.47236 5.02004 5.27783 5.93618 5.03236L5.96388 5.02494C6.18427 4.96588 6.39279 4.91011 6.59021 4.85795C6.91656 3.69201 7.20374 2.8678 7.76343 2.27022C8.2986 1.69882 8.9912 1.29895 9.75363 1.12118C10.2772 0.99909 10.8104 1.02821 11.4218 1.13754C12.0195 1.24441 12.7455 1.43894 13.6616 1.68443ZM6.21252 6.25241C5.30179 6.4965 4.64921 6.67311 4.14767 6.85429C3.63982 7.03775 3.34163 7.20764 3.12463 7.41088C2.73368 7.77706 2.46008 8.25094 2.33845 8.7726C2.27093 9.06215 2.27289 9.40534 2.36794 9.93688C2.46436 10.4761 2.64463 11.1509 2.89919 12.1009L3.33055 13.7108C3.5851 14.6608 3.76639 15.3353 3.9525 15.8505C4.13595 16.3584 4.30585 16.6566 4.50909 16.8736C4.87526 17.2645 5.34914 17.5381 5.87081 17.6597C6.16036 17.7273 6.50354 17.7253 7.03508 17.6303C7.5743 17.5338 8.24911 17.3536 9.19912 17.099C10.1491 16.8445 10.8237 16.6632 11.3389 16.4771C11.8467 16.2936 12.1449 16.1237 12.3619 15.9205C12.4765 15.8131 12.5811 15.6965 12.6747 15.5721C12.5255 15.5511 12.372 15.5243 12.2131 15.4927C11.6532 15.3813 10.9807 15.2011 10.1507 14.9787L10.1028 14.9659C9.1867 14.7204 8.4607 14.5259 7.88965 14.3196C7.30554 14.1086 6.82921 13.8672 6.43681 13.4997C5.86541 12.9645 5.46554 12.2719 5.28777 11.5095C5.16568 10.9859 5.1948 10.4527 5.30413 9.84136C5.411 9.24368 5.60554 8.51768 5.85102 7.60153L6.21252 6.25241ZM11.2018 2.36802C10.6702 2.27297 10.327 2.27101 10.0375 2.33852C9.51581 2.46016 9.04193 2.73375 8.67576 3.12471C8.31233 3.51273 8.08869 4.11218 7.69975 5.5361C7.63654 5.76752 7.56971 6.01694 7.49722 6.28748L7.06585 7.89736C6.8113 8.84737 6.63103 9.52218 6.53461 10.0614C6.43956 10.5929 6.4376 10.9361 6.50511 11.2257C6.62675 11.7473 6.90034 12.2212 7.2913 12.5874C7.5083 12.7906 7.80649 12.9605 8.31434 13.144C8.82952 13.3301 9.50407 13.5114 10.4541 13.7659C11.3086 13.9949 11.9419 14.1643 12.4569 14.2667C12.9695 14.3686 13.3175 14.3936 13.6026 14.3585C13.6647 14.3508 13.7243 14.3402 13.7824 14.3267C14.304 14.205 14.7779 13.9314 15.1441 13.5405C15.3473 13.3235 15.5172 13.0253 15.7007 12.5174C15.8868 12.0023 16.0681 11.3277 16.3226 10.3777L16.754 8.76783C17.0086 7.81782 17.1888 7.14301 17.2852 6.6038C17.3803 6.07225 17.3823 5.72907 17.3147 5.43952C17.1931 4.91785 16.9195 4.44397 16.5286 4.0778C16.3116 3.87456 16.0134 3.70466 15.5055 3.52121C14.9903 3.3351 14.3158 3.15382 13.3658 2.89926C12.4158 2.64471 11.741 2.46444 11.2018 2.36802ZM9.21034 8.17165C9.29968 7.83823 9.64239 7.64037 9.97581 7.7297L14.0005 8.80812C14.3339 8.89746 14.5318 9.24017 14.4424 9.57358C14.3531 9.907 14.0104 10.1049 13.677 10.0155L9.65228 8.93711C9.31887 8.84777 9.121 8.50506 9.21034 8.17165ZM8.56296 10.5864C8.6523 10.253 8.99501 10.0551 9.32843 10.1445L11.7432 10.7915C12.0767 10.8808 12.2745 11.2236 12.1852 11.557C12.0958 11.8904 11.7531 12.0883 11.4197 11.9989L9.0049 11.3519C8.67149 11.2625 8.47362 10.9198 8.56296 10.5864Z" fill="#2C2D3A"/>
</svg>
