<svg width="40" height="40" viewBox="0 0 40 40" fill="none" xmlns="http://www.w3.org/2000/svg">
<path d="M33 0H7C3.13401 0 0 3.13401 0 7V33C0 36.866 3.13401 40 7 40H33C36.866 40 40 36.866 40 33V7C40 3.13401 36.866 0 33 0Z" fill="#E6FAF5"/>
<path d="M18.81 24.9499C18.62 24.9499 18.43 24.8799 18.28 24.7299L16.78 23.2299C16.49 22.9399 16.49 22.4599 16.78 22.1699C17.07 21.8799 17.55 21.8799 17.84 22.1699L18.81 23.1399L22.28 19.6699C22.57 19.3799 23.05 19.3799 23.34 19.6699C23.63 19.9599 23.63 20.4399 23.34 20.7299L19.34 24.7299C19.2 24.8799 19 24.9499 18.81 24.9499Z" fill="#33C455"/>
<path d="M22 14.75H18C17.04 14.75 15.25 14.75 15.25 12C15.25 9.25 17.04 9.25 18 9.25H22C22.96 9.25 24.75 9.25 24.75 12C24.75 12.96 24.75 14.75 22 14.75ZM18 10.75C17.01 10.75 16.75 10.75 16.75 12C16.75 13.25 17.01 13.25 18 13.25H22C23.25 13.25 23.25 12.99 23.25 12C23.25 10.75 22.99 10.75 22 10.75H18Z" fill="#33C455"/>
<path d="M23 30.7499H17C11.38 30.7499 10.25 28.1699 10.25 23.9999V17.9999C10.25 13.4399 11.9 11.4899 15.96 11.2799C16.37 11.2599 16.73 11.5699 16.75 11.9899C16.77 12.4099 16.45 12.7499 16.04 12.7699C13.2 12.9299 11.75 13.7799 11.75 17.9999V23.9999C11.75 27.6999 12.48 29.2499 17 29.2499H23C27.52 29.2499 28.25 27.6999 28.25 23.9999V17.9999C28.25 13.7799 26.8 12.9299 23.96 12.7699C23.55 12.7499 23.23 12.3899 23.25 11.9799C23.27 11.5699 23.62 11.2499 24.04 11.2699C28.1 11.4899 29.75 13.4399 29.75 17.9899V23.9899C29.75 28.1699 28.62 30.7499 23 30.7499Z" fill="#33C455"/>
</svg>
