<svg width="18" height="18" viewBox="0 0 18 18" fill="none" xmlns="http://www.w3.org/2000/svg">
<path fill-rule="evenodd" clip-rule="evenodd" d="M8.18116 1.33473C4.30893 1.74359 1.29167 5.01948 1.29167 9.00008C1.29167 13.2573 4.74281 16.7084 9 16.7084C12.9806 16.7084 16.2565 13.6912 16.6654 9.81892C15.5597 11.2225 13.8438 12.1251 11.9167 12.1251C8.57995 12.1251 5.875 9.42013 5.875 6.08341C5.875 4.15623 6.77763 2.44033 8.18116 1.33473ZM0.0416679 9.00008C0.0416679 4.05253 4.05245 0.041748 9 0.041748C9.59719 0.041748 9.89616 0.517796 9.94737 0.89697C9.99663 1.26173 9.8618 1.72563 9.44253 1.97897C8.05221 2.81909 7.125 4.34327 7.125 6.08341C7.125 8.72978 9.2703 10.8751 11.9167 10.8751C13.6568 10.8751 15.181 9.94787 16.0211 8.55755C16.2745 8.13828 16.7384 8.00345 17.1031 8.05271C17.4823 8.10392 17.9583 8.40289 17.9583 9.00008C17.9583 13.9476 13.9476 17.9584 9 17.9584C4.05245 17.9584 0.0416679 13.9476 0.0416679 9.00008Z" fill="#2C2D3A"/>
</svg>
