<svg width="25" height="24" viewBox="0 0 25 24" fill="none" xmlns="http://www.w3.org/2000/svg">
<path d="M12.1001 12.75C8.9301 12.75 6.3501 10.17 6.3501 7C6.3501 3.83 8.9301 1.25 12.1001 1.25C15.2701 1.25 17.8501 3.83 17.8501 7C17.8501 10.17 15.2701 12.75 12.1001 12.75ZM12.1001 2.75C9.7601 2.75 7.8501 4.66 7.8501 7C7.8501 9.34 9.7601 11.25 12.1001 11.25C14.4401 11.25 16.3501 9.34 16.3501 7C16.3501 4.66 14.4401 2.75 12.1001 2.75Z" fill="#484C52"/>
<path d="M20.6902 22.75C20.2802 22.75 19.9402 22.41 19.9402 22C19.9402 18.55 16.4202 15.75 12.1003 15.75C7.78025 15.75 4.26025 18.55 4.26025 22C4.26025 22.41 3.92025 22.75 3.51025 22.75C3.10025 22.75 2.76025 22.41 2.76025 22C2.76025 17.73 6.95025 14.25 12.1003 14.25C17.2502 14.25 21.4402 17.73 21.4402 22C21.4402 22.41 21.1002 22.75 20.6902 22.75Z" fill="#484C52"/>
</svg>
