<svg width="20" height="20" viewBox="0 0 20 20" fill="none" xmlns="http://www.w3.org/2000/svg">
<path fill-rule="evenodd" clip-rule="evenodd" d="M3.54167 5.00008C3.54167 2.81395 5.31387 1.04175 7.5 1.04175C9.68613 1.04175 11.4583 2.81395 11.4583 5.00008C11.4583 7.18621 9.68613 8.95842 7.5 8.95842C5.31387 8.95842 3.54167 7.18621 3.54167 5.00008ZM7.5 2.29175C6.00423 2.29175 4.79167 3.50431 4.79167 5.00008C4.79167 6.49585 6.00423 7.70842 7.5 7.70842C8.99577 7.70842 10.2083 6.49585 10.2083 5.00008C10.2083 3.50431 8.99577 2.29175 7.5 2.29175Z" fill="#2C2D3A"/>
<path fill-rule="evenodd" clip-rule="evenodd" d="M3.06512 11.2671C4.23127 10.6007 5.80056 10.2084 7.5 10.2084C9.19945 10.2084 10.7687 10.6007 11.9349 11.2671C13.0833 11.9233 13.9583 12.9252 13.9583 14.1667C13.9583 15.4083 13.0833 16.4102 11.9349 17.0664C10.7687 17.7328 9.19945 18.1251 7.5 18.1251C5.80056 18.1251 4.23127 17.7328 3.06512 17.0664C1.91667 16.4102 1.04167 15.4083 1.04167 14.1667C1.04167 12.9252 1.91667 11.9233 3.06512 11.2671ZM3.6853 12.3524C2.72251 12.9025 2.29167 13.5674 2.29167 14.1667C2.29167 14.7661 2.72251 15.431 3.6853 15.9811C4.63041 16.5212 5.97779 16.8751 7.5 16.8751C9.02222 16.8751 10.3696 16.5212 11.3147 15.9811C12.2775 15.431 12.7083 14.7661 12.7083 14.1667C12.7083 13.5674 12.2775 12.9025 11.3147 12.3524C10.3696 11.8123 9.02222 11.4584 7.5 11.4584C5.97779 11.4584 4.63041 11.8123 3.6853 12.3524Z" fill="#2C2D3A"/>
<path fill-rule="evenodd" clip-rule="evenodd" d="M13.0752 6.20586C13.6758 5.9401 14.3732 5.99048 15 6.39915C15.6268 5.99048 16.3242 5.9401 16.9248 6.20586C17.6373 6.52119 18.125 7.24949 18.125 8.08319C18.125 8.8735 17.7798 9.46842 17.3662 9.91933C17.0434 10.2712 16.6441 10.5684 16.3287 10.8031C16.2611 10.8535 16.1971 10.9011 16.1388 10.9456L16.1371 10.9469C16.0132 11.0415 15.8529 11.1638 15.6839 11.2594C15.514 11.3555 15.2786 11.4584 15 11.4584C14.7214 11.4584 14.486 11.3555 14.3161 11.2594C14.1471 11.1638 13.9868 11.0415 13.8629 10.9469L13.8612 10.9456C13.8029 10.9011 13.7391 10.8536 13.6714 10.8032C13.3561 10.5685 12.9566 10.2712 12.6338 9.91933C12.2202 9.46842 11.875 8.8735 11.875 8.08319C11.875 7.24949 12.3627 6.52119 13.0752 6.20586ZM13.125 8.08319C13.125 7.73988 13.3249 7.46232 13.5811 7.34893C13.8029 7.25075 14.1561 7.2407 14.5568 7.64368C14.6741 7.76168 14.8336 7.82803 15 7.82803C15.1664 7.82803 15.3259 7.76168 15.4432 7.64368C15.8439 7.2407 16.1971 7.25075 16.4189 7.34893C16.6751 7.46232 16.875 7.73988 16.875 8.08319C16.875 8.46987 16.7178 8.77706 16.445 9.07436C16.21 9.33056 15.9297 9.54006 15.6198 9.7717C15.5418 9.83 15.4619 9.88975 15.3804 9.95196C15.245 10.0553 15.1511 10.1246 15.0684 10.1714C15.035 10.1903 15.0128 10.2 15 10.2048C14.9872 10.2 14.965 10.1903 14.9316 10.1714C14.8489 10.1246 14.755 10.0553 14.6196 9.95196C14.5381 9.88975 14.4582 9.83005 14.3802 9.77174C14.0703 9.54011 13.79 9.33056 13.555 9.07436C13.2822 8.77706 13.125 8.46987 13.125 8.08319Z" fill="#2C2D3A"/>
</svg>
