<svg width="66" height="67" viewBox="0 0 66 67" fill="none" xmlns="http://www.w3.org/2000/svg">
<g filter="url(#filter0_d_164_8751)">
<rect x="12" y="8.5" width="42" height="42" rx="21" fill="url(#paint0_linear_164_8751)" shape-rendering="crispEdges"/>
<path d="M30.5627 24.8957C30.5627 24.4469 30.1989 24.0832 29.7502 24.0832H28.4675H26.8235C27.2216 21.0268 29.8353 18.6665 33.0002 18.6665C36.1651 18.6665 38.7787 21.0268 39.1768 24.0832H37.5329L34.6252 24.0832C34.1764 24.0832 33.8127 24.4469 33.8127 24.8957C33.8127 25.3444 34.1764 25.7082 34.6252 25.7082L37.6043 25.7082H39.2293V27.3332H37.6043H34.6252C34.1764 27.3332 33.8127 27.6969 33.8127 28.1457C33.8127 28.5944 34.1764 28.9582 34.6252 28.9582H37.5329H39.1768C38.7787 32.0145 36.1651 34.3748 33.0002 34.3748C29.8353 34.3748 27.2216 32.0145 26.8235 28.9582H28.4675H29.7502C30.1989 28.9582 30.5627 28.5944 30.5627 28.1457C30.5627 27.6969 30.1989 27.3332 29.7502 27.3332H28.396H26.771V25.7082H28.396H29.7502C30.1989 25.7082 30.5627 25.3444 30.5627 24.8957Z" fill="white"/>
<path fill-rule="evenodd" clip-rule="evenodd" d="M24.3335 26.2498C24.7822 26.2498 25.146 26.6136 25.146 27.0623V28.1457C25.146 32.4834 28.6624 35.9998 33.0002 35.9998C37.3379 35.9998 40.8543 32.4834 40.8543 28.1457V27.0623C40.8543 26.6136 41.2181 26.2498 41.6668 26.2498C42.1156 26.2498 42.4793 26.6136 42.4793 27.0623V28.1457C42.4793 33.1072 38.6675 37.1784 33.8127 37.5905V40.0623C33.8127 40.5111 33.4489 40.8748 33.0002 40.8748C32.5514 40.8748 32.1877 40.5111 32.1877 40.0623V37.5905C27.3328 37.1784 23.521 33.1072 23.521 28.1457V27.0623C23.521 26.6136 23.8848 26.2498 24.3335 26.2498Z" fill="white"/>
</g>
<defs>
<filter id="filter0_d_164_8751" x="0" y="0.5" width="66" height="66" filterUnits="userSpaceOnUse" color-interpolation-filters="sRGB">
<feFlood flood-opacity="0" result="BackgroundImageFix"/>
<feColorMatrix in="SourceAlpha" type="matrix" values="0 0 0 0 0 0 0 0 0 0 0 0 0 0 0 0 0 0 127 0" result="hardAlpha"/>
<feOffset dy="4"/>
<feGaussianBlur stdDeviation="6"/>
<feComposite in2="hardAlpha" operator="out"/>
<feColorMatrix type="matrix" values="0 0 0 0 0.0509804 0 0 0 0 0.0392157 0 0 0 0 0.172549 0 0 0 0.06 0"/>
<feBlend mode="normal" in2="BackgroundImageFix" result="effect1_dropShadow_164_8751"/>
<feBlend mode="normal" in="SourceGraphic" in2="effect1_dropShadow_164_8751" result="shape"/>
</filter>
<linearGradient id="paint0_linear_164_8751" x1="12" y1="8.5" x2="52.7604" y2="38.4865" gradientUnits="userSpaceOnUse">
<stop stop-color="#40C4FF"/>
<stop offset="1" stop-color="#03A9F4"/>
</linearGradient>
</defs>
</svg>
